<?xml version="1.0" standalone="no"?>
<!DOCTYPE svg PUBLIC "-//W3C//DTD SVG 1.1//EN" "http://www.w3.org/Graphics/SVG/1.1/DTD/svg11.dtd" >
<svg xmlns="http://www.w3.org/2000/svg" xmlns:xlink="http://www.w3.org/1999/xlink" version="1.1">
<metadata>
Created by FontForge 20170731 at Tue Nov 24 06:19:55 2015
 By Aleksey,,,
(C) 2015 Frere-Jones Type LLC
</metadata>
<defs>
<font id="Mallory-Book" horiz-adv-x="0" >
  <font-face 
    font-family="Mallory Book"
    font-weight="400"
    font-stretch="normal"
    units-per-em="1000"
    panose-1="2 1 5 1 3 5 1 2 3 4"
    ascent="800"
    descent="-200"
    x-height="500"
    cap-height="700"
    bbox="-223 -259 1419 1070"
    underline-thickness="50"
    underline-position="-175"
    unicode-range="U+000D-FB02"
  />
<missing-glyph horiz-adv-x="700" 
d="M600 -240h-500v1200h500v-1200zM507 910h-315l158 -481zM150 -154l171 514l-171 514v-1028zM550 874l-172 -514l172 -514v1028zM507 -190l-157 481l-158 -481h315z" />
    <glyph glyph-name="fi" unicode="fi" horiz-adv-x="670" 
d="M384 500v-77h-165v-423h-90v423h-89v77h89v79q0 83 45 130.5t123 47.5q24 0 44 -4t41 -14l15 -92l-2 -2q-28 16 -49 22.5t-43 6.5q-39 0 -61.5 -24.5t-22.5 -67.5v-82h165zM535 741q26 0 44 -18t18 -44t-18 -44t-44 -18t-44 18t-18 44t18 44t44 18zM580 0h-90v500h90
v-500z" />
    <glyph glyph-name="fl" unicode="fl" horiz-adv-x="670" 
d="M384 500v-77h-165v-423h-90v423h-89v77h89v79q0 83 45 130.5t123 47.5q24 0 44 -4t41 -14l15 -92l-2 -2q-28 16 -49 22.5t-43 6.5q-39 0 -61.5 -24.5t-22.5 -67.5v-82h165zM580 0h-90v726l90 33v-759z" />
    <glyph glyph-name="f_f" unicode="ff" horiz-adv-x="801" 
d="M384 500v-77h-165v-423h-90v423h-89v77h89v79q0 83 45 130.5t123 47.5q24 0 44 -4t41 -14l15 -92l-2 -2q-28 16 -49 22.5t-43 6.5q-39 0 -61.5 -24.5t-22.5 -67.5v-82h165zM784 500v-77h-165v-423h-90v423h-89v77h89v79q0 83 45 130.5t123 47.5q24 0 44 -4t41 -14l15 -92
l-2 -2q-28 16 -49 22.5t-43 6.5q-39 0 -61.5 -24.5t-22.5 -67.5v-82h165z" />
    <glyph glyph-name="f_f_i" unicode="ffi" horiz-adv-x="1071" 
d="M384 500v-77h-165v-423h-90v423h-89v77h89v79q0 83 45 130.5t123 47.5q24 0 44 -4t41 -14l15 -92l-2 -2q-28 16 -49 22.5t-43 6.5q-39 0 -61.5 -24.5t-22.5 -67.5v-82h165zM784 500v-77h-165v-423h-90v423h-89v77h89v79q0 83 45 130.5t123 47.5q24 0 44 -4t41 -14l15 -92
l-2 -2q-28 16 -49 22.5t-43 6.5q-39 0 -61.5 -24.5t-22.5 -67.5v-82h165zM936 741q26 0 44 -18t18 -44t-18 -44t-44 -18t-44 18t-18 44t18 44t44 18zM981 0h-90v500h90v-500z" />
    <glyph glyph-name="f_f_l" unicode="ffl" horiz-adv-x="1071" 
d="M384 500v-77h-165v-423h-90v423h-89v77h89v79q0 83 45 130.5t123 47.5q24 0 44 -4t41 -14l15 -92l-2 -2q-28 16 -49 22.5t-43 6.5q-39 0 -61.5 -24.5t-22.5 -67.5v-82h165zM784 500v-77h-165v-423h-90v423h-89v77h89v79q0 83 45 130.5t123 47.5q24 0 44 -4t41 -14l15 -92
l-2 -2q-28 16 -49 22.5t-43 6.5q-39 0 -61.5 -24.5t-22.5 -67.5v-82h165zM981 0h-90v726l90 33v-759z" />
    <glyph glyph-name=".notdef" horiz-adv-x="700" 
d="M600 -240h-500v1200h500v-1200zM507 910h-315l158 -481zM150 -154l171 514l-171 514v-1028zM550 874l-172 -514l172 -514v1028zM507 -190l-157 481l-158 -481h315z" />
    <glyph glyph-name=".null" 
 />
    <glyph glyph-name=".null" 
 />
    <glyph glyph-name="nonmarkingreturn" horiz-adv-x="333" 
 />
    <glyph glyph-name="CR" unicode="&#xd;" horiz-adv-x="216" 
 />
    <glyph glyph-name="space" unicode=" " horiz-adv-x="216" 
 />
    <glyph glyph-name="exclam" unicode="!" horiz-adv-x="259" 
d="M179 700v-111l-30 -365h-39l-29 365v111h98zM130 -9q-28 0 -48 20t-20 48t20 48t48 20t47.5 -20t19.5 -48t-19.5 -48t-47.5 -20z" />
    <glyph glyph-name="quotedbl" unicode="&#x22;" horiz-adv-x="444" 
d="M235 422l83 278h111l-157 -292zM42 422l82 278h112l-158 -292z" />
    <glyph glyph-name="numbersign" unicode="#" horiz-adv-x="670" 
d="M224 260h189l43 180h-189zM414 -2h-62l42 179h-189l-42 -179h-62l42 179h-113v83h132l43 180h-125v83h144l42 179h62l-42 -179h189l42 179h62l-42 -179h103v-83h-122l-43 -180h115v-83h-134z" />
    <glyph glyph-name="dollar" unicode="$" horiz-adv-x="586" 
d="M150 520q0 -42 26.5 -68t97.5 -48l21 216h-9q-61 0 -98.5 -27.5t-37.5 -72.5zM444 189q0 43 -28 69.5t-94 45.5l-22 -224q67 2 105.5 31t38.5 78zM294 -2l-16 -161h-61l16 164q-46 6 -88.5 23.5t-78.5 43.5l-21 110l2 1q50 -37 100 -61.5t96 -32.5l23 235
q-112 27 -157 72.5t-45 122.5q0 84 65 135.5t168 51.5h4l12 121h61l-12 -126q36 -5 69.5 -17t63.5 -30v-104h-2q-34 24 -70 41t-71 25l-22 -224q113 -30 156.5 -74.5t43.5 -120.5q0 -87 -64 -139.5t-172 -55.5z" />
    <glyph glyph-name="percent" unicode="%" horiz-adv-x="928" 
d="M389 514q0 -90 -48.5 -146.5t-124.5 -56.5q-75 0 -123 56t-48 145t48.5 145.5t124.5 56.5q75 0 123 -56t48 -144zM269 -2h-82l251 369l221 335h82l-251 -369zM216 646q-42 0 -68 -37t-26 -96q0 -60 26.5 -97t69.5 -37q42 0 68 37t26 96q0 60 -26.5 97t-69.5 37zM539 186
q0 90 48.5 146.5t124.5 56.5q75 0 123 -56t48 -145t-48.5 -145.5t-124.5 -56.5q-75 0 -123 56t-48 144zM712 54q42 0 68 37t26 96q0 60 -26.5 97t-69.5 37q-42 0 -68 -37t-26 -96q0 -60 26.5 -97t69.5 -37z" />
    <glyph glyph-name="ampersand" unicode="&#x26;" horiz-adv-x="701" 
d="M333 640q-43 0 -69.5 -28t-26.5 -73q0 -30 12.5 -61.5t40.5 -74.5q62 36 94 73t32 73q0 39 -24 65t-59 26zM136 174q0 -42 29.5 -71t74.5 -29q40 0 78 19t80 59q-49 50 -83 88t-58 69q-64 -35 -92.5 -67t-28.5 -68zM679 0h-119q-18 16 -38.5 35t-66.5 62
q-55 -54 -108 -79t-113 -25q-84 0 -136.5 49.5t-52.5 126.5q0 62 40.5 111t127.5 91q-35 53 -50 92t-15 75q0 77 53 126.5t137 49.5q72 0 119.5 -45.5t47.5 -114.5q0 -58 -43.5 -111t-128.5 -98q25 -32 55 -65t65 -68q27 31 55.5 69t60.5 84h97l-1 -3q-54 -78 -90 -125
t-65 -81q40 -37 82 -75.5t87 -77.5v-3z" />
    <glyph glyph-name="quotesingle" unicode="'" horiz-adv-x="250" 
d="M42 422l82 278h112l-158 -292z" />
    <glyph glyph-name="parenleft" unicode="(" horiz-adv-x="409" 
d="M162 305q0 -117 56 -221.5t167 -193.5l-26 -30q-148 100 -216 207.5t-68 237.5t68 237.5t216 207.5l26 -30q-111 -89 -167 -193.5t-56 -221.5z" />
    <glyph glyph-name="parenright" unicode=")" horiz-adv-x="409" 
d="M247 305q0 117 -56 221.5t-167 193.5l26 30q148 -100 216 -207.5t68 -237.5t-68 -237.5t-216 -207.5l-26 30q111 89 167 193.5t56 221.5z" />
    <glyph glyph-name="asterisk" unicode="*" horiz-adv-x="519" 
d="M251 534l-42 171h101l-42 -171h-17zM294 515l150 93l31 -96l-175 -14zM226 515l-7 -17l-175 14l32 96zM289 468l135 -114l-82 -59l-66 162zM230 468l14 -11l-66 -162l-83 59z" />
    <glyph glyph-name="plus" unicode="+" horiz-adv-x="600" 
d="M550 390v-80h-208v-211h-84v211h-208v80h208v210h84v-210h208z" />
    <glyph glyph-name="comma" unicode="," horiz-adv-x="205" 
d="M15 -167l-27 23q48 64 63 108t15 114v31h93q0 -85 -27 -141.5t-117 -134.5z" />
    <glyph glyph-name="hyphen" unicode="-" horiz-adv-x="389" 
d="M64 232v85h261v-85h-261z" />
    <glyph glyph-name="period" unicode="." horiz-adv-x="205" 
d="M103 -9q-28 0 -48 20t-20 48t20 48t48 20t47.5 -20t19.5 -48t-19.5 -48t-47.5 -20z" />
    <glyph glyph-name="slash" unicode="/" horiz-adv-x="455" 
d="M72 -130h-78l352 870h78z" />
    <glyph glyph-name="zero" unicode="0" horiz-adv-x="674" 
d="M612 351q0 -161 -76.5 -263t-199.5 -102t-198.5 101.5t-75.5 261.5t76.5 262.5t199.5 102.5q122 0 198 -102t76 -261zM336 629q-80 0 -130.5 -78t-50.5 -200q0 -123 51 -201.5t132 -78.5q80 0 130.5 77.5t50.5 200.5t-51.5 201.5t-131.5 78.5z" />
    <glyph glyph-name="one" unicode="1" horiz-adv-x="434" 
d="M319 708v-708h-93v565l-182 -116v100l258 164z" />
    <glyph glyph-name="two" unicode="2" horiz-adv-x="577" 
d="M486 0h-429l-8 18l246 299q60 72 79.5 112t19.5 82q0 49 -32 81.5t-82 32.5q-53 0 -102 -34t-99 -106h-2l-15 105q47 60 102.5 90t121.5 30q90 0 145 -52.5t55 -138.5q0 -56 -24 -106.5t-90 -129.5l-169 -200h330z" />
    <glyph glyph-name="three" unicode="3" horiz-adv-x="548" 
d="M493 187q0 -85 -67.5 -141.5t-164.5 -56.5q-53 0 -94.5 11.5t-98.5 46.5l-17 109l2 1q63 -46 109 -64.5t96 -18.5q60 0 99.5 32t39.5 82q0 60 -55.5 95.5t-174.5 52.5v36q116 37 165 73t49 86q0 43 -30.5 69t-80.5 26q-43 0 -89 -19.5t-105 -63.5h-2v103q60 38 105 51.5
t97 13.5q92 0 146 -46t54 -124q0 -54 -34.5 -98t-101.5 -76q73 -21 113 -69t40 -111z" />
    <glyph glyph-name="four" unicode="4" horiz-adv-x="623" 
d="M151 239h236v349zM587 239v-76h-114v-163h-88v163h-357l-4 22l355 520h94v-466h114z" />
    <glyph glyph-name="five" unicode="5" horiz-adv-x="578" 
d="M522 222q0 -102 -70.5 -168t-183.5 -66q-52 0 -99.5 11t-89.5 33l-15 101q55 -31 104.5 -46.5t95.5 -15.5q71 0 116.5 41.5t45.5 105.5t-42 100.5t-116 36.5q-39 0 -83 -9.5t-82 -26.5l-15 7l26 374h375v-85h-294l-14 -192q29 9 54.5 13t52.5 4q105 0 169.5 -59.5
t64.5 -158.5z" />
    <glyph glyph-name="six" unicode="6" horiz-adv-x="599" 
d="M550 228q0 -102 -72.5 -172t-179.5 -70q-110 0 -175 67.5t-65 181.5q0 70 30.5 139t110.5 179l107 147h109l-132 -178q-22 -30 -38 -53.5t-28 -43.5q32 12 60.5 17t61.5 5q89 0 150 -61.5t61 -157.5zM151 237q0 -77 41 -123t108 -46q69 0 113 44t44 111q0 71 -43 108.5
t-122 37.5q-27 0 -54 -3.5t-59 -10.5q-15 -31 -21.5 -59.5t-6.5 -58.5z" />
    <glyph glyph-name="seven" unicode="7" horiz-adv-x="576" 
d="M549 686l-332 -686h-101l307 617h-355l-18 83h490z" />
    <glyph glyph-name="eight" unicode="8" horiz-adv-x="612" 
d="M553 185q0 -85 -70.5 -141t-177.5 -56t-176.5 56t-69.5 141q0 56 32 100.5t89 70.5q-48 26 -74.5 68.5t-26.5 93.5q0 83 65 138.5t163 55.5t162 -55.5t64 -138.5q0 -51 -26.5 -93.5t-74.5 -67.5q57 -26 89 -71t32 -101zM305 631q-60 0 -97 -32.5t-37 -83.5t39 -86t97 -35
q57 0 95.5 35t38.5 86q0 50 -38 83t-98 33zM305 316q-64 0 -109.5 -35.5t-45.5 -87.5q0 -55 44.5 -89.5t112.5 -34.5t111.5 34.5t43.5 89.5q0 52 -46.5 87.5t-110.5 35.5z" />
    <glyph glyph-name="nine" unicode="9" horiz-adv-x="599" 
d="M400 147l-107 -147h-109l131 178q16 21 31 43l30 44q-30 -11 -57 -15.5t-59 -4.5q-91 0 -151 62.5t-60 160.5q0 104 72 175t180 71q110 0 175 -67.5t65 -181.5q0 -70 -30.5 -139t-110.5 -179zM142 473q0 -74 42.5 -112t123.5 -38q26 0 52 3.5t56 10.5q16 34 24 64t8 62
q0 76 -41 122.5t-108 46.5q-69 0 -113 -45t-44 -114z" />
    <glyph glyph-name="colon" unicode=":" horiz-adv-x="224" 
d="M112 373q-28 0 -47.5 20t-19.5 48t19.5 48t47.5 20t48 -20t20 -48t-20 -48t-48 -20zM112 -9q-28 0 -47.5 20t-19.5 48t19.5 48t47.5 20t48 -20t20 -48t-20 -48t-48 -20z" />
    <glyph glyph-name="semicolon" unicode=";" horiz-adv-x="224" 
d="M115 373q-28 0 -48 20t-20 48t20 48t48 20t48 -20t20 -48t-20 -48t-48 -20zM20 -167l-27 23q48 64 63 108t15 114v31h93q0 -85 -27 -141.5t-117 -134.5z" />
    <glyph glyph-name="less" unicode="&#x3c;" horiz-adv-x="600" 
d="M537 187v-90l-484 241v25l484 240v-88l-340 -164z" />
    <glyph glyph-name="equal" unicode="=" horiz-adv-x="600" 
d="M540 490v-80h-480v80h480zM540 290v-80h-480v80h480z" />
    <glyph glyph-name="greater" unicode="&#x3e;" horiz-adv-x="600" 
d="M547 338l-484 -241v88l340 165l-340 163v90l484 -240v-25z" />
    <glyph glyph-name="question" unicode="?" horiz-adv-x="483" 
d="M44 520v103q47 44 98 65.5t108 21.5q83 0 133.5 -45t50.5 -121q0 -53 -26 -89.5t-98 -75.5q-53 -30 -69.5 -45.5t-16.5 -33.5q0 -15 6 -31.5t21 -43.5h-55q-33 40 -42.5 60t-9.5 43q0 30 20.5 52.5t84.5 56.5q57 31 76.5 54t19.5 54q0 36 -28 58.5t-72 22.5
q-49 0 -95 -24.5t-104 -82.5zM216 -9q-28 0 -48 20t-20 48t20 48t48 20t47.5 -20t19.5 -48t-19.5 -48t-47.5 -20z" />
    <glyph glyph-name="at" unicode="@" horiz-adv-x="1024" 
d="M470 -185q-197 0 -311 103.5t-114 284.5q0 104 41.5 203.5t117.5 176.5q76 78 174 120t205 42q178 0 287 -102.5t109 -269.5q0 -138 -68 -227t-178 -89q-52 0 -88 23t-43 61q-52 -43 -96.5 -63t-88.5 -20q-64 0 -101.5 40.5t-37.5 110.5q0 56 24.5 111.5t68.5 98.5
q44 42 99 65t114 23q27 0 54.5 -7t53.5 -20l41 18h23l-73 -301q-3 -15 -4 -22t-1 -14q0 -31 20.5 -49t55.5 -18q81 0 136 81t55 197q0 156 -99 249t-265 93q-98 0 -189.5 -40t-162.5 -113t-110 -166t-39 -190q0 -170 103.5 -264.5t288.5 -94.5q81 0 151 13t138 40v-34
q-72 -26 -141.5 -38t-149.5 -12zM358 219q0 -43 23 -65.5t66 -22.5q32 0 70 16.5t88 52.5l54 218q-19 9 -38.5 13t-41.5 4q-90 0 -155.5 -66t-65.5 -150z" />
    <glyph glyph-name="A" unicode="A" horiz-adv-x="789" 
d="M248 265h291l-143 329zM758 0h-104l-78 180h-366l-81 -180h-100l326 704h89z" />
    <glyph glyph-name="B" unicode="B" horiz-adv-x="617" 
d="M563 198q0 -90 -70 -144t-184 -54h-209v700h211q103 0 162 -48.5t59 -134.5q0 -50 -27.5 -89t-78.5 -64q66 -20 101.5 -62.5t35.5 -103.5zM305 617h-112v-219h102q63 0 102 31.5t39 81.5q0 49 -35.5 77.5t-95.5 28.5zM193 316v-233h121q70 0 111.5 32t41.5 85
q0 55 -41.5 85.5t-116.5 30.5h-116z" />
    <glyph glyph-name="C" unicode="C" horiz-adv-x="721" 
d="M404 -12q-149 0 -249 102t-100 260q0 74 27.5 140t78.5 117q51 50 117.5 77.5t139.5 27.5q68 0 126.5 -22t107.5 -65v-117h-2q-58 58 -116.5 86t-120.5 28q-106 0 -182.5 -79t-76.5 -190q0 -118 75 -196.5t181 -78.5q67 0 130.5 28.5t122.5 85.5l2 -2l-14 -112
q-58 -46 -119 -68t-128 -22z" />
    <glyph glyph-name="D" unicode="D" horiz-adv-x="783" 
d="M628 350q0 121 -81 191.5t-218 70.5h-132v-524h136q130 0 212.5 72.5t82.5 189.5zM331 0h-231v700h231q182 0 289 -94t107 -254q0 -157 -110.5 -254.5t-285.5 -97.5z" />
    <glyph glyph-name="E" unicode="E" horiz-adv-x="584" 
d="M497 0h-397v700h394l29 -87h-326v-214h273v-86h-273v-226h329z" />
    <glyph glyph-name="F" unicode="F" horiz-adv-x="542" 
d="M449 387v-87h-252v-300h-97v700h412l-30 -87h-285v-226h252z" />
    <glyph glyph-name="G" unicode="G" horiz-adv-x="795" 
d="M702 364v-287q-69 -46 -138 -66.5t-149 -20.5q-160 0 -260 98.5t-100 259.5q0 158 108.5 260t275.5 102q68 0 127 -14.5t118 -45.5v-108q-66 40 -126.5 58.5t-121.5 18.5q-120 0 -201 -77.5t-81 -191.5q0 -121 74 -195.5t192 -74.5q54 0 99.5 11t87.5 35v150h-201v88h296
z" />
    <glyph glyph-name="H" unicode="H" horiz-adv-x="816" 
d="M715 0h-96v313h-422v-313h-97v700h97v-298h422v298h96v-700z" />
    <glyph glyph-name="I" unicode="I" horiz-adv-x="307" 
d="M202 0h-97v700h97v-700z" />
    <glyph glyph-name="J" unicode="J" horiz-adv-x="459" 
d="M161 80q50 0 78 30.5t28 86.5v503h97v-515q0 -91 -50.5 -143t-137.5 -52q-34 0 -64.5 8.5t-57.5 26.5l-23 109l2 1q35 -28 66 -41.5t62 -13.5z" />
    <glyph glyph-name="K" unicode="K" horiz-adv-x="690" 
d="M679 0h-127l-332 316h-23v-316h-97v700h97v-301h24l329 301h125v-3l-377 -337l381 -357v-3z" />
    <glyph glyph-name="L" unicode="L" horiz-adv-x="537" 
d="M498 0h-398v700h97v-613h301v-87z" />
    <glyph glyph-name="M" unicode="M" horiz-adv-x="1029" 
d="M520 -11h-15l-314 614v-603h-91v700h143l270 -538l269 538h146v-700h-94v608z" />
    <glyph glyph-name="N" unicode="N" horiz-adv-x="823" 
d="M722 -5h-33l-497 566v-561h-92v700h89l442 -503v503h91v-705z" />
    <glyph glyph-name="O" unicode="O" horiz-adv-x="841" 
d="M420 -14q-155 0 -260 105t-105 258q0 154 106 259.5t261 105.5q154 0 259 -105t105 -258q0 -154 -106 -259.5t-260 -105.5zM418 624q-110 0 -187 -79.5t-77 -193.5q0 -116 77 -195.5t189 -79.5q110 0 188.5 79.5t78.5 193.5q0 115 -78.5 195t-190.5 80z" />
    <glyph glyph-name="P" unicode="P" horiz-adv-x="592" 
d="M297 614h-101v-275h96q73 0 116.5 38.5t43.5 103.5q0 61 -42 97t-113 36zM550 482q0 -105 -71 -167.5t-187 -62.5h-95v-252h-97v700h200q115 0 182.5 -58t67.5 -160z" />
    <glyph glyph-name="Q" unicode="Q" horiz-adv-x="841" 
d="M658 -150q-77 0 -135 31.5t-119 104.5q-149 7 -249 111t-100 252q0 154 106 259.5t261 105.5q154 0 259 -105t105 -258q0 -124 -72 -220t-188 -130q34 -34 66.5 -48.5t74.5 -14.5q24 0 47 4t45 13l2 -2l-32 -93q-17 -5 -35 -7.5t-36 -2.5zM687 349q0 115 -78.5 195
t-190.5 80q-110 0 -187 -79.5t-77 -193.5q0 -116 77 -195.5t189 -79.5q110 0 188.5 79.5t78.5 193.5z" />
    <glyph glyph-name="R" unicode="R" horiz-adv-x="635" 
d="M301 614h-106v-249h101q64 0 104.5 36t40.5 92q0 54 -39 87.5t-101 33.5zM640 0h-121l-246 280h-76v-280h-97v700h204q106 0 170.5 -56t64.5 -151q0 -71 -44 -124t-119 -73z" />
    <glyph glyph-name="S" unicode="S" horiz-adv-x="554" 
d="M249 316q-103 46 -142 92.5t-39 113.5q0 86 58.5 138t154.5 52q52 0 96 -12.5t88 -40.5v-108h-2q-48 36 -94.5 53.5t-91.5 17.5q-53 0 -84.5 -24.5t-31.5 -66.5q0 -40 29 -67t122 -69q99 -45 140.5 -93t41.5 -115q0 -89 -63 -144t-164 -55q-56 0 -108 17.5t-97 51.5
l-23 130l2 1q55 -51 116 -80.5t115 -29.5q58 0 93 27.5t35 73.5q0 39 -30.5 68t-120.5 69z" />
    <glyph glyph-name="T" unicode="T" horiz-adv-x="715" 
d="M680 700v-87h-275v-613h-96v613h-274v87h645z" />
    <glyph glyph-name="U" unicode="U" horiz-adv-x="789" 
d="M394 -12q-141 0 -222 85t-81 233v394h97v-396q0 -107 55 -167t153 -60t153 60t55 170v393h93v-394q0 -149 -80.5 -233.5t-222.5 -84.5z" />
    <glyph glyph-name="V" unicode="V" horiz-adv-x="771" 
d="M392 -16h-22l-339 716h108l246 -542l253 542h104z" />
    <glyph glyph-name="W" unicode="W" horiz-adv-x="1176" 
d="M371 -4h-93l-241 704h105l188 -578l252 586h17l244 -586l196 578h102l-252 -704h-94l-208 509z" />
    <glyph glyph-name="X" unicode="X" horiz-adv-x="739" 
d="M704 0h-114l-223 289l-220 -289h-112l276 355l-268 345h114l214 -277l214 277h111l-269 -345z" />
    <glyph glyph-name="Y" unicode="Y" horiz-adv-x="668" 
d="M382 313v-313h-96v313l-273 387h115l208 -302l208 302h111z" />
    <glyph glyph-name="Z" unicode="Z" horiz-adv-x="698" 
d="M660 87l-47 -87h-567l-7 14l448 599h-416v87h574l7 -14l-449 -599h457z" />
    <glyph glyph-name="bracketleft" unicode="[" horiz-adv-x="410" 
d="M363 -130h-256v870h256l13 -56h-185v-758h185z" />
    <glyph glyph-name="backslash" unicode="\" horiz-adv-x="455" 
d="M110 740l351 -870h-78l-351 870h78z" />
    <glyph glyph-name="bracketright" unicode="]" horiz-adv-x="410" 
d="M47 740h256v-870h-256l-13 56h185v758h-185z" />
    <glyph glyph-name="asciicircum" unicode="^" horiz-adv-x="600" 
d="M552 335h-92l-161 264l-161 -264h-90l241 390h22z" />
    <glyph glyph-name="underscore" unicode="_" horiz-adv-x="600" 
d="M-2 -140v62h604v-62h-604z" />
    <glyph glyph-name="grave" unicode="`" horiz-adv-x="500" 
d="M189 772l84 -169h-43l-163 167v2h122z" />
    <glyph glyph-name="a" unicode="a" horiz-adv-x="567" 
d="M492 12l-90 -20v89q-56 -45 -105.5 -67t-96.5 -22q-66 0 -107 36.5t-41 97.5q0 86 86 127.5t264 43.5v2q0 62 -29.5 94.5t-85.5 32.5q-42 0 -86.5 -18t-91.5 -54l-3 1l20 101q40 27 83.5 40t91.5 13q92 0 141.5 -53t49.5 -152v-292zM143 130q0 -28 20 -44.5t55 -16.5
t80 17t104 53v100q-130 -8 -194.5 -34.5t-64.5 -74.5z" />
    <glyph glyph-name="b" unicode="b" horiz-adv-x="616" 
d="M571 264q0 -119 -79 -195.5t-196 -76.5q-34 0 -67 7t-68 22l-65 -21h-11v726l90 33v-332q44 44 86 63.5t90 19.5q93 0 156.5 -70.5t63.5 -175.5zM294 72q80 0 132.5 53t52.5 133q0 76 -43.5 123.5t-111.5 47.5q-39 0 -74 -15t-75 -48v-270q30 -12 59 -18t60 -6z" />
    <glyph glyph-name="c" unicode="c" horiz-adv-x="539" 
d="M489 147l-16 -102q-41 -28 -85 -42.5t-89 -14.5q-113 0 -184 73t-71 188q0 112 75.5 187.5t190.5 75.5q50 0 91 -14.5t77 -45.5v-110h-3q-43 45 -84 66t-83 21q-73 0 -122 -52t-49 -127q0 -78 46.5 -128.5t119.5 -50.5q44 0 92.5 21t90.5 57z" />
    <glyph glyph-name="d" unicode="d" horiz-adv-x="620" 
d="M137 247q0 -77 45.5 -126.5t113.5 -49.5q39 0 74 15t75 48v252q-35 22 -67 32t-67 10q-75 0 -124.5 -51t-49.5 -130zM536 0h-91v72q-43 -43 -83.5 -62.5t-89.5 -19.5q-96 0 -162 71.5t-66 178.5q0 115 74 191.5t178 76.5q39 0 75.5 -12.5t73.5 -39.5v270l91 33v-759z" />
    <glyph glyph-name="e" unicode="e" horiz-adv-x="559" 
d="M284 435q-61 0 -102.5 -43t-47.5 -110h290q-6 72 -43 112.5t-97 40.5zM499 130l-32 -97q-44 -24 -82 -34t-83 -10q-119 0 -189 71t-70 190q0 110 70 187t174 77t166 -72.5t62 -186.5q0 -10 -1 -22t-2 -18h-376q10 -68 56.5 -106t119.5 -38q43 0 91 16t93 45z" />
    <glyph glyph-name="f" unicode="f" horiz-adv-x="400" 
d="M384 500v-77h-165v-423h-90v423h-89v77h89v79q0 83 45 130.5t123 47.5q24 0 44 -4t41 -14l15 -92l-2 -2q-28 16 -49 22.5t-43 6.5q-39 0 -61.5 -24.5t-22.5 -67.5v-82h165z" />
    <glyph glyph-name="g" unicode="g" horiz-adv-x="620" 
d="M137 252q0 -73 43 -118t112 -45q38 0 74.5 15.5t78.5 50.5v248q-33 14 -63 21t-61 7q-79 0 -131.5 -51t-52.5 -128zM277 -196q-51 0 -99 11t-97 35l-19 99l3 2q60 -34 111.5 -49t104.5 -15q74 0 119 43.5t45 117.5v45q-45 -44 -88 -63.5t-92 -19.5q-96 0 -158.5 67
t-62.5 170q0 114 79.5 187.5t195.5 73.5q34 0 67 -7t71 -23l67 22h12v-452q0 -114 -69.5 -179t-189.5 -65z" />
    <glyph glyph-name="h" unicode="h" horiz-adv-x="604" 
d="M328 429q-39 0 -73.5 -20.5t-79.5 -69.5v-339h-90v726l90 33v-353q43 55 85 79.5t93 24.5q79 0 127.5 -53t48.5 -142v-315h-90v306q0 58 -29.5 90.5t-81.5 32.5z" />
    <glyph glyph-name="i" unicode="i" horiz-adv-x="270" 
d="M135 741q26 0 44 -18t18 -44t-18 -44t-44 -18t-44 18t-18 44t18 44t44 18zM180 0h-90v500h90v-500z" />
    <glyph glyph-name="j" unicode="j" horiz-adv-x="270" 
d="M135 741q26 0 44 -18t18 -44t-18 -44t-44 -18t-44 18t-18 44t18 44t44 18zM90 500h91v-527q0 -80 -40.5 -123.5t-112.5 -43.5q-12 0 -25 2t-24 5l-13 78q13 -4 24 -5.5t22 -1.5q38 0 58 22.5t20 65.5v528z" />
    <glyph glyph-name="k" unicode="k" horiz-adv-x="551" 
d="M542 0h-118l-220 220h-29v-220h-90v726l90 33v-471h28l209 212h113v-3l-244 -240l261 -254v-3z" />
    <glyph glyph-name="l" unicode="l" horiz-adv-x="270" 
d="M180 0h-90v726l90 33v-759z" />
    <glyph glyph-name="m" unicode="m" horiz-adv-x="921" 
d="M315 429q-35 0 -66.5 -19.5t-73.5 -66.5v-343h-90v488l90 20v-98q40 53 80 76.5t87 23.5q55 0 95.5 -29t59.5 -82q44 59 86 85t94 26q76 0 122.5 -53t46.5 -142v-315h-91v306q0 58 -28 90.5t-77 32.5q-35 0 -67.5 -20t-73.5 -67q1 -4 1 -9.5v-17.5v-315h-90v306
q0 58 -28 90.5t-77 32.5z" />
    <glyph glyph-name="n" unicode="n" horiz-adv-x="604" 
d="M328 429q-39 0 -73.5 -20.5t-79.5 -69.5v-339h-90v488l90 20v-102q43 55 85 79.5t93 24.5q79 0 127.5 -53t48.5 -142v-315h-90v306q0 58 -29.5 90.5t-81.5 32.5z" />
    <glyph glyph-name="o" unicode="o" horiz-adv-x="614" 
d="M306 -14q-115 0 -189 76.5t-74 186.5q0 109 76 187t189 78q116 0 189.5 -75.5t73.5 -186.5q0 -110 -75.5 -188t-189.5 -78zM479 252q0 78 -48.5 129.5t-122.5 51.5q-75 0 -123.5 -52.5t-48.5 -131.5q0 -78 48.5 -130t121.5 -52q75 0 124 53t49 132z" />
    <glyph glyph-name="p" unicode="p" horiz-adv-x="620" 
d="M310 72q75 0 124 51.5t49 129.5t-45.5 127t-113.5 49q-39 0 -74 -15t-75 -48v-251q34 -22 66.5 -32.5t68.5 -10.5zM576 260q0 -115 -73.5 -191.5t-177.5 -76.5q-40 0 -76.5 13t-73.5 40v-236h-90v680l90 19v-81q42 44 83 63.5t90 19.5q96 0 162 -71.5t66 -178.5z" />
    <glyph glyph-name="q" unicode="q" horiz-adv-x="616" 
d="M531 500v-691h-90v264q-44 -44 -85.5 -63.5t-90.5 -19.5q-94 0 -157.5 70.5t-63.5 175.5q0 119 79.5 195.5t196.5 76.5q34 0 67 -7t68 -22l65 21h11zM137 242q0 -76 43.5 -123.5t111.5 -47.5q39 0 74 15t75 48v270q-31 12 -60 18t-60 6q-79 0 -131.5 -53t-52.5 -133z" />
    <glyph glyph-name="r" unicode="r" horiz-adv-x="415" 
d="M175 320v-320h-90v488l90 20v-127q62 77 97.5 102t76.5 25q9 0 15.5 -1t16.5 -3l7 -95q-7 2 -13.5 2.5t-13.5 0.5q-44 0 -86.5 -21t-99.5 -71z" />
    <glyph glyph-name="s" unicode="s" horiz-adv-x="504" 
d="M281 292q99 -23 137.5 -58t38.5 -96q0 -65 -56.5 -107t-144.5 -42q-53 0 -101 15t-95 46l-19 108l3 2q53 -43 110.5 -66.5t111.5 -23.5q45 0 74.5 17.5t29.5 45.5q0 30 -27.5 47t-108.5 36q-97 23 -135 57t-38 89q0 66 54.5 107.5t140.5 41.5q42 0 84 -12t80 -34v-94
l-3 -2q-46 30 -89.5 45.5t-81.5 15.5q-45 0 -71.5 -16t-26.5 -42q0 -28 27 -44.5t106 -35.5z" />
    <glyph glyph-name="t" unicode="t" horiz-adv-x="447" 
d="M406 119l-20 -95q-22 -16 -52 -25.5t-62 -9.5q-71 0 -112 44t-41 123v267h-85v77h85v112l89 33v-145h196v-77h-196v-263q0 -45 21 -67.5t62 -22.5q28 0 56 13t56 38z" />
    <glyph glyph-name="u" unicode="u" horiz-adv-x="604" 
d="M520 0h-91v94q-43 -55 -85 -79.5t-93 -24.5q-79 0 -127.5 53t-48.5 142v315h91v-306q0 -58 29.5 -90.5t81.5 -32.5q38 0 72.5 20.5t79.5 69.5v339h91v-500z" />
    <glyph glyph-name="v" unicode="v" horiz-adv-x="569" 
d="M286 -14h-19l-246 514h99l160 -353l172 353h98z" />
    <glyph glyph-name="w" unicode="w" horiz-adv-x="879" 
d="M284 -7h-76l-182 507h97l129 -387l182 393h17l169 -393l142 387h92l-196 -507h-75l-145 332z" />
    <glyph glyph-name="x" unicode="x" horiz-adv-x="558" 
d="M529 0h-106l-145 194l-147 -194h-103l199 256l-188 244h107l134 -179l135 179h103l-187 -242z" />
    <glyph glyph-name="y" unicode="y" horiz-adv-x="548" 
d="M122 -194q-23 0 -44 4.5t-41 14.5l-18 91l3 2q23 -14 43 -20.5t42 -6.5q36 0 61.5 21t44.5 65l22 51l-212 472h100l158 -369l148 369h98l-231 -554q-29 -70 -72.5 -105t-101.5 -35z" />
    <glyph glyph-name="z" unicode="z" horiz-adv-x="535" 
d="M498 78l-28 -78h-438l-5 15l314 407h-279v78h428l4 -14l-314 -408h318z" />
    <glyph glyph-name="braceleft" unicode="{" horiz-adv-x="492" 
d="M458 -74l-13 -56h-110q-86 0 -136.5 39.5t-50.5 107.5q0 21 6.5 44t27.5 66q16 33 21 48.5t5 28.5q0 30 -22 46t-76 24l-74 11v40l74 11q54 8 76 24t22 46q0 13 -5 28.5t-21 48.5q-21 43 -27.5 66t-6.5 44q0 68 50.5 107.5t136.5 39.5h110l13 -56h-104q-55 0 -84 -22
t-29 -63q0 -15 5 -32.5t21 -54.5q19 -41 24.5 -62t5.5 -39q0 -38 -22.5 -63t-74.5 -43q52 -18 74.5 -43t22.5 -63q0 -18 -5.5 -39t-24.5 -62q-16 -37 -21 -54.5t-5 -32.5q0 -41 29.5 -63t83.5 -22h104z" />
    <glyph glyph-name="bar" unicode="|" horiz-adv-x="378" 
d="M228 740v-870h-78v870h78z" />
    <glyph glyph-name="braceright" unicode="}" horiz-adv-x="492" 
d="M344 17q0 -68 -50.5 -107.5t-136.5 -39.5h-110l-13 56h104q55 0 84 22t29 63q0 15 -5 32.5t-21 54.5q-19 41 -24.5 62t-5.5 39q0 38 22.5 63t74.5 43q-52 18 -74.5 43t-22.5 63q0 18 5.5 39t24.5 62q16 37 21 54.5t5 32.5q0 41 -29.5 63t-83.5 22h-104l13 56h110
q86 0 136.5 -39.5t50.5 -107.5q0 -21 -6.5 -44t-27.5 -66q-16 -33 -21 -48.5t-5 -28.5q0 -30 22 -46t76 -24l74 -11v-40l-74 -11q-54 -8 -76 -24t-22 -46q0 -13 5 -28.5t21 -48.5q21 -43 27.5 -66t6.5 -44z" />
    <glyph glyph-name="asciitilde" unicode="~" horiz-adv-x="600" 
d="M193 448q17 0 42.5 -11.5t82.5 -47.5q45 -29 63 -37.5t28 -8.5q18 0 34.5 20.5t48.5 81.5l53 -27q-41 -93 -71.5 -129.5t-66.5 -36.5q-17 0 -42.5 11.5t-82.5 48.5q-45 29 -63 37.5t-28 8.5q-18 0 -34.5 -21t-48.5 -82l-53 27q41 93 71 129.5t67 36.5z" />
    <glyph glyph-name="uni00A0" unicode="&#xa0;" horiz-adv-x="216" 
 />
    <glyph glyph-name="exclamdown" unicode="&#xa1;" horiz-adv-x="259" 
d="M130 709q28 0 47.5 -20t19.5 -48t-19.5 -48t-47.5 -20t-48 20t-20 48t20 48t48 20zM81 0v111l29 365h39l30 -365v-111h-98z" />
    <glyph glyph-name="cent" unicode="&#xa2;" horiz-adv-x="545" 
d="M134 350q0 -62 32.5 -107t87.5 -60l33 339q-68 -7 -110.5 -55.5t-42.5 -116.5zM491 249l-16 -99q-40 -26 -83 -39.5t-86 -13.5l-10 -102h-62l10 107q-90 18 -143 84.5t-53 162.5q0 102 69.5 173.5t175.5 78.5l11 104h61l-10 -106q35 -5 66 -18t60 -35v-105h-2
q-37 35 -69 53.5t-65 25.5l-33 -344q44 2 90.5 21.5t86.5 52.5z" />
    <glyph glyph-name="sterling" unicode="&#xa3;" horiz-adv-x="579" 
d="M224 83h304l-19 -83h-449l-4 18q108 104 136 142t28 71q0 18 -4.5 34t-16.5 38h-151v67h111q-29 46 -40.5 80.5t-11.5 70.5q0 85 60.5 138t160.5 53q45 0 89.5 -12.5t89.5 -38.5l14 -105h-3q-51 36 -99 54.5t-93 18.5q-58 0 -93 -29.5t-35 -77.5q0 -29 12 -59.5t50 -92.5
h205v-67h-169q7 -18 10 -35t3 -33q0 -34 -17.5 -66t-67.5 -86z" />
    <glyph glyph-name="yen" unicode="&#xa5;" horiz-adv-x="625" 
d="M552 218v-57h-195v-161h-89v161h-196v57h196v83h-196v57h167l-215 342h106l184 -303l185 303h102l-216 -342h167v-57h-195v-83h195z" />
    <glyph glyph-name="section" unicode="&#xa7;" horiz-adv-x="629" 
d="M130 278q0 -42 39 -69t154 -63q24 -8 38.5 -13t20.5 -8q60 24 88.5 52.5t28.5 63.5q0 41 -39 68.5t-154 62.5q-16 5 -31 10.5t-29 10.5q-59 -24 -87.5 -52t-28.5 -63zM512 -35q0 -71 -56 -114.5t-147 -43.5q-57 0 -107.5 13t-99.5 42l-19 107l2 2q62 -41 118.5 -61.5
t108.5 -20.5q49 0 79 21.5t30 56.5t-27.5 56.5t-100.5 45.5q-144 44 -199 88t-55 113q0 53 37 93.5t107 63.5q-34 24 -50 55t-16 71q0 71 56.5 115t147.5 44q54 0 104 -11.5t90 -32.5v-97h-2q-57 31 -104 45t-91 14q-50 0 -80 -22t-30 -57t27 -56t102 -45
q144 -45 198.5 -88.5t54.5 -112.5q0 -53 -37.5 -94t-107.5 -64q34 -24 50.5 -54.5t16.5 -71.5z" />
    <glyph glyph-name="dieresis" unicode="&#xa8;" horiz-adv-x="500" 
d="M353 602q-26 0 -44 18t-18 44t18 44t44 18t44 -18t18 -44t-18 -44t-44 -18zM147 602q-26 0 -44 18t-18 44t18 44t44 18t44 -18t18 -44t-18 -44t-44 -18z" />
    <glyph glyph-name="copyright" unicode="&#xa9;" horiz-adv-x="890" 
d="M160 68q-57 55 -87.5 128t-30.5 153t31 153t88 129q57 55 131 85t154 30q81 0 154 -29.5t130 -84.5t87.5 -128t30.5 -153t-31 -153t-88 -129q-57 -55 -131 -85t-154 -30q-81 0 -154 29.5t-130 84.5zM444 715q-155 0 -262.5 -106t-107.5 -258q0 -153 108.5 -259.5
t263.5 -106.5t262.5 106t107.5 258q0 153 -108.5 259.5t-263.5 106.5zM457 177q45 0 88 16.5t84 49.5l2 -1l-12 -71q-38 -28 -77.5 -41t-87.5 -13q-103 0 -172.5 65.5t-69.5 167.5q0 100 72 167t178 67q46 0 87 -14.5t76 -44.5v-74h-2q-40 36 -80.5 54.5t-81.5 18.5
q-76 0 -129 -50t-53 -123q0 -75 52 -124.5t126 -49.5z" />
    <glyph glyph-name="ordfeminine" unicode="&#xaa;" horiz-adv-x="496" 
d="M144 442q0 -20 14 -31.5t39 -11.5q26 0 60 12.5t76 38.5v66q-95 -6 -142 -23.5t-47 -50.5zM403 349l-68 -2v63q-39 -34 -77 -51t-75 -17q-48 0 -78.5 26.5t-30.5 68.5q0 60 64 90t195 32q-1 43 -21.5 64.5t-61.5 21.5q-32 0 -65.5 -12.5t-68.5 -38.5l-3 1l15 73
q31 20 63.5 29t69.5 9q69 0 105.5 -37t36.5 -107v-213zM70 195v56h349v-56h-349z" />
    <glyph glyph-name="guillemotleft" unicode="&#xab;" horiz-adv-x="625" 
d="M531 507l33 -18l-157 -238l157 -240l-33 -18l-231 249v16zM278 507l34 -18l-157 -238l157 -240l-34 -18l-231 249v16z" />
    <glyph glyph-name="registered" unicode="&#xae;" horiz-adv-x="547" 
d="M495 503q0 -91 -65 -154.5t-157 -63.5q-93 0 -157.5 63t-64.5 154t65 154.5t158 63.5t157 -63t64 -154zM470 502q0 83 -56.5 138.5t-140.5 55.5q-83 0 -139.5 -56t-56.5 -138q0 -83 56.5 -138.5t140.5 -55.5q82 0 139 56.5t57 137.5zM267 598h-34v-88h33q25 0 39.5 12
t14.5 32t-14 32t-39 12zM396 383h-52l-87 92h-24v-92h-42v250h81q41 0 65.5 -21t24.5 -56q0 -26 -16 -45.5t-43 -27.5z" />
    <glyph glyph-name="macron" unicode="&#xaf;" horiz-adv-x="500" 
d="M82 628v68h336v-68h-336z" />
    <glyph glyph-name="degree" unicode="&#xb0;" horiz-adv-x="526" 
d="M52 499q0 90 61 152.5t151 62.5q89 0 149.5 -62t60.5 -151q0 -91 -61 -153t-151 -62q-89 0 -149.5 62t-60.5 151zM129 501q0 -62 39 -105t96 -43q56 0 95 43t39 103q0 61 -39.5 104.5t-96.5 43.5q-55 0 -94 -43t-39 -103z" />
    <glyph glyph-name="plusminus" unicode="&#xb1;" horiz-adv-x="600" 
d="M548 490v-80h-206v-211h-84v211h-206v80h206v210h84v-210h206zM548 77v-77h-496v77h496z" />
    <glyph glyph-name="acute" unicode="&#xb4;" horiz-adv-x="500" 
d="M270 603h-43l84 169h122v-2z" />
    <glyph glyph-name="uni00B5" unicode="&#xb5;" horiz-adv-x="614" 
d="M159 56l11 -207v-40h-85v691h90v-306q0 -58 29.5 -90.5t81.5 -32.5q39 0 73.5 20.5t79.5 70.5v338h90v-500h-71l-14 102q-41 -56 -80 -81t-83 -25q-38 0 -69 15.5t-53 44.5z" />
    <glyph glyph-name="paragraph" unicode="&#xb6;" horiz-adv-x="670" 
d="M420 618v-618h-60v236h-39q-124 0 -200.5 61.5t-76.5 167.5q0 105 81 170t206 65h245v-700h-60v618h-96zM137 453q0 -73 51.5 -117t135.5 -44h36v326h-33q-87 0 -138.5 -43.5t-51.5 -121.5z" />
    <glyph glyph-name="periodcentered" unicode="&#xb7;" horiz-adv-x="220" 
d="M110 207q-28 0 -48 19.5t-20 47.5t20 48t48 20t47.5 -20t19.5 -48t-19.5 -47.5t-47.5 -19.5z" />
    <glyph glyph-name="cedilla" unicode="&#xb8;" horiz-adv-x="500" 
d="M343 -116q0 -36 -32 -57.5t-85 -21.5q-16 0 -31.5 2t-30.5 6l-26 47l3 3q23 -8 40 -11t35 -3q27 0 42.5 8t15.5 23q0 14 -12.5 21t-37.5 7q-8 0 -16.5 -0.5t-29.5 -3.5l-4 4l57 97h56l-35 -55q45 -2 68 -18.5t23 -47.5z" />
    <glyph glyph-name="ordmasculine" unicode="&#xba;" horiz-adv-x="499" 
d="M57 525q0 77 55.5 131.5t138.5 54.5q84 0 137.5 -53.5t53.5 -131.5t-55 -132.5t-138 -54.5q-84 0 -138 54t-54 132zM369 526q0 51 -34 86t-85 35q-52 0 -86 -35t-34 -87t34 -87t85 -35q52 0 86 35.5t34 87.5zM73 195v56h353v-56h-353z" />
    <glyph glyph-name="guillemotright" unicode="&#xbb;" horiz-adv-x="625" 
d="M94 -7l-34 18l157 238l-157 240l34 18l231 -249v-16zM347 -7l-34 18l157 238l-157 240l34 18l231 -249v-16z" />
    <glyph glyph-name="onequarter" unicode="&#xbc;" horiz-adv-x="806" 
d="M219 705v-418h-71v311l-117 -70v75l178 105zM189 -2h-74l252 366l222 338h74l-252 -366zM514 146h130v204zM780 146v-55h-69v-91h-67v91h-215l-3 17l200 308h85v-270h69z" />
    <glyph glyph-name="onehalf" unicode="&#xbd;" horiz-adv-x="842" 
d="M219 705v-418h-71v311l-117 -70v75l178 105zM189 -2h-74l252 366l222 338h74l-252 -366zM789 0h-265l-8 24l147 170q33 38 44.5 59.5t11.5 42.5q0 26 -17 42.5t-45 16.5q-30 0 -59.5 -18.5t-63.5 -61.5h-2l-9 75q29 35 64 52t75 17q58 0 93.5 -31.5t35.5 -83.5
q0 -34 -14.5 -63.5t-55.5 -74.5l-92 -104h189z" />
    <glyph glyph-name="threequarters" unicode="&#xbe;" horiz-adv-x="847" 
d="M312 398q0 -51 -42.5 -84t-104.5 -33q-34 0 -62.5 7.5t-60.5 25.5l-10 74l2 1q36 -24 67 -35.5t60 -11.5q34 0 56 16t22 42q0 31 -31.5 49t-107.5 31v30q74 24 102 42.5t28 45.5q0 22 -17 34.5t-47 12.5q-26 0 -54.5 -12t-64.5 -38h-2v72q34 21 64 30t64 9q59 0 94.5 -28
t35.5 -74q0 -31 -21.5 -57t-63.5 -45q45 -13 69.5 -40t24.5 -64zM230 -2h-74l252 366l222 338h74l-252 -366zM555 146h130v204zM821 146v-55h-69v-91h-67v91h-215l-3 17l200 308h85v-270h69z" />
    <glyph glyph-name="questiondown" unicode="&#xbf;" horiz-adv-x="483" 
d="M267 702q25 0 43 -18t18 -43t-18 -43t-43 -18t-43 18t-18 43t18 43t43 18zM438 180v-103q-47 -44 -97.5 -65.5t-107.5 -21.5q-83 0 -133.5 45t-50.5 121q0 53 26 89.5t98 75.5q53 30 69.5 45.5t16.5 33.5q0 15 -6 31.5t-21 43.5h55q33 -40 42.5 -60t9.5 -43
q0 -30 -20.5 -52.5t-84.5 -56.5q-57 -31 -76.5 -53.5t-19.5 -54.5q0 -36 27.5 -58.5t71.5 -22.5q49 0 95 24.5t104 82.5z" />
    <glyph glyph-name="Agrave" unicode="&#xc0;" horiz-adv-x="789" 
d="M248 265h291l-143 329zM758 0h-104l-78 180h-366l-81 -180h-100l326 704h89zM343 913l82 -141h-49l-166 139v2h133z" />
    <glyph glyph-name="Aacute" unicode="&#xc1;" horiz-adv-x="789" 
d="M248 265h291l-143 329zM758 0h-104l-78 180h-366l-81 -180h-100l326 704h89zM418 772h-49l82 141h133v-2z" />
    <glyph glyph-name="Acircumflex" unicode="&#xc2;" horiz-adv-x="789" 
d="M248 265h291l-143 329zM758 0h-104l-78 180h-366l-81 -180h-100l326 704h89zM567 772h-51l-118 75l-118 -75h-53v1l126 140h88l126 -140v-1z" />
    <glyph glyph-name="Atilde" unicode="&#xc3;" horiz-adv-x="789" 
d="M248 265h291l-143 329zM758 0h-104l-78 180h-366l-81 -180h-100l326 704h89zM411 870q30 -17 43 -22t21 -5q14 0 25.5 10t47.5 55l39 -28q-43 -67 -66.5 -88t-51.5 -21q-13 0 -30.5 6.5t-55.5 28.5q-30 17 -43 22t-21 5q-14 0 -25.5 -10t-47.5 -55l-39 28q43 67 66.5 88
t51.5 21q13 0 30.5 -6.5t55.5 -28.5z" />
    <glyph glyph-name="Adieresis" unicode="&#xc4;" horiz-adv-x="789" 
d="M248 265h291l-143 329zM758 0h-104l-78 180h-366l-81 -180h-100l326 704h89zM501 896q27 0 45 -18t18 -45t-18 -45t-45 -18q-26 0 -44.5 18.5t-18.5 44.5t18.5 44.5t44.5 18.5zM293 896q26 0 44.5 -18.5t18.5 -44.5t-18.5 -44.5t-44.5 -18.5q-27 0 -45 18t-18 45t18 45
t45 18z" />
    <glyph glyph-name="Aring" unicode="&#xc5;" horiz-adv-x="789" 
d="M479 754q0 33 -23.5 57t-56.5 24t-56.5 -24t-23.5 -57q0 -34 23.5 -58t56.5 -24t56.5 24t23.5 58zM248 265h291l-143 328zM758 0h-104l-78 180h-366l-81 -180h-100l301 651q-26 18 -40.5 45.5t-14.5 57.5q0 51 36.5 87t87.5 36q52 0 88 -36t36 -87q0 -30 -14.5 -57.5
t-40.5 -45.5z" />
    <glyph glyph-name="AE" unicode="&#xc6;" horiz-adv-x="994" 
d="M283 265h228v346zM908 0h-397v180h-284l-118 -180h-101l462 700h435l29 -87h-327v-214h273v-86h-273v-226h330z" />
    <glyph glyph-name="Ccedilla" unicode="&#xc7;" horiz-adv-x="721" 
d="M496 -121q0 -36 -32 -57.5t-85 -21.5q-16 0 -31.5 2t-30.5 6l-26 47l3 3q23 -8 40 -11t35 -3q27 0 42.5 8t15.5 23q0 14 -12.5 21t-37.5 7q-8 0 -16.5 -0.5t-29.5 -3.5l-4 4l50 86q-140 9 -231 109.5t-91 251.5q0 74 27.5 140t78.5 117q51 50 117.5 77.5t139.5 27.5
q68 0 126.5 -22t107.5 -65v-117h-2q-58 58 -116.5 86t-120.5 28q-106 0 -182.5 -79t-76.5 -190q0 -118 75 -196.5t181 -78.5q67 0 130.5 28.5t122.5 85.5l2 -2l-14 -112q-52 -41 -105.5 -62.5t-112.5 -26.5l-28 -44q45 -2 68 -18.5t23 -47.5z" />
    <glyph glyph-name="Egrave" unicode="&#xc8;" horiz-adv-x="584" 
d="M497 0h-397v700h394l29 -87h-326v-214h273v-86h-273v-226h329zM254 913l82 -141h-49l-166 139v2h133z" />
    <glyph glyph-name="Eacute" unicode="&#xc9;" horiz-adv-x="584" 
d="M497 0h-397v700h394l29 -87h-326v-214h273v-86h-273v-226h329zM329 772h-49l82 141h133v-2z" />
    <glyph glyph-name="Ecircumflex" unicode="&#xca;" horiz-adv-x="584" 
d="M497 0h-397v700h394l29 -87h-326v-214h273v-86h-273v-226h329zM478 772h-51l-118 75l-118 -75h-53v1l126 140h88l126 -140v-1z" />
    <glyph glyph-name="Edieresis" unicode="&#xcb;" horiz-adv-x="584" 
d="M497 0h-397v700h394l29 -87h-326v-214h273v-86h-273v-226h329zM412 896q27 0 45 -18t18 -45t-18 -45t-45 -18q-26 0 -44.5 18.5t-18.5 44.5t18.5 44.5t44.5 18.5zM204 896q26 0 44.5 -18.5t18.5 -44.5t-18.5 -44.5t-44.5 -18.5q-27 0 -45 18t-18 45t18 45t45 18z" />
    <glyph glyph-name="Igrave" unicode="&#xcc;" horiz-adv-x="307" 
d="M202 0h-97v700h97v-700zM100 913l82 -141h-49l-166 139v2h133z" />
    <glyph glyph-name="Iacute" unicode="&#xcd;" horiz-adv-x="307" 
d="M202 0h-97v700h97v-700zM175 772h-49l82 141h133v-2z" />
    <glyph glyph-name="Icircumflex" unicode="&#xce;" horiz-adv-x="307" 
d="M202 0h-97v700h97v-700zM324 772h-51l-118 75l-118 -75h-53v1l126 140h88l126 -140v-1z" />
    <glyph glyph-name="Idieresis" unicode="&#xcf;" horiz-adv-x="307" 
d="M202 0h-97v700h97v-700zM258 896q27 0 45 -18t18 -45t-18 -45t-45 -18q-26 0 -44.5 18.5t-18.5 44.5t18.5 44.5t44.5 18.5zM50 896q26 0 44.5 -18.5t18.5 -44.5t-18.5 -44.5t-44.5 -18.5q-27 0 -45 18t-18 45t18 45t45 18z" />
    <glyph glyph-name="Eth" unicode="&#xd0;" horiz-adv-x="803" 
d="M406 392v-69h-191v-235h138q130 0 212.5 72.5t82.5 189.5q0 121 -81 191.5t-218 70.5h-134v-220h191zM351 0h-231v323h-96v69h96v308h231q182 0 289 -94t107 -254q0 -157 -110.5 -254.5t-285.5 -97.5z" />
    <glyph glyph-name="Ntilde" unicode="&#xd1;" horiz-adv-x="823" 
d="M722 -5h-33l-497 566v-561h-92v700h89l442 -503v503h91v-705zM425 870q30 -17 43 -22t21 -5q14 0 25.5 10t47.5 55l39 -28q-43 -67 -66.5 -88t-51.5 -21q-13 0 -30.5 6.5t-55.5 28.5q-30 17 -43 22t-21 5q-14 0 -25.5 -10t-47.5 -55l-39 28q43 67 66.5 88t51.5 21
q13 0 30.5 -6.5t55.5 -28.5z" />
    <glyph glyph-name="Ograve" unicode="&#xd2;" horiz-adv-x="841" 
d="M420 -14q-155 0 -260 105t-105 258q0 154 106 259.5t261 105.5q154 0 259 -105t105 -258q0 -154 -106 -259.5t-260 -105.5zM418 624q-110 0 -187 -79.5t-77 -193.5q0 -116 77 -195.5t189 -79.5q110 0 188.5 79.5t78.5 193.5q0 115 -78.5 195t-190.5 80zM367 918l82 -141
h-49l-166 139v2h133z" />
    <glyph glyph-name="Oacute" unicode="&#xd3;" horiz-adv-x="841" 
d="M420 -14q-155 0 -260 105t-105 258q0 154 106 259.5t261 105.5q154 0 259 -105t105 -258q0 -154 -106 -259.5t-260 -105.5zM418 624q-110 0 -187 -79.5t-77 -193.5q0 -116 77 -195.5t189 -79.5q110 0 188.5 79.5t78.5 193.5q0 115 -78.5 195t-190.5 80zM442 777h-49
l82 141h133v-2z" />
    <glyph glyph-name="Ocircumflex" unicode="&#xd4;" horiz-adv-x="841" 
d="M420 -14q-155 0 -260 105t-105 258q0 154 106 259.5t261 105.5q154 0 259 -105t105 -258q0 -154 -106 -259.5t-260 -105.5zM418 624q-110 0 -187 -79.5t-77 -193.5q0 -116 77 -195.5t189 -79.5q110 0 188.5 79.5t78.5 193.5q0 115 -78.5 195t-190.5 80zM591 777h-51
l-118 75l-118 -75h-53v1l126 140h88l126 -140v-1z" />
    <glyph glyph-name="Otilde" unicode="&#xd5;" horiz-adv-x="841" 
d="M420 -14q-155 0 -260 105t-105 258q0 154 106 259.5t261 105.5q154 0 259 -105t105 -258q0 -154 -106 -259.5t-260 -105.5zM418 624q-110 0 -187 -79.5t-77 -193.5q0 -116 77 -195.5t189 -79.5q110 0 188.5 79.5t78.5 193.5q0 115 -78.5 195t-190.5 80zM435 875
q30 -17 43 -22t21 -5q14 0 25.5 10t47.5 55l39 -28q-43 -67 -66.5 -88t-51.5 -21q-13 0 -30.5 6.5t-55.5 28.5q-30 17 -43 22t-21 5q-14 0 -25.5 -10t-47.5 -55l-39 28q43 67 66.5 88t51.5 21q13 0 30.5 -6.5t55.5 -28.5z" />
    <glyph glyph-name="Odieresis" unicode="&#xd6;" horiz-adv-x="841" 
d="M420 -14q-155 0 -260 105t-105 258q0 154 106 259.5t261 105.5q154 0 259 -105t105 -258q0 -154 -106 -259.5t-260 -105.5zM418 624q-110 0 -187 -79.5t-77 -193.5q0 -116 77 -195.5t189 -79.5q110 0 188.5 79.5t78.5 193.5q0 115 -78.5 195t-190.5 80zM525 901
q27 0 45 -18t18 -45t-18 -45t-45 -18q-26 0 -44.5 18.5t-18.5 44.5t18.5 44.5t44.5 18.5zM317 901q26 0 44.5 -18.5t18.5 -44.5t-18.5 -44.5t-44.5 -18.5q-27 0 -45 18t-18 45t18 45t45 18z" />
    <glyph glyph-name="multiply" unicode="&#xd7;" horiz-adv-x="600" 
d="M530 180l-59 -58l-171 173l-171 -173l-59 58l174 171l-174 171l59 59l171 -174l171 174l59 -59l-174 -171z" />
    <glyph glyph-name="Oslash" unicode="&#xd8;" horiz-adv-x="841" 
d="M423 628q-115 0 -194 -81t-79 -201q0 -52 16.5 -99t48.5 -84l356 422q-32 21 -69.5 32t-78.5 11zM418 72q115 0 194 81t79 201q0 53 -16.5 100t-48.5 83l-357 -422q33 -21 71 -32t78 -11zM786 351q0 -154 -106 -259.5t-260 -105.5q-57 0 -109.5 16t-98.5 47l-78 -92h-97
l119 140q-49 50 -75 115.5t-26 136.5q0 154 106 259.5t261 105.5q56 0 108.5 -16t98.5 -47l79 92h96l-120 -139q49 -51 75.5 -116t26.5 -137z" />
    <glyph glyph-name="Ugrave" unicode="&#xd9;" horiz-adv-x="789" 
d="M394 -12q-141 0 -222 85t-81 233v394h97v-396q0 -107 55 -167t153 -60t153 60t55 170v393h93v-394q0 -149 -80.5 -233.5t-222.5 -84.5zM341 913l82 -141h-49l-166 139v2h133z" />
    <glyph glyph-name="Uacute" unicode="&#xda;" horiz-adv-x="789" 
d="M394 -12q-141 0 -222 85t-81 233v394h97v-396q0 -107 55 -167t153 -60t153 60t55 170v393h93v-394q0 -149 -80.5 -233.5t-222.5 -84.5zM416 772h-49l82 141h133v-2z" />
    <glyph glyph-name="Ucircumflex" unicode="&#xdb;" horiz-adv-x="789" 
d="M394 -12q-141 0 -222 85t-81 233v394h97v-396q0 -107 55 -167t153 -60t153 60t55 170v393h93v-394q0 -149 -80.5 -233.5t-222.5 -84.5zM565 772h-51l-118 75l-118 -75h-53v1l126 140h88l126 -140v-1z" />
    <glyph glyph-name="Udieresis" unicode="&#xdc;" horiz-adv-x="789" 
d="M394 -12q-141 0 -222 85t-81 233v394h97v-396q0 -107 55 -167t153 -60t153 60t55 170v393h93v-394q0 -149 -80.5 -233.5t-222.5 -84.5zM499 896q27 0 45 -18t18 -45t-18 -45t-45 -18q-26 0 -44.5 18.5t-18.5 44.5t18.5 44.5t44.5 18.5zM291 896q26 0 44.5 -18.5
t18.5 -44.5t-18.5 -44.5t-44.5 -18.5q-27 0 -45 18t-18 45t18 45t45 18z" />
    <glyph glyph-name="Yacute" unicode="&#xdd;" horiz-adv-x="668" 
d="M382 313v-313h-96v313l-273 387h115l208 -302l208 302h111zM355 772h-49l82 141h133v-2z" />
    <glyph glyph-name="Thorn" unicode="&#xde;" horiz-adv-x="608" 
d="M463 358q0 58 -41 93t-109 35h-117v-261h109q72 0 115 35.5t43 97.5zM561 360q0 -100 -71.5 -160.5t-185.5 -60.5h-107v-139h-97v700h97v-128h121q112 0 177.5 -57t65.5 -155z" />
    <glyph glyph-name="germandbls" unicode="&#xdf;" horiz-adv-x="666" 
d="M619 174q0 -81 -54.5 -132t-141.5 -51q-35 0 -60.5 5t-56.5 18l-16 97l3 2q39 -23 69 -32.5t61 -9.5q46 0 75.5 29t29.5 73q0 60 -53 101.5t-163 67.5l-10 30q86 59 115 99t29 91q0 49 -31 80.5t-79 31.5q-54 0 -85.5 -36.5t-31.5 -96.5v-541h-90v423h-89v77h89v38
q0 101 56.5 160t153.5 59q88 0 143.5 -52.5t55.5 -132.5q0 -54 -23 -97.5t-78 -88.5q98 -35 140 -85t42 -127z" />
    <glyph glyph-name="agrave" unicode="&#xe0;" horiz-adv-x="567" 
d="M492 12l-90 -20v89q-56 -45 -105.5 -67t-96.5 -22q-66 0 -107 36.5t-41 97.5q0 86 86 127.5t264 43.5v2q0 62 -29.5 94.5t-85.5 32.5q-42 0 -86.5 -18t-91.5 -54l-3 1l20 101q40 27 83.5 40t91.5 13q92 0 141.5 -53t49.5 -152v-292zM143 130q0 -28 20 -44.5t55 -16.5
t80 17t104 53v100q-130 -8 -194.5 -34.5t-64.5 -74.5zM234 772l84 -169h-43l-163 167v2h122z" />
    <glyph glyph-name="aacute" unicode="&#xe1;" horiz-adv-x="567" 
d="M492 12l-90 -20v89q-56 -45 -105.5 -67t-96.5 -22q-66 0 -107 36.5t-41 97.5q0 86 86 127.5t264 43.5v2q0 62 -29.5 94.5t-85.5 32.5q-42 0 -86.5 -18t-91.5 -54l-3 1l20 101q40 27 83.5 40t91.5 13q92 0 141.5 -53t49.5 -152v-292zM143 130q0 -28 20 -44.5t55 -16.5
t80 17t104 53v100q-130 -8 -194.5 -34.5t-64.5 -74.5zM315 603h-43l84 169h122v-2z" />
    <glyph glyph-name="acircumflex" unicode="&#xe2;" horiz-adv-x="567" 
d="M492 12l-90 -20v89q-56 -45 -105.5 -67t-96.5 -22q-66 0 -107 36.5t-41 97.5q0 86 86 127.5t264 43.5v2q0 62 -29.5 94.5t-85.5 32.5q-42 0 -86.5 -18t-91.5 -54l-3 1l20 101q40 27 83.5 40t91.5 13q92 0 141.5 -53t49.5 -152v-292zM143 130q0 -28 20 -44.5t55 -16.5
t80 17t104 53v100q-130 -8 -194.5 -34.5t-64.5 -74.5zM464 603h-42l-126 96l-126 -96h-44v2l128 167h82l128 -167v-2z" />
    <glyph glyph-name="atilde" unicode="&#xe3;" horiz-adv-x="567" 
d="M492 12l-90 -20v89q-56 -45 -105.5 -67t-96.5 -22q-66 0 -107 36.5t-41 97.5q0 86 86 127.5t264 43.5v2q0 62 -29.5 94.5t-85.5 32.5q-42 0 -86.5 -18t-91.5 -54l-3 1l20 101q40 27 83.5 40t91.5 13q92 0 141.5 -53t49.5 -152v-292zM143 130q0 -28 20 -44.5t55 -16.5
t80 17t104 53v100q-130 -8 -194.5 -34.5t-64.5 -74.5zM311 711q30 -19 42.5 -25t19.5 -6q12 0 23 11t48 64l45 -28q-46 -79 -69.5 -102t-52.5 -23q-13 0 -31 8t-57 33q-30 19 -42.5 25t-19.5 6q-11 0 -21.5 -10t-49.5 -65l-45 27q46 79 69.5 102.5t52.5 23.5q13 0 31 -8
t57 -33z" />
    <glyph glyph-name="adieresis" unicode="&#xe4;" horiz-adv-x="567" 
d="M492 12l-90 -20v89q-56 -45 -105.5 -67t-96.5 -22q-66 0 -107 36.5t-41 97.5q0 86 86 127.5t264 43.5v2q0 62 -29.5 94.5t-85.5 32.5q-42 0 -86.5 -18t-91.5 -54l-3 1l20 101q40 27 83.5 40t91.5 13q92 0 141.5 -53t49.5 -152v-292zM143 130q0 -28 20 -44.5t55 -16.5
t80 17t104 53v100q-130 -8 -194.5 -34.5t-64.5 -74.5zM398 602q-26 0 -44 18t-18 44t18 44t44 18t44 -18t18 -44t-18 -44t-44 -18zM192 602q-26 0 -44 18t-18 44t18 44t44 18t44 -18t18 -44t-18 -44t-44 -18z" />
    <glyph glyph-name="aring" unicode="&#xe5;" horiz-adv-x="567" 
d="M492 12l-90 -20v89q-56 -45 -105.5 -67t-96.5 -22q-66 0 -107 36.5t-41 97.5q0 86 86 127.5t264 43.5v2q0 62 -29.5 94.5t-85.5 32.5q-42 0 -86.5 -18t-91.5 -54l-3 1l20 101q40 27 83.5 40t91.5 13q92 0 141.5 -53t49.5 -152v-292zM143 130q0 -28 20 -44.5t55 -16.5
t80 17t104 53v100q-130 -8 -194.5 -34.5t-64.5 -74.5zM295 600q-52 0 -88 36.5t-36 87.5t36 87.5t88 36.5t88 -36.5t36 -87.5t-36 -87.5t-88 -36.5zM295 806q-33 0 -56.5 -24t-23.5 -58t23.5 -58t56.5 -24t56.5 24t23.5 58t-23.5 58t-56.5 24z" />
    <glyph glyph-name="ae" unicode="&#xe6;" horiz-adv-x="913" 
d="M638 435q-60 0 -101.5 -43t-47.5 -110h289q-6 72 -43 112.5t-97 40.5zM143 130q0 -28 20.5 -44.5t54.5 -16.5q39 0 87 20t111 62q-7 20 -10.5 42t-4.5 46q-130 -8 -194 -34.5t-64 -74.5zM852 130l-31 -97q-44 -24 -82 -34t-83 -10q-69 0 -124 27t-88 77
q-66 -52 -123 -76.5t-112 -24.5q-71 0 -114 36t-43 98q0 86 86 127.5t263 43.5v4q0 61 -29 93t-85 32q-42 0 -86.5 -18t-91.5 -54l-3 1l20 101q40 27 83.5 40t91.5 13q57 0 97.5 -20.5t64.5 -60.5q33 41 79.5 63.5t99.5 22.5q104 0 165.5 -72.5t61.5 -186.5q0 -10 -1 -22
t-2 -18h-375q10 -68 56.5 -106t118.5 -38q43 0 91 16t93 45z" />
    <glyph glyph-name="ccedilla" unicode="&#xe7;" horiz-adv-x="539" 
d="M384 -120q0 -36 -32 -57.5t-85 -21.5q-16 0 -31.5 2t-30.5 6l-26 47l3 3q23 -8 40 -11t35 -3q27 0 42.5 8t15.5 23q0 14 -12.5 21t-37.5 7q-8 0 -16.5 -0.5t-29.5 -3.5l-4 4l50 86q-100 11 -160.5 82t-60.5 177q0 112 75.5 187.5t190.5 75.5q50 0 91 -14.5t77 -45.5v-110
h-3q-43 45 -84 66t-83 21q-73 0 -122 -52t-49 -127q0 -78 46.5 -128.5t119.5 -50.5q44 0 92.5 21t90.5 57l3 -2l-16 -102q-37 -25 -75 -39t-78 -17l-27 -43q45 -2 68 -18.5t23 -47.5z" />
    <glyph glyph-name="egrave" unicode="&#xe8;" horiz-adv-x="559" 
d="M284 435q-61 0 -102.5 -43t-47.5 -110h290q-6 72 -43 112.5t-97 40.5zM499 130l-32 -97q-44 -24 -82 -34t-83 -10q-119 0 -189 71t-70 190q0 110 70 187t174 77t166 -72.5t62 -186.5q0 -10 -1 -22t-2 -18h-376q10 -68 56.5 -106t119.5 -38q43 0 91 16t93 45zM228 776
l84 -169h-43l-163 167v2h122z" />
    <glyph glyph-name="eacute" unicode="&#xe9;" horiz-adv-x="559" 
d="M284 435q-61 0 -102.5 -43t-47.5 -110h290q-6 72 -43 112.5t-97 40.5zM499 130l-32 -97q-44 -24 -82 -34t-83 -10q-119 0 -189 71t-70 190q0 110 70 187t174 77t166 -72.5t62 -186.5q0 -10 -1 -22t-2 -18h-376q10 -68 56.5 -106t119.5 -38q43 0 91 16t93 45zM309 607h-43
l84 169h122v-2z" />
    <glyph glyph-name="ecircumflex" unicode="&#xea;" horiz-adv-x="559" 
d="M284 435q-61 0 -102.5 -43t-47.5 -110h290q-6 72 -43 112.5t-97 40.5zM499 130l-32 -97q-44 -24 -82 -34t-83 -10q-119 0 -189 71t-70 190q0 110 70 187t174 77t166 -72.5t62 -186.5q0 -10 -1 -22t-2 -18h-376q10 -68 56.5 -106t119.5 -38q43 0 91 16t93 45zM458 607h-42
l-126 96l-126 -96h-44v2l128 167h82l128 -167v-2z" />
    <glyph glyph-name="edieresis" unicode="&#xeb;" horiz-adv-x="559" 
d="M284 435q-61 0 -102.5 -43t-47.5 -110h290q-6 72 -43 112.5t-97 40.5zM499 130l-32 -97q-44 -24 -82 -34t-83 -10q-119 0 -189 71t-70 190q0 110 70 187t174 77t166 -72.5t62 -186.5q0 -10 -1 -22t-2 -18h-376q10 -68 56.5 -106t119.5 -38q43 0 91 16t93 45zM392 606
q-26 0 -44 18t-18 44t18 44t44 18t44 -18t18 -44t-18 -44t-44 -18zM186 606q-26 0 -44 18t-18 44t18 44t44 18t44 -18t18 -44t-18 -44t-44 -18z" />
    <glyph glyph-name="igrave" unicode="&#xec;" horiz-adv-x="270" 
d="M180 0h-90v500h90v-500zM74 772l84 -169h-43l-163 167v2h122z" />
    <glyph glyph-name="iacute" unicode="&#xed;" horiz-adv-x="270" 
d="M180 0h-90v500h90v-500zM155 603h-43l84 169h122v-2z" />
    <glyph glyph-name="icircumflex" unicode="&#xee;" horiz-adv-x="270" 
d="M180 0h-90v500h90v-500zM304 603h-42l-126 96l-126 -96h-44v2l128 167h82l128 -167v-2z" />
    <glyph glyph-name="idieresis" unicode="&#xef;" horiz-adv-x="270" 
d="M180 0h-90v500h90v-500zM238 602q-26 0 -44 18t-18 44t18 44t44 18t44 -18t18 -44t-18 -44t-44 -18zM32 602q-26 0 -44 18t-18 44t18 44t44 18t44 -18t18 -44t-18 -44t-44 -18z" />
    <glyph glyph-name="eth" unicode="&#xf0;" horiz-adv-x="601" 
d="M471 54q-33 -32 -79.5 -50t-98.5 -18q-109 0 -179.5 69.5t-70.5 168.5q0 98 68 168.5t167 70.5q53 0 97 -19t80 -59q-18 53 -57.5 103t-109.5 109l-74 -70l-44 40l72 67q-9 6 -19.5 14t-32.5 25q-14 10 -20.5 15t-12.5 9l49 62q29 -20 52.5 -37t43.5 -33l75 70l43 -40
l-74 -68q104 -92 153.5 -184t49.5 -201q0 -70 -18.5 -120.5t-59.5 -91.5zM458 229q0 69 -44.5 112.5t-115.5 43.5q-72 0 -117 -45t-45 -115q0 -68 44.5 -113t112.5 -45q71 0 118 46.5t47 115.5z" />
    <glyph glyph-name="ntilde" unicode="&#xf1;" horiz-adv-x="604" 
d="M328 429q-39 0 -73.5 -20.5t-79.5 -69.5v-339h-90v488l90 20v-102q43 55 85 79.5t93 24.5q79 0 127.5 -53t48.5 -142v-315h-90v306q0 58 -29.5 90.5t-81.5 32.5zM323 711q30 -19 42.5 -25t19.5 -6q12 0 23 11t48 64l45 -28q-46 -79 -69.5 -102t-52.5 -23q-13 0 -31 8
t-57 33q-30 19 -42.5 25t-19.5 6q-11 0 -21.5 -10t-49.5 -65l-45 27q46 79 69.5 102.5t52.5 23.5q13 0 31 -8t57 -33z" />
    <glyph glyph-name="ograve" unicode="&#xf2;" horiz-adv-x="614" 
d="M306 -14q-115 0 -189 76.5t-74 186.5q0 109 76 187t189 78q116 0 189.5 -75.5t73.5 -186.5q0 -110 -75.5 -188t-189.5 -78zM479 252q0 78 -48.5 129.5t-122.5 51.5q-75 0 -123.5 -52.5t-48.5 -131.5q0 -78 48.5 -130t121.5 -52q75 0 124 53t49 132zM246 776l84 -169h-43
l-163 167v2h122z" />
    <glyph glyph-name="oacute" unicode="&#xf3;" horiz-adv-x="614" 
d="M306 -14q-115 0 -189 76.5t-74 186.5q0 109 76 187t189 78q116 0 189.5 -75.5t73.5 -186.5q0 -110 -75.5 -188t-189.5 -78zM479 252q0 78 -48.5 129.5t-122.5 51.5q-75 0 -123.5 -52.5t-48.5 -131.5q0 -78 48.5 -130t121.5 -52q75 0 124 53t49 132zM327 607h-43l84 169
h122v-2z" />
    <glyph glyph-name="ocircumflex" unicode="&#xf4;" horiz-adv-x="614" 
d="M306 -14q-115 0 -189 76.5t-74 186.5q0 109 76 187t189 78q116 0 189.5 -75.5t73.5 -186.5q0 -110 -75.5 -188t-189.5 -78zM479 252q0 78 -48.5 129.5t-122.5 51.5q-75 0 -123.5 -52.5t-48.5 -131.5q0 -78 48.5 -130t121.5 -52q75 0 124 53t49 132zM476 607h-42l-126 96
l-126 -96h-44v2l128 167h82l128 -167v-2z" />
    <glyph glyph-name="otilde" unicode="&#xf5;" horiz-adv-x="614" 
d="M306 -14q-115 0 -189 76.5t-74 186.5q0 109 76 187t189 78q116 0 189.5 -75.5t73.5 -186.5q0 -110 -75.5 -188t-189.5 -78zM479 252q0 78 -48.5 129.5t-122.5 51.5q-75 0 -123.5 -52.5t-48.5 -131.5q0 -78 48.5 -130t121.5 -52q75 0 124 53t49 132zM323 715
q30 -19 42.5 -25t19.5 -6q12 0 23 11t48 64l45 -28q-46 -79 -69.5 -102t-52.5 -23q-13 0 -31 8t-57 33q-30 19 -42.5 25t-19.5 6q-11 0 -21.5 -10t-49.5 -65l-45 27q46 79 69.5 102.5t52.5 23.5q13 0 31 -8t57 -33z" />
    <glyph glyph-name="odieresis" unicode="&#xf6;" horiz-adv-x="614" 
d="M306 -14q-115 0 -189 76.5t-74 186.5q0 109 76 187t189 78q116 0 189.5 -75.5t73.5 -186.5q0 -110 -75.5 -188t-189.5 -78zM479 252q0 78 -48.5 129.5t-122.5 51.5q-75 0 -123.5 -52.5t-48.5 -131.5q0 -78 48.5 -130t121.5 -52q75 0 124 53t49 132zM410 606q-26 0 -44 18
t-18 44t18 44t44 18t44 -18t18 -44t-18 -44t-44 -18zM204 606q-26 0 -44 18t-18 44t18 44t44 18t44 -18t18 -44t-18 -44t-44 -18z" />
    <glyph glyph-name="divide" unicode="&#xf7;" horiz-adv-x="600" 
d="M300 486q-28 0 -48 20t-20 48t20 48t48 20t48 -20t20 -48t-20 -48t-48 -20zM550 390v-80h-500v80h500zM300 78q-28 0 -48 20t-20 48q0 27 20 47t48 20t48 -20t20 -47q0 -28 -20 -48t-48 -20z" />
    <glyph glyph-name="oslash" unicode="&#xf8;" horiz-adv-x="614" 
d="M313 437q-80 0 -130.5 -54t-50.5 -138q0 -32 9.5 -62t27.5 -54l226 286q-19 11 -39.5 16.5t-42.5 5.5zM302 63q80 0 130 54.5t50 138.5q0 33 -9.5 62.5t-27.5 52.5l-225 -287q19 -10 40 -15.5t42 -5.5zM571 252q0 -110 -75.5 -188t-189.5 -78q-38 0 -72.5 9.5t-64.5 27.5
l-53 -67h-89l89 109q-35 37 -54 85t-19 99q0 109 76 187t189 78q37 0 71.5 -9t65.5 -27l53 66h89l-88 -109q34 -37 53 -84.5t19 -98.5z" />
    <glyph glyph-name="ugrave" unicode="&#xf9;" horiz-adv-x="604" 
d="M520 0h-91v94q-43 -55 -85 -79.5t-93 -24.5q-79 0 -127.5 53t-48.5 142v315h91v-306q0 -58 29.5 -90.5t81.5 -32.5q38 0 72.5 20.5t79.5 69.5v339h91v-500zM237 772l84 -169h-43l-163 167v2h122z" />
    <glyph glyph-name="uacute" unicode="&#xfa;" horiz-adv-x="604" 
d="M520 0h-91v94q-43 -55 -85 -79.5t-93 -24.5q-79 0 -127.5 53t-48.5 142v315h91v-306q0 -58 29.5 -90.5t81.5 -32.5q38 0 72.5 20.5t79.5 69.5v339h91v-500zM318 603h-43l84 169h122v-2z" />
    <glyph glyph-name="ucircumflex" unicode="&#xfb;" horiz-adv-x="604" 
d="M520 0h-91v94q-43 -55 -85 -79.5t-93 -24.5q-79 0 -127.5 53t-48.5 142v315h91v-306q0 -58 29.5 -90.5t81.5 -32.5q38 0 72.5 20.5t79.5 69.5v339h91v-500zM467 603h-42l-126 96l-126 -96h-44v2l128 167h82l128 -167v-2z" />
    <glyph glyph-name="udieresis" unicode="&#xfc;" horiz-adv-x="604" 
d="M520 0h-91v94q-43 -55 -85 -79.5t-93 -24.5q-79 0 -127.5 53t-48.5 142v315h91v-306q0 -58 29.5 -90.5t81.5 -32.5q38 0 72.5 20.5t79.5 69.5v339h91v-500zM401 602q-26 0 -44 18t-18 44t18 44t44 18t44 -18t18 -44t-18 -44t-44 -18zM195 602q-26 0 -44 18t-18 44t18 44
t44 18t44 -18t18 -44t-18 -44t-44 -18z" />
    <glyph glyph-name="yacute" unicode="&#xfd;" horiz-adv-x="548" 
d="M122 -194q-23 0 -44 4.5t-41 14.5l-18 91l3 2q23 -14 43 -20.5t42 -6.5q36 0 61.5 21t44.5 65l22 51l-212 472h100l158 -369l148 369h98l-231 -554q-29 -70 -72.5 -105t-101.5 -35zM294 603h-43l84 169h122v-2z" />
    <glyph glyph-name="thorn" unicode="&#xfe;" horiz-adv-x="621" 
d="M310 72q75 0 124.5 51t49.5 130q0 78 -45.5 127t-113.5 49q-39 0 -73.5 -14.5t-75.5 -48.5v-252q35 -22 67 -32t67 -10zM576 260q0 -115 -73.5 -191.5t-177.5 -76.5q-39 0 -75.5 12.5t-73.5 39.5v-236l-91 1v917l91 33v-331q43 43 83.5 62.5t89.5 19.5q96 0 161.5 -71.5
t65.5 -178.5z" />
    <glyph glyph-name="ydieresis" unicode="&#xff;" horiz-adv-x="548" 
d="M122 -194q-23 0 -44 4.5t-41 14.5l-18 91l3 2q23 -14 43 -20.5t42 -6.5q36 0 61.5 21t44.5 65l22 51l-212 472h100l158 -369l148 369h98l-231 -554q-29 -70 -72.5 -105t-101.5 -35zM377 602q-26 0 -44 18t-18 44t18 44t44 18t44 -18t18 -44t-18 -44t-44 -18zM171 602
q-26 0 -44 18t-18 44t18 44t44 18t44 -18t18 -44t-18 -44t-44 -18z" />
    <glyph glyph-name="Amacron" unicode="&#x100;" horiz-adv-x="789" 
d="M248 265h291l-143 329zM758 0h-104l-78 180h-366l-81 -180h-100l326 704h89zM219 796v68h356v-68h-356z" />
    <glyph glyph-name="amacron" unicode="&#x101;" horiz-adv-x="567" 
d="M492 12l-90 -20v89q-56 -45 -105.5 -67t-96.5 -22q-66 0 -107 36.5t-41 97.5q0 86 86 127.5t264 43.5v2q0 62 -29.5 94.5t-85.5 32.5q-42 0 -86.5 -18t-91.5 -54l-3 1l20 101q40 27 83.5 40t91.5 13q92 0 141.5 -53t49.5 -152v-292zM143 130q0 -28 20 -44.5t55 -16.5
t80 17t104 53v100q-130 -8 -194.5 -34.5t-64.5 -74.5zM127 628v68h336v-68h-336z" />
    <glyph glyph-name="Abreve" unicode="&#x102;" horiz-adv-x="789" 
d="M248 265h291l-143 329zM758 0h-104l-78 180h-366l-81 -180h-100l326 704h89zM397 772q-56 0 -100.5 29.5t-79.5 90.5l38 28q39 -41 71.5 -57.5t70.5 -16.5t70.5 16.5t71.5 57.5l38 -28q-35 -61 -79.5 -90.5t-100.5 -29.5z" />
    <glyph glyph-name="abreve" unicode="&#x103;" horiz-adv-x="567" 
d="M492 12l-90 -20v89q-56 -45 -105.5 -67t-96.5 -22q-66 0 -107 36.5t-41 97.5q0 86 86 127.5t264 43.5v2q0 62 -29.5 94.5t-85.5 32.5q-42 0 -86.5 -18t-91.5 -54l-3 1l20 101q40 27 83.5 40t91.5 13q92 0 141.5 -53t49.5 -152v-292zM143 130q0 -28 20 -44.5t55 -16.5
t80 17t104 53v100q-130 -8 -194.5 -34.5t-64.5 -74.5zM295 597q-53 0 -95 34t-76 104l45 25q34 -46 63.5 -65.5t62.5 -19.5t62.5 19.5t63.5 65.5l45 -25q-34 -70 -76 -104t-95 -34z" />
    <glyph glyph-name="Aogonek" unicode="&#x104;" horiz-adv-x="789" 
d="M248 265h291l-143 329zM767 -144l-13 -42q-16 -4 -33 -6t-32 -2q-48 0 -76 19.5t-28 55.5q0 17 9.5 36t32.5 47l29 36h-2l-78 180h-366l-81 -180h-100l326 704h89l314 -704h-47l-32 -57q-9 -16 -12.5 -26t-3.5 -21q0 -21 19 -30.5t62 -9.5h23z" />
    <glyph glyph-name="aogonek" unicode="&#x105;" horiz-adv-x="567" 
d="M434 -194q-48 0 -76 19.5t-28 55.5q0 17 9.5 36t32.5 47l30 37v80q-56 -45 -105.5 -67t-96.5 -22q-66 0 -107 36.5t-41 97.5q0 86 86 127.5t264 43.5v2q0 62 -29.5 94.5t-85.5 32.5q-42 0 -86.5 -18t-91.5 -54l-3 1l20 101q40 27 83.5 40t91.5 13q92 0 141.5 -53
t49.5 -152v-292l-33 -7l-35 -62q-9 -16 -12.5 -26t-3.5 -21q0 -21 19 -30.5t62 -9.5h23l-13 -42q-16 -4 -33 -6t-32 -2zM143 130q0 -28 20 -44.5t55 -16.5t80 17t104 53v100q-130 -8 -194.5 -34.5t-64.5 -74.5z" />
    <glyph glyph-name="Cacute" unicode="&#x106;" horiz-adv-x="721" 
d="M404 -12q-149 0 -249 102t-100 260q0 74 27.5 140t78.5 117q51 50 117.5 77.5t139.5 27.5q68 0 126.5 -22t107.5 -65v-117h-2q-58 58 -116.5 86t-120.5 28q-106 0 -182.5 -79t-76.5 -190q0 -118 75 -196.5t181 -78.5q67 0 130.5 28.5t122.5 85.5l2 -2l-14 -112
q-58 -46 -119 -68t-128 -22zM426 777h-49l82 141h133v-2z" />
    <glyph glyph-name="cacute" unicode="&#x107;" horiz-adv-x="539" 
d="M489 147l-16 -102q-41 -28 -85 -42.5t-89 -14.5q-113 0 -184 73t-71 188q0 112 75.5 187.5t190.5 75.5q50 0 91 -14.5t77 -45.5v-110h-3q-43 45 -84 66t-83 21q-73 0 -122 -52t-49 -127q0 -78 46.5 -128.5t119.5 -50.5q44 0 92.5 21t90.5 57zM312 607h-43l84 169h122v-2z
" />
    <glyph glyph-name="Ccircumflex" unicode="&#x108;" horiz-adv-x="721" 
d="M404 -12q-149 0 -249 102t-100 260q0 74 27.5 140t78.5 117q51 50 117.5 77.5t139.5 27.5q68 0 126.5 -22t107.5 -65v-117h-2q-58 58 -116.5 86t-120.5 28q-106 0 -182.5 -79t-76.5 -190q0 -118 75 -196.5t181 -78.5q67 0 130.5 28.5t122.5 85.5l2 -2l-14 -112
q-58 -46 -119 -68t-128 -22zM575 777h-51l-118 75l-118 -75h-53v1l126 140h88l126 -140v-1z" />
    <glyph glyph-name="ccircumflex" unicode="&#x109;" horiz-adv-x="539" 
d="M489 147l-16 -102q-41 -28 -85 -42.5t-89 -14.5q-113 0 -184 73t-71 188q0 112 75.5 187.5t190.5 75.5q50 0 91 -14.5t77 -45.5v-110h-3q-43 45 -84 66t-83 21q-73 0 -122 -52t-49 -127q0 -78 46.5 -128.5t119.5 -50.5q44 0 92.5 21t90.5 57zM461 607h-42l-126 96
l-126 -96h-44v2l128 167h82l128 -167v-2z" />
    <glyph glyph-name="Cdotaccent" unicode="&#x10a;" horiz-adv-x="721" 
d="M404 -12q-149 0 -249 102t-100 260q0 74 27.5 140t78.5 117q51 50 117.5 77.5t139.5 27.5q68 0 126.5 -22t107.5 -65v-117h-2q-58 58 -116.5 86t-120.5 28q-106 0 -182.5 -79t-76.5 -190q0 -118 75 -196.5t181 -78.5q67 0 130.5 28.5t122.5 85.5l2 -2l-14 -112
q-58 -46 -119 -68t-128 -22zM405 901q27 0 45 -18t18 -45t-18 -45t-45 -18t-45 18t-18 45t18 45t45 18z" />
    <glyph glyph-name="cdotaccent" unicode="&#x10b;" horiz-adv-x="539" 
d="M489 147l-16 -102q-41 -28 -85 -42.5t-89 -14.5q-113 0 -184 73t-71 188q0 112 75.5 187.5t190.5 75.5q50 0 91 -14.5t77 -45.5v-110h-3q-43 45 -84 66t-83 21q-73 0 -122 -52t-49 -127q0 -78 46.5 -128.5t119.5 -50.5q44 0 92.5 21t90.5 57zM292 606q-26 0 -44 18
t-18 44t18 44t44 18t44 -18t18 -44t-18 -44t-44 -18z" />
    <glyph glyph-name="Ccaron" unicode="&#x10c;" horiz-adv-x="721" 
d="M404 -12q-149 0 -249 102t-100 260q0 74 27.5 140t78.5 117q51 50 117.5 77.5t139.5 27.5q68 0 126.5 -22t107.5 -65v-117h-2q-58 58 -116.5 86t-120.5 28q-106 0 -182.5 -79t-76.5 -190q0 -118 75 -196.5t181 -78.5q67 0 130.5 28.5t122.5 85.5l2 -2l-14 -112
q-58 -46 -119 -68t-128 -22zM575 913l-126 -139h-88l-126 139v2h51l118 -75l118 75h53v-2z" />
    <glyph glyph-name="ccaron" unicode="&#x10d;" horiz-adv-x="539" 
d="M489 147l-16 -102q-41 -28 -85 -42.5t-89 -14.5q-113 0 -184 73t-71 188q0 112 75.5 187.5t190.5 75.5q50 0 91 -14.5t77 -45.5v-110h-3q-43 45 -84 66t-83 21q-73 0 -122 -52t-49 -127q0 -78 46.5 -128.5t119.5 -50.5q44 0 92.5 21t90.5 57zM461 774l-128 -167h-82
l-128 167v2h42l126 -97l126 97h44v-2z" />
    <glyph glyph-name="Dcaron" unicode="&#x10e;" horiz-adv-x="783" 
d="M628 350q0 121 -81 191.5t-218 70.5h-132v-524h136q130 0 212.5 72.5t82.5 189.5zM331 0h-231v700h231q182 0 289 -94t107 -254q0 -157 -110.5 -254.5t-285.5 -97.5zM552 908l-126 -139h-88l-126 139v2h51l118 -75l118 75h53v-2z" />
    <glyph glyph-name="dcaron" unicode="&#x10f;" horiz-adv-x="620" 
d="M137 247q0 -77 45.5 -126.5t113.5 -49.5q39 0 74 15t75 48v252q-35 22 -67 32t-67 10q-75 0 -124.5 -51t-49.5 -130zM536 0h-91v72q-43 -43 -83.5 -62.5t-89.5 -19.5q-96 0 -162 71.5t-66 178.5q0 115 74 191.5t178 76.5q39 0 75.5 -12.5t73.5 -39.5v270l91 33v-759z
M635 549h-43q13 26 19.5 51t6.5 49q0 26 -6.5 50.5t-19.5 50.5h86q5 -17 7.5 -32.5t2.5 -30.5q0 -35 -13.5 -69.5t-39.5 -68.5z" />
    <glyph glyph-name="Dcroat" unicode="&#x110;" horiz-adv-x="803" 
d="M406 392v-69h-191v-235h138q130 0 212.5 72.5t82.5 189.5q0 121 -81 191.5t-218 70.5h-134v-220h191zM351 0h-231v323h-96v69h96v308h231q182 0 289 -94t107 -254q0 -157 -110.5 -254.5t-285.5 -97.5z" />
    <glyph glyph-name="dcroat" unicode="&#x111;" horiz-adv-x="629" 
d="M137 244q0 -75 45.5 -124t113.5 -49q39 0 74.5 14.5t74.5 47.5v248q-35 22 -67 32t-67 10q-75 0 -124.5 -51t-49.5 -128zM536 0h-91v71q-43 -43 -84 -62t-89 -19q-96 0 -162 71t-66 177q0 114 74.5 189.5t177.5 75.5q40 0 76.5 -12.5t72.5 -38.5v135h-148v60h148v79
l91 33v-112h80v-60h-80v-587z" />
    <glyph glyph-name="Emacron" unicode="&#x112;" horiz-adv-x="584" 
d="M497 0h-397v700h394l29 -87h-326v-214h273v-86h-273v-226h329zM130 796v68h356v-68h-356z" />
    <glyph glyph-name="emacron" unicode="&#x113;" horiz-adv-x="559" 
d="M284 435q-61 0 -102.5 -43t-47.5 -110h290q-6 72 -43 112.5t-97 40.5zM499 130l-32 -97q-44 -24 -82 -34t-83 -10q-119 0 -189 71t-70 190q0 110 70 187t174 77t166 -72.5t62 -186.5q0 -10 -1 -22t-2 -18h-376q10 -68 56.5 -106t119.5 -38q43 0 91 16t93 45zM121 632v68
h336v-68h-336z" />
    <glyph glyph-name="Ebreve" unicode="&#x114;" horiz-adv-x="584" 
d="M497 0h-397v700h394l29 -87h-326v-214h273v-86h-273v-226h329zM308 772q-56 0 -100.5 29.5t-79.5 90.5l38 28q39 -41 71.5 -57.5t70.5 -16.5t70.5 16.5t71.5 57.5l38 -28q-35 -61 -79.5 -90.5t-100.5 -29.5z" />
    <glyph glyph-name="ebreve" unicode="&#x115;" horiz-adv-x="559" 
d="M284 435q-61 0 -102.5 -43t-47.5 -110h290q-6 72 -43 112.5t-97 40.5zM499 130l-32 -97q-44 -24 -82 -34t-83 -10q-119 0 -189 71t-70 190q0 110 70 187t174 77t166 -72.5t62 -186.5q0 -10 -1 -22t-2 -18h-376q10 -68 56.5 -106t119.5 -38q43 0 91 16t93 45zM289 601
q-53 0 -95 34t-76 104l45 25q34 -46 63.5 -65.5t62.5 -19.5t62.5 19.5t63.5 65.5l45 -25q-34 -70 -76 -104t-95 -34z" />
    <glyph glyph-name="Edotaccent" unicode="&#x116;" horiz-adv-x="584" 
d="M497 0h-397v700h394l29 -87h-326v-214h273v-86h-273v-226h329zM308 896q27 0 45 -18t18 -45t-18 -45t-45 -18t-45 18t-18 45t18 45t45 18z" />
    <glyph glyph-name="edotaccent" unicode="&#x117;" horiz-adv-x="559" 
d="M284 435q-61 0 -102.5 -43t-47.5 -110h290q-6 72 -43 112.5t-97 40.5zM499 130l-32 -97q-44 -24 -82 -34t-83 -10q-119 0 -189 71t-70 190q0 110 70 187t174 77t166 -72.5t62 -186.5q0 -10 -1 -22t-2 -18h-376q10 -68 56.5 -106t119.5 -38q43 0 91 16t93 45zM289 606
q-26 0 -44 18t-18 44t18 44t44 18t44 -18t18 -44t-18 -44t-44 -18z" />
    <glyph glyph-name="Eogonek" unicode="&#x118;" horiz-adv-x="584" 
d="M520 -144l-13 -42q-16 -4 -33 -6t-32 -2q-48 0 -76 19.5t-28 55.5q0 17 9.5 36t32.5 47l29 36h-309v700h394l29 -87h-326v-214h273v-86h-273v-226h329l-29 -87h-33l-32 -57q-9 -16 -12.5 -26t-3.5 -21q0 -21 19 -30.5t62 -9.5h23z" />
    <glyph glyph-name="eogonek" unicode="&#x119;" horiz-adv-x="559" 
d="M455 -144l-13 -42q-16 -4 -33 -6t-32 -2q-48 0 -75.5 19.5t-27.5 54.5q0 19 11 36.5t39 42.5l41 35q-16 -3 -31.5 -4t-31.5 -1q-119 0 -189 71t-70 190q0 110 70 187t174 77t166 -72.5t62 -186.5q0 -10 -1 -22t-2 -18h-376q10 -68 56.5 -106t119.5 -38q43 0 91 16t93 45
l3 -2l-32 -97l-84 -83q-17 -18 -24 -30.5t-7 -23.5q0 -21 19 -30.5t61 -9.5h23zM284 435q-61 0 -102.5 -43t-47.5 -110h290q-6 72 -43 112.5t-97 40.5z" />
    <glyph glyph-name="Ecaron" unicode="&#x11a;" horiz-adv-x="584" 
d="M497 0h-397v700h394l29 -87h-326v-214h273v-86h-273v-226h329zM478 908l-126 -139h-88l-126 139v2h51l118 -75l118 75h53v-2z" />
    <glyph glyph-name="ecaron" unicode="&#x11b;" horiz-adv-x="559" 
d="M284 435q-61 0 -102.5 -43t-47.5 -110h290q-6 72 -43 112.5t-97 40.5zM499 130l-32 -97q-44 -24 -82 -34t-83 -10q-119 0 -189 71t-70 190q0 110 70 187t174 77t166 -72.5t62 -186.5q0 -10 -1 -22t-2 -18h-376q10 -68 56.5 -106t119.5 -38q43 0 91 16t93 45zM458 774
l-128 -167h-82l-128 167v2h42l126 -97l126 97h44v-2z" />
    <glyph glyph-name="Gcircumflex" unicode="&#x11c;" horiz-adv-x="795" 
d="M702 364v-287q-69 -46 -138 -66.5t-149 -20.5q-160 0 -260 98.5t-100 259.5q0 158 108.5 260t275.5 102q68 0 127 -14.5t118 -45.5v-108q-66 40 -126.5 58.5t-121.5 18.5q-120 0 -201 -77.5t-81 -191.5q0 -121 74 -195.5t192 -74.5q54 0 99.5 11t87.5 35v150h-201v88h296
zM588 777h-51l-118 75l-118 -75h-53v1l126 140h88l126 -140v-1z" />
    <glyph glyph-name="gcircumflex" unicode="&#x11d;" horiz-adv-x="620" 
d="M137 252q0 -73 43 -118t112 -45q38 0 74.5 15.5t78.5 50.5v248q-33 14 -63 21t-61 7q-79 0 -131.5 -51t-52.5 -128zM277 -196q-51 0 -99 11t-97 35l-19 99l3 2q60 -34 111.5 -49t104.5 -15q74 0 119 43.5t45 117.5v45q-45 -44 -88 -63.5t-92 -19.5q-96 0 -158.5 67
t-62.5 170q0 114 79.5 187.5t195.5 73.5q34 0 67 -7t71 -23l67 22h12v-452q0 -114 -69.5 -179t-189.5 -65zM483 603h-42l-126 96l-126 -96h-44v2l128 167h82l128 -167v-2z" />
    <glyph glyph-name="Gbreve" unicode="&#x11e;" horiz-adv-x="795" 
d="M702 364v-287q-69 -46 -138 -66.5t-149 -20.5q-160 0 -260 98.5t-100 259.5q0 158 108.5 260t275.5 102q68 0 127 -14.5t118 -45.5v-108q-66 40 -126.5 58.5t-121.5 18.5q-120 0 -201 -77.5t-81 -191.5q0 -121 74 -195.5t192 -74.5q54 0 99.5 11t87.5 35v150h-201v88h296
zM418 777q-56 0 -100.5 29.5t-79.5 90.5l38 28q39 -41 71.5 -57.5t70.5 -16.5t70.5 16.5t71.5 57.5l38 -28q-35 -61 -79.5 -90.5t-100.5 -29.5z" />
    <glyph glyph-name="gbreve" unicode="&#x11f;" horiz-adv-x="620" 
d="M137 252q0 -73 43 -118t112 -45q38 0 74.5 15.5t78.5 50.5v248q-33 14 -63 21t-61 7q-79 0 -131.5 -51t-52.5 -128zM277 -196q-51 0 -99 11t-97 35l-19 99l3 2q60 -34 111.5 -49t104.5 -15q74 0 119 43.5t45 117.5v45q-45 -44 -88 -63.5t-92 -19.5q-96 0 -158.5 67
t-62.5 170q0 114 79.5 187.5t195.5 73.5q34 0 67 -7t71 -23l67 22h12v-452q0 -114 -69.5 -179t-189.5 -65zM314 597q-53 0 -95 34t-76 104l45 25q34 -46 63.5 -65.5t62.5 -19.5t62.5 19.5t63.5 65.5l45 -25q-34 -70 -76 -104t-95 -34z" />
    <glyph glyph-name="Gdotaccent" unicode="&#x120;" horiz-adv-x="795" 
d="M702 364v-287q-69 -46 -138 -66.5t-149 -20.5q-160 0 -260 98.5t-100 259.5q0 158 108.5 260t275.5 102q68 0 127 -14.5t118 -45.5v-108q-66 40 -126.5 58.5t-121.5 18.5q-120 0 -201 -77.5t-81 -191.5q0 -121 74 -195.5t192 -74.5q54 0 99.5 11t87.5 35v150h-201v88h296
zM418 901q27 0 45 -18t18 -45t-18 -45t-45 -18t-45 18t-18 45t18 45t45 18z" />
    <glyph glyph-name="gdotaccent" unicode="&#x121;" horiz-adv-x="620" 
d="M137 252q0 -73 43 -118t112 -45q38 0 74.5 15.5t78.5 50.5v248q-33 14 -63 21t-61 7q-79 0 -131.5 -51t-52.5 -128zM277 -196q-51 0 -99 11t-97 35l-19 99l3 2q60 -34 111.5 -49t104.5 -15q74 0 119 43.5t45 117.5v45q-45 -44 -88 -63.5t-92 -19.5q-96 0 -158.5 67
t-62.5 170q0 114 79.5 187.5t195.5 73.5q34 0 67 -7t71 -23l67 22h12v-452q0 -114 -69.5 -179t-189.5 -65zM314 602q-26 0 -44 18t-18 44t18 44t44 18t44 -18t18 -44t-18 -44t-44 -18z" />
    <glyph glyph-name="uni0122" unicode="&#x122;" horiz-adv-x="795" 
d="M702 364v-287q-69 -46 -138 -66.5t-149 -20.5q-160 0 -260 98.5t-100 259.5q0 158 108.5 260t275.5 102q68 0 127 -14.5t118 -45.5v-108q-66 40 -126.5 58.5t-121.5 18.5q-120 0 -201 -77.5t-81 -191.5q0 -121 74 -195.5t192 -74.5q54 0 99.5 11t87.5 35v150h-201v88h296
zM498 -155q0 -26 -25.5 -50.5t-84.5 -53.5l-50 19v2q37 22 52.5 37t15.5 29q0 13 -14.5 24t-55.5 30v3l95 28q35 -14 51 -30t16 -38z" />
    <glyph glyph-name="uni0123" unicode="&#x123;" horiz-adv-x="620" 
d="M137 252q0 -73 43 -118t112 -45q38 0 74.5 15.5t78.5 50.5v248q-33 14 -63 21t-61 7q-79 0 -131.5 -51t-52.5 -128zM277 -196q-51 0 -99 11t-97 35l-19 99l3 2q60 -34 111.5 -49t104.5 -15q74 0 119 43.5t45 117.5v45q-45 -44 -88 -63.5t-92 -19.5q-96 0 -158.5 67
t-62.5 170q0 114 79.5 187.5t195.5 73.5q34 0 67 -7t71 -23l67 22h12v-452q0 -114 -69.5 -179t-189.5 -65zM231 672q0 27 24.5 53.5t85.5 59.5l50 -20v-2q-35 -22 -51.5 -39.5t-16.5 -32.5t14 -27t56 -34v-3l-95 -29q-37 17 -52 34t-15 40z" />
    <glyph glyph-name="Hcircumflex" unicode="&#x124;" horiz-adv-x="816" 
d="M715 0h-96v313h-422v-313h-97v700h97v-298h422v298h96v-700zM578 772h-51l-118 75l-118 -75h-53v1l126 140h88l126 -140v-1z" />
    <glyph glyph-name="hcircumflex" unicode="&#x125;" horiz-adv-x="604" 
d="M328 429q-39 0 -73.5 -20.5t-79.5 -69.5v-339h-90v726l90 33v-353q43 55 85 79.5t93 24.5q79 0 127.5 -53t48.5 -142v-315h-90v306q0 58 -29.5 90.5t-81.5 32.5zM300 794h-42l-126 96l-126 -96h-44v2l128 167h82l128 -167v-2z" />
    <glyph glyph-name="Hbar" unicode="&#x126;" horiz-adv-x="856" 
d="M215 367h426v152h-426v-152zM735 0h-94v278h-426v-278h-95v518h-96v69h96v113h95v-113h426v113h94v-113h97v-69h-97v-518z" />
    <glyph glyph-name="hbar" unicode="&#x127;" horiz-adv-x="613" 
d="M337 429q-39 0 -73.5 -20.5t-79.5 -69.5v-339h-90v587h-81v60h81v79l90 33v-112h148v-60h-148v-181q43 55 85 79.5t93 24.5q79 0 127.5 -53t48.5 -142v-315h-90v306q0 58 -29.5 90.5t-81.5 32.5z" />
    <glyph glyph-name="Itilde" unicode="&#x128;" horiz-adv-x="307" 
d="M202 0h-97v700h97v-700zM168 870q30 -17 43 -22t21 -5q14 0 25.5 10t47.5 55l39 -28q-43 -67 -66.5 -88t-51.5 -21q-13 0 -30.5 6.5t-55.5 28.5q-30 17 -43 22t-21 5q-14 0 -25.5 -10t-47.5 -55l-39 28q43 67 66.5 88t51.5 21q13 0 30.5 -6.5t55.5 -28.5z" />
    <glyph glyph-name="itilde" unicode="&#x129;" horiz-adv-x="270" 
d="M180 0h-90v500h90v-500zM151 711q30 -19 42.5 -25t19.5 -6q12 0 23 11t48 64l45 -28q-46 -79 -69.5 -102t-52.5 -23q-13 0 -31 8t-57 33q-30 19 -42.5 25t-19.5 6q-11 0 -21.5 -10t-49.5 -65l-45 27q46 79 69.5 102.5t52.5 23.5q13 0 31 -8t57 -33z" />
    <glyph glyph-name="Imacron" unicode="&#x12a;" horiz-adv-x="307" 
d="M202 0h-97v700h97v-700zM16 796v68h276v-68h-276z" />
    <glyph glyph-name="imacron" unicode="&#x12b;" horiz-adv-x="270" 
d="M180 0h-90v500h90v-500zM-3 628v68h276v-68h-276z" />
    <glyph glyph-name="Ibreve" unicode="&#x12c;" horiz-adv-x="307" 
d="M202 0h-97v700h97v-700zM154 772q-56 0 -100.5 29.5t-79.5 90.5l38 28q39 -41 71.5 -57.5t70.5 -16.5t70.5 16.5t71.5 57.5l38 -28q-35 -61 -79.5 -90.5t-100.5 -29.5z" />
    <glyph glyph-name="ibreve" unicode="&#x12d;" horiz-adv-x="270" 
d="M180 0h-90v500h90v-500zM135 597q-53 0 -95 34t-76 104l45 25q34 -46 63.5 -65.5t62.5 -19.5t62.5 19.5t63.5 65.5l45 -25q-34 -70 -76 -104t-95 -34z" />
    <glyph glyph-name="Iogonek" unicode="&#x12e;" horiz-adv-x="307" 
d="M240 -144l-13 -42q-16 -4 -33 -6t-32 -2q-48 0 -76 19.5t-28 55.5q0 17 9.5 36t32.5 47l29 36h-24v700h97v-700h-18l-32 -57q-9 -16 -12.5 -26t-3.5 -21q0 -21 19 -30.5t62 -9.5h23z" />
    <glyph glyph-name="iogonek" unicode="&#x12f;" horiz-adv-x="270" 
d="M135 741q26 0 44 -18t18 -44t-18 -44t-44 -18t-44 18t-18 44t18 44t44 18zM221 -144l-13 -42q-16 -4 -33 -6t-32 -2q-48 0 -76 19.5t-28 55.5q0 17 9.5 36t32.5 47l29 36h-20v500h90v-500h-15l-32 -57q-9 -16 -12.5 -26t-3.5 -21q0 -21 19 -30.5t62 -9.5h23z" />
    <glyph glyph-name="Idotaccent" unicode="&#x130;" horiz-adv-x="307" 
d="M202 0h-97v700h97v-700zM154 896q27 0 45 -18t18 -45t-18 -45t-45 -18t-45 18t-18 45t18 45t45 18z" />
    <glyph glyph-name="dotlessi" unicode="&#x131;" horiz-adv-x="270" 
d="M180 0h-90v500h90v-500z" />
    <glyph glyph-name="Jcircumflex" unicode="&#x134;" horiz-adv-x="459" 
d="M161 80q50 0 78 30.5t28 86.5v503h97v-515q0 -91 -50.5 -143t-137.5 -52q-34 0 -64.5 8.5t-57.5 26.5l-23 109l2 1q35 -28 66 -41.5t62 -13.5zM487 772h-51l-118 75l-118 -75h-53v1l126 140h88l126 -140v-1z" />
    <glyph glyph-name="jcircumflex" unicode="&#x135;" horiz-adv-x="270" 
d="M90 500h91v-527q0 -79 -40 -123t-111 -44q-14 0 -27.5 2t-24.5 6l-13 78q12 -4 24 -6t25 -2q37 0 56.5 22t19.5 65v529zM304 603h-42l-126 96l-126 -96h-44v2l128 167h82l128 -167v-2z" />
    <glyph glyph-name="uni0136" unicode="&#x136;" horiz-adv-x="690" 
d="M679 0h-127l-332 316h-23v-316h-97v700h97v-301h24l329 301h125v-3l-377 -337l381 -357v-3zM455 -150q0 -26 -25.5 -50.5t-84.5 -53.5l-50 19v2q37 22 52.5 37t15.5 29q0 13 -14.5 24t-55.5 30v3l95 28q35 -14 51 -30t16 -38z" />
    <glyph glyph-name="uni0137" unicode="&#x137;" horiz-adv-x="549" 
d="M542 0h-118l-220 220h-29v-220h-90v726l90 33v-471h28l209 212h113v-3l-244 -240l261 -254v-3zM384 -150q0 -26 -25.5 -50.5t-84.5 -53.5l-50 19v2q37 22 52.5 37t15.5 29q0 13 -14.5 24t-55.5 30v3l95 28q35 -14 51 -30t16 -38z" />
    <glyph glyph-name="Lacute" unicode="&#x139;" horiz-adv-x="537" 
d="M498 0h-398v700h97v-613h301v-87zM175 772h-49l82 141h133v-2z" />
    <glyph glyph-name="lacute" unicode="&#x13a;" horiz-adv-x="270" 
d="M180 0h-90v726l90 33v-759zM155 823h-43l84 169h122v-2z" />
    <glyph glyph-name="uni013B" unicode="&#x13b;" horiz-adv-x="537" 
d="M498 0h-398v700h97v-613h301v-87zM382 -150q0 -26 -25.5 -50.5t-84.5 -53.5l-50 19v2q37 22 52.5 37t15.5 29q0 13 -14.5 24t-55.5 30v3l95 28q35 -14 51 -30t16 -38z" />
    <glyph glyph-name="uni013C" unicode="&#x13c;" horiz-adv-x="270" 
d="M180 0h-90v726l90 33v-759zM218 -150q0 -26 -25.5 -50.5t-84.5 -53.5l-50 19v2q37 22 52.5 37t15.5 29q0 13 -14.5 24t-55.5 30v3l95 28q35 -14 51 -30t16 -38z" />
    <glyph glyph-name="Lcaron" unicode="&#x13d;" horiz-adv-x="537" 
d="M498 0h-398v700h97v-613h301v-87zM310 548h-43q13 26 19.5 51t6.5 49q0 26 -6.5 50.5t-19.5 50.5h86q5 -17 7.5 -32.5t2.5 -30.5q0 -35 -13.5 -69.5t-39.5 -68.5z" />
    <glyph glyph-name="lcaron" unicode="&#x13e;" horiz-adv-x="270" 
d="M180 0h-90v726l90 33v-759zM280 549h-43q13 26 19.5 51t6.5 49q0 26 -6.5 50.5t-19.5 50.5h86q5 -17 7.5 -32.5t2.5 -30.5q0 -35 -13.5 -69.5t-39.5 -68.5z" />
    <glyph glyph-name="Lslash" unicode="&#x141;" horiz-adv-x="557" 
d="M518 87v-87h-398v254l-94 -68h-2v85l96 69v360h97v-300l164 116h2v-85l-166 -117v-227h301z" />
    <glyph glyph-name="lslash" unicode="&#x142;" horiz-adv-x="315" 
d="M203 368v-368h-91v310l-94 -69h-2v79l96 70v336l91 33v-311l93 69h2v-79z" />
    <glyph glyph-name="Nacute" unicode="&#x143;" horiz-adv-x="823" 
d="M722 -5h-33l-497 566v-561h-92v700h89l442 -503v503h91v-705zM432 772h-49l82 141h133v-2z" />
    <glyph glyph-name="nacute" unicode="&#x144;" horiz-adv-x="604" 
d="M328 429q-39 0 -73.5 -20.5t-79.5 -69.5v-339h-90v488l90 20v-102q43 55 85 79.5t93 24.5q79 0 127.5 -53t48.5 -142v-315h-90v306q0 58 -29.5 90.5t-81.5 32.5zM327 603h-43l84 169h122v-2z" />
    <glyph glyph-name="uni0145" unicode="&#x145;" horiz-adv-x="823" 
d="M722 -5h-33l-497 566v-561h-92v700h89l442 -503v503h91v-705zM504 -150q0 -26 -25.5 -50.5t-84.5 -53.5l-50 19v2q37 22 52.5 37t15.5 29q0 13 -14.5 24t-55.5 30v3l95 28q35 -14 51 -30t16 -38z" />
    <glyph glyph-name="uni0146" unicode="&#x146;" horiz-adv-x="604" 
d="M328 429q-39 0 -73.5 -20.5t-79.5 -69.5v-339h-90v488l90 20v-102q43 55 85 79.5t93 24.5q79 0 127.5 -53t48.5 -142v-315h-90v306q0 58 -29.5 90.5t-81.5 32.5zM390 -150q0 -26 -25.5 -50.5t-84.5 -53.5l-50 19v2q37 22 52.5 37t15.5 29q0 13 -14.5 24t-55.5 30v3l95 28
q35 -14 51 -30t16 -38z" />
    <glyph glyph-name="Ncaron" unicode="&#x147;" horiz-adv-x="823" 
d="M722 -5h-33l-497 566v-561h-92v700h89l442 -503v503h91v-705zM581 908l-126 -139h-88l-126 139v2h51l118 -75l118 75h53v-2z" />
    <glyph glyph-name="ncaron" unicode="&#x148;" horiz-adv-x="604" 
d="M328 429q-39 0 -73.5 -20.5t-79.5 -69.5v-339h-90v488l90 20v-102q43 55 85 79.5t93 24.5q79 0 127.5 -53t48.5 -142v-315h-90v306q0 58 -29.5 90.5t-81.5 32.5zM476 770l-128 -167h-82l-128 167v2h42l126 -97l126 97h44v-2z" />
    <glyph glyph-name="Eng" unicode="&#x14a;" horiz-adv-x="823" 
d="M511 -194q-18 0 -36 2.5t-32 6.5l-16 86l1 1q15 -5 34 -8t37 -3q61 0 96.5 35.5t35.5 99.5v2l-439 531v-559h-92v700h89l442 -533v533h91v-671q0 -105 -56 -164t-155 -59z" />
    <glyph glyph-name="eng" unicode="&#x14b;" horiz-adv-x="604" 
d="M364 -194q-16 0 -31.5 3t-26.5 8l-13 78q14 -6 28 -8.5t29 -2.5q42 0 65.5 24t23.5 68v330q0 58 -29.5 90.5t-81.5 32.5q-39 0 -73.5 -20.5t-79.5 -69.5v-339h-90v488l90 20v-102q43 55 85 79.5t93 24.5q79 0 127.5 -53t48.5 -142v-337q0 -82 -43.5 -127t-121.5 -45z" />
    <glyph glyph-name="Omacron" unicode="&#x14c;" horiz-adv-x="841" 
d="M420 -14q-155 0 -260 105t-105 258q0 154 106 259.5t261 105.5q154 0 259 -105t105 -258q0 -154 -106 -259.5t-260 -105.5zM418 624q-110 0 -187 -79.5t-77 -193.5q0 -116 77 -195.5t189 -79.5q110 0 188.5 79.5t78.5 193.5q0 115 -78.5 195t-190.5 80zM243 801v68h356
v-68h-356z" />
    <glyph glyph-name="omacron" unicode="&#x14d;" horiz-adv-x="614" 
d="M306 -14q-115 0 -189 76.5t-74 186.5q0 109 76 187t189 78q116 0 189.5 -75.5t73.5 -186.5q0 -110 -75.5 -188t-189.5 -78zM479 252q0 78 -48.5 129.5t-122.5 51.5q-75 0 -123.5 -52.5t-48.5 -131.5q0 -78 48.5 -130t121.5 -52q75 0 124 53t49 132zM139 632v68h336v-68
h-336z" />
    <glyph glyph-name="Obreve" unicode="&#x14e;" horiz-adv-x="841" 
d="M420 -14q-155 0 -260 105t-105 258q0 154 106 259.5t261 105.5q154 0 259 -105t105 -258q0 -154 -106 -259.5t-260 -105.5zM418 624q-110 0 -187 -79.5t-77 -193.5q0 -116 77 -195.5t189 -79.5q110 0 188.5 79.5t78.5 193.5q0 115 -78.5 195t-190.5 80zM421 777
q-56 0 -100.5 29.5t-79.5 90.5l38 28q39 -41 71.5 -57.5t70.5 -16.5t70.5 16.5t71.5 57.5l38 -28q-35 -61 -79.5 -90.5t-100.5 -29.5z" />
    <glyph glyph-name="obreve" unicode="&#x14f;" horiz-adv-x="614" 
d="M306 -14q-115 0 -189 76.5t-74 186.5q0 109 76 187t189 78q116 0 189.5 -75.5t73.5 -186.5q0 -110 -75.5 -188t-189.5 -78zM479 252q0 78 -48.5 129.5t-122.5 51.5q-75 0 -123.5 -52.5t-48.5 -131.5q0 -78 48.5 -130t121.5 -52q75 0 124 53t49 132zM307 601q-53 0 -95 34
t-76 104l45 25q34 -46 63.5 -65.5t62.5 -19.5t62.5 19.5t63.5 65.5l45 -25q-34 -70 -76 -104t-95 -34z" />
    <glyph glyph-name="Ohungarumlaut" unicode="&#x150;" horiz-adv-x="841" 
d="M420 -14q-155 0 -260 105t-105 258q0 154 106 259.5t261 105.5q154 0 259 -105t105 -258q0 -154 -106 -259.5t-260 -105.5zM418 624q-110 0 -187 -79.5t-77 -193.5q0 -116 77 -195.5t189 -79.5q110 0 188.5 79.5t78.5 193.5q0 115 -78.5 195t-190.5 80zM524 777h-49
l82 141h124v-2zM335 777h-49l82 141h124v-2z" />
    <glyph glyph-name="ohungarumlaut" unicode="&#x151;" horiz-adv-x="614" 
d="M306 -14q-115 0 -189 76.5t-74 186.5q0 109 76 187t189 78q116 0 189.5 -75.5t73.5 -186.5q0 -110 -75.5 -188t-189.5 -78zM479 252q0 78 -48.5 129.5t-122.5 51.5q-75 0 -123.5 -52.5t-48.5 -131.5q0 -78 48.5 -130t121.5 -52q75 0 124 53t49 132zM409 607h-43l84 169
h113v-2zM221 607h-43l84 169h113v-2z" />
    <glyph glyph-name="OE" unicode="&#x152;" horiz-adv-x="1011" 
d="M155 350q0 -121 80.5 -191.5t217.5 -70.5h75v524h-79q-130 0 -212 -72.5t-82 -189.5zM925 0h-474q-181 0 -288 94t-107 254q0 157 110.5 254.5t284.5 97.5h471l29 -87h-327v-214h273v-86h-273v-226h330z" />
    <glyph glyph-name="oe" unicode="&#x153;" horiz-adv-x="988" 
d="M712 435q-60 0 -101.5 -43t-47.5 -110h290q-6 71 -43.5 112t-97.5 41zM476 252q0 78 -48 129.5t-121 51.5q-74 0 -122.5 -52.5t-48.5 -131.5q0 -78 48 -130t121 -52q74 0 122.5 53t48.5 132zM735 -11q-74 0 -130 29t-88 84q-35 -55 -91.5 -85.5t-125.5 -30.5
q-112 0 -184.5 76.5t-72.5 186.5t74.5 187.5t185.5 77.5q70 0 126.5 -30t90.5 -86q33 55 85 85.5t115 30.5q102 0 163 -72.5t61 -186.5q0 -10 -1 -22t-2 -18h-376q10 -68 56.5 -106t118.5 -38q43 0 91.5 16t92.5 45l3 -2l-31 -97q-41 -24 -79 -34t-82 -10z" />
    <glyph glyph-name="Racute" unicode="&#x154;" horiz-adv-x="635" 
d="M301 614h-106v-249h101q64 0 104.5 36t40.5 92q0 54 -39 87.5t-101 33.5zM640 0h-121l-246 280h-76v-280h-97v700h204q106 0 170.5 -56t64.5 -151q0 -71 -44 -124t-119 -73zM326 772h-49l82 141h133v-2z" />
    <glyph glyph-name="racute" unicode="&#x155;" horiz-adv-x="415" 
d="M175 320v-320h-90v488l90 20v-127q62 77 97.5 102t76.5 25q9 0 15.5 -1t16.5 -3l7 -95q-7 2 -13.5 2.5t-13.5 0.5q-44 0 -86.5 -21t-99.5 -71zM251 603h-43l84 169h122v-2z" />
    <glyph glyph-name="uni0156" unicode="&#x156;" horiz-adv-x="635" 
d="M301 614h-106v-249h101q64 0 104.5 36t40.5 92q0 54 -39 87.5t-101 33.5zM640 0h-121l-246 280h-76v-280h-97v700h204q106 0 170.5 -56t64.5 -151q0 -71 -44 -124t-119 -73zM431 -150q0 -26 -25.5 -50.5t-84.5 -53.5l-50 19v2q37 22 52.5 37t15.5 29q0 13 -14.5 24
t-55.5 30v3l95 28q35 -14 51 -30t16 -38z" />
    <glyph glyph-name="uni0157" unicode="&#x157;" horiz-adv-x="415" 
d="M175 320v-320h-90v488l90 20v-127q62 77 97.5 102t76.5 25q9 0 15.5 -1t16.5 -3l7 -95q-7 2 -13.5 2.5t-13.5 0.5q-44 0 -86.5 -21t-99.5 -71zM213 -150q0 -26 -25.5 -50.5t-84.5 -53.5l-50 19v2q37 22 52.5 37t15.5 29q0 13 -14.5 24t-55.5 30v3l95 28q35 -14 51 -30
t16 -38z" />
    <glyph glyph-name="Rcaron" unicode="&#x158;" horiz-adv-x="635" 
d="M301 614h-106v-249h101q64 0 104.5 36t40.5 92q0 54 -39 87.5t-101 33.5zM640 0h-121l-246 280h-76v-280h-97v700h204q106 0 170.5 -56t64.5 -151q0 -71 -44 -124t-119 -73zM475 908l-126 -139h-88l-126 139v2h51l118 -75l118 75h53v-2z" />
    <glyph glyph-name="rcaron" unicode="&#x159;" horiz-adv-x="415" 
d="M175 320v-320h-90v488l90 20v-127q62 77 97.5 102t76.5 25q9 0 15.5 -1t16.5 -3l7 -95q-7 2 -13.5 2.5t-13.5 0.5q-44 0 -86.5 -21t-99.5 -71zM400 770l-128 -167h-82l-128 167v2h42l126 -97l126 97h44v-2z" />
    <glyph glyph-name="Sacute" unicode="&#x15a;" horiz-adv-x="554" 
d="M249 316q-103 46 -142 92.5t-39 113.5q0 86 58.5 138t154.5 52q52 0 96 -12.5t88 -40.5v-108h-2q-48 36 -94.5 53.5t-91.5 17.5q-53 0 -84.5 -24.5t-31.5 -66.5q0 -40 29 -67t122 -69q99 -45 140.5 -93t41.5 -115q0 -89 -63 -144t-164 -55q-56 0 -108 17.5t-97 51.5
l-23 130l2 1q55 -51 116 -80.5t115 -29.5q58 0 93 27.5t35 73.5q0 39 -30.5 68t-120.5 69zM308 777h-49l82 141h133v-2z" />
    <glyph glyph-name="sacute" unicode="&#x15b;" horiz-adv-x="504" 
d="M281 292q99 -23 137.5 -58t38.5 -96q0 -65 -56.5 -107t-144.5 -42q-53 0 -101 15t-95 46l-19 108l3 2q53 -43 110.5 -66.5t111.5 -23.5q45 0 74.5 17.5t29.5 45.5q0 30 -27.5 47t-108.5 36q-97 23 -135 57t-38 89q0 66 54.5 107.5t140.5 41.5q42 0 84 -12t80 -34v-94
l-3 -2q-46 30 -89.5 45.5t-81.5 15.5q-45 0 -71.5 -16t-26.5 -42q0 -28 27 -44.5t106 -35.5zM277 605h-43l84 169h122v-2z" />
    <glyph glyph-name="Scircumflex" unicode="&#x15c;" horiz-adv-x="554" 
d="M249 316q-103 46 -142 92.5t-39 113.5q0 86 58.5 138t154.5 52q52 0 96 -12.5t88 -40.5v-108h-2q-48 36 -94.5 53.5t-91.5 17.5q-53 0 -84.5 -24.5t-31.5 -66.5q0 -40 29 -67t122 -69q99 -45 140.5 -93t41.5 -115q0 -89 -63 -144t-164 -55q-56 0 -108 17.5t-97 51.5
l-23 130l2 1q55 -51 116 -80.5t115 -29.5q58 0 93 27.5t35 73.5q0 39 -30.5 68t-120.5 69zM457 777h-51l-118 75l-118 -75h-53v1l126 140h88l126 -140v-1z" />
    <glyph glyph-name="scircumflex" unicode="&#x15d;" horiz-adv-x="504" 
d="M281 292q99 -23 137.5 -58t38.5 -96q0 -65 -56.5 -107t-144.5 -42q-53 0 -101 15t-95 46l-19 108l3 2q53 -43 110.5 -66.5t111.5 -23.5q45 0 74.5 17.5t29.5 45.5q0 30 -27.5 47t-108.5 36q-97 23 -135 57t-38 89q0 66 54.5 107.5t140.5 41.5q42 0 84 -12t80 -34v-94
l-3 -2q-46 30 -89.5 45.5t-81.5 15.5q-45 0 -71.5 -16t-26.5 -42q0 -28 27 -44.5t106 -35.5zM426 605h-42l-126 96l-126 -96h-44v2l128 167h82l128 -167v-2z" />
    <glyph glyph-name="uni015E" unicode="&#x15e;" horiz-adv-x="554" 
d="M357 -121q0 -36 -32 -57.5t-85 -21.5q-16 0 -31.5 2t-30.5 6l-26 47l3 3q23 -8 40 -11t35 -3q27 0 42.5 8t15.5 23q0 14 -12.5 21t-37.5 7q-8 0 -16.5 -0.5t-29.5 -3.5l-4 4l51 86q-49 4 -93.5 21.5t-83.5 46.5l-23 130l2 1q55 -51 116 -80.5t115 -29.5q58 0 93 27.5
t35 73.5q0 39 -30.5 68t-120.5 69q-103 46 -142 92.5t-39 113.5q0 86 58.5 138t154.5 52q52 0 96 -12.5t88 -40.5v-108h-2q-48 36 -94.5 53.5t-91.5 17.5q-53 0 -84.5 -24.5t-31.5 -66.5q0 -40 29 -67t122 -69q99 -45 140.5 -93t41.5 -115q0 -82 -55 -136t-145 -62l-28 -44
q45 -2 68 -18.5t23 -47.5z" />
    <glyph glyph-name="uni015F" unicode="&#x15f;" horiz-adv-x="504" 
d="M338 -118q0 -36 -32 -57.5t-85 -21.5q-16 0 -31.5 2t-30.5 6l-26 47l3 3q23 -8 40 -11t35 -3q27 0 42.5 8t15.5 23q0 14 -12.5 21t-37.5 7q-8 0 -16.5 -0.5t-29.5 -3.5l-4 4l50 85q-41 4 -80 18.5t-79 40.5l-19 108l3 2q53 -43 110.5 -66.5t111.5 -23.5q45 0 74.5 17.5
t29.5 45.5q0 30 -27.5 47t-108.5 36q-97 23 -135 57t-38 89q0 66 54.5 107.5t140.5 41.5q42 0 84 -12t80 -34v-94l-3 -2q-46 30 -89.5 45.5t-81.5 15.5q-45 0 -71.5 -16t-26.5 -42q0 -28 27 -44.5t106 -35.5q99 -23 137.5 -58t38.5 -96q0 -62 -51 -103t-133 -46l-26 -41
q45 -2 68 -18.5t23 -47.5z" />
    <glyph glyph-name="Scaron" unicode="&#x160;" horiz-adv-x="554" 
d="M249 316q-103 46 -142 92.5t-39 113.5q0 86 58.5 138t154.5 52q52 0 96 -12.5t88 -40.5v-108h-2q-48 36 -94.5 53.5t-91.5 17.5q-53 0 -84.5 -24.5t-31.5 -66.5q0 -40 29 -67t122 -69q99 -45 140.5 -93t41.5 -115q0 -89 -63 -144t-164 -55q-56 0 -108 17.5t-97 51.5
l-23 130l2 1q55 -51 116 -80.5t115 -29.5q58 0 93 27.5t35 73.5q0 39 -30.5 68t-120.5 69zM457 913l-126 -139h-88l-126 139v2h51l118 -75l118 75h53v-2z" />
    <glyph glyph-name="scaron" unicode="&#x161;" horiz-adv-x="504" 
d="M281 292q99 -23 137.5 -58t38.5 -96q0 -65 -56.5 -107t-144.5 -42q-53 0 -101 15t-95 46l-19 108l3 2q53 -43 110.5 -66.5t111.5 -23.5q45 0 74.5 17.5t29.5 45.5q0 30 -27.5 47t-108.5 36q-97 23 -135 57t-38 89q0 66 54.5 107.5t140.5 41.5q42 0 84 -12t80 -34v-94
l-3 -2q-46 30 -89.5 45.5t-81.5 15.5q-45 0 -71.5 -16t-26.5 -42q0 -28 27 -44.5t106 -35.5zM426 772l-128 -167h-82l-128 167v2h42l126 -97l126 97h44v-2z" />
    <glyph glyph-name="uni0162" unicode="&#x162;" horiz-adv-x="715" 
d="M445 -116q0 -36 -32 -57.5t-85 -21.5q-16 0 -31.5 2t-30.5 6l-26 47l3 3q23 -8 40 -11t35 -3q27 0 42.5 8t15.5 23q0 14 -12.5 21t-37.5 7q-8 0 -16.5 -0.5t-29.5 -3.5l-4 4l54 92h-21v613h-274v87h645v-87h-275v-613h-19l-32 -50q45 -2 68 -18.5t23 -47.5z" />
    <glyph glyph-name="uni0163" unicode="&#x163;" horiz-adv-x="447" 
d="M348 -116q0 -36 -32 -57.5t-85 -21.5q-16 0 -31.5 2t-30.5 6l-26 47l3 3q23 -8 40 -11t35 -3q27 0 42.5 8t15.5 23q0 14 -12.5 21t-37.5 7q-8 0 -16.5 -0.5t-29.5 -3.5l-4 4l50 86q-53 12 -81.5 54t-28.5 108v267h-85v77h85v112l89 33v-145h196v-77h-196v-263
q0 -45 21 -67.5t62 -22.5q28 0 56 13t56 38l3 -2l-20 -95q-20 -15 -47 -24.5t-57 -10.5l-25 -39q45 -2 68 -18.5t23 -47.5z" />
    <glyph glyph-name="Tcaron" unicode="&#x164;" horiz-adv-x="715" 
d="M680 700v-87h-275v-613h-96v613h-274v87h645zM527 908l-126 -139h-88l-126 139v2h51l118 -75l118 75h53v-2z" />
    <glyph glyph-name="tcaron" unicode="&#x165;" horiz-adv-x="447" 
d="M406 119l-20 -95q-22 -16 -52 -25.5t-62 -9.5q-71 0 -112 44t-41 123v267h-85v77h85v112l89 33v-145h196v-77h-196v-263q0 -45 21 -67.5t62 -22.5q28 0 56 13t56 38zM313 569h-43q13 26 19.5 51t6.5 49q0 26 -6.5 50.5t-19.5 50.5h86q5 -17 7.5 -32.5t2.5 -30.5
q0 -35 -13.5 -69.5t-39.5 -68.5z" />
    <glyph glyph-name="Tbar" unicode="&#x166;" horiz-adv-x="715" 
d="M559 371v-70h-154v-301h-95v301h-154v70h154v242h-275v87h645v-87h-275v-242h154z" />
    <glyph glyph-name="tbar" unicode="&#x167;" horiz-adv-x="447" 
d="M406 119l-20 -95q-22 -16 -52 -25.5t-62 -9.5q-71 0 -112 44t-41 123v86h-85v60h85v121h-85v77h85v112l89 33v-145h196v-77h-196v-121h161v-60h-161v-82q0 -45 21 -67.5t62 -22.5q28 0 56 13t56 38z" />
    <glyph glyph-name="Utilde" unicode="&#x168;" horiz-adv-x="789" 
d="M394 -12q-141 0 -222 85t-81 233v394h97v-396q0 -107 55 -167t153 -60t153 60t55 170v393h93v-394q0 -149 -80.5 -233.5t-222.5 -84.5zM409 870q30 -17 43 -22t21 -5q14 0 25.5 10t47.5 55l39 -28q-43 -67 -66.5 -88t-51.5 -21q-13 0 -30.5 6.5t-55.5 28.5q-30 17 -43 22
t-21 5q-14 0 -25.5 -10t-47.5 -55l-39 28q43 67 66.5 88t51.5 21q13 0 30.5 -6.5t55.5 -28.5z" />
    <glyph glyph-name="utilde" unicode="&#x169;" horiz-adv-x="604" 
d="M520 0h-91v94q-43 -55 -85 -79.5t-93 -24.5q-79 0 -127.5 53t-48.5 142v315h91v-306q0 -58 29.5 -90.5t81.5 -32.5q38 0 72.5 20.5t79.5 69.5v339h91v-500zM314 711q30 -19 42.5 -25t19.5 -6q12 0 23 11t48 64l45 -28q-46 -79 -69.5 -102t-52.5 -23q-13 0 -31 8t-57 33
q-30 19 -42.5 25t-19.5 6q-11 0 -21.5 -10t-49.5 -65l-45 27q46 79 69.5 102.5t52.5 23.5q13 0 31 -8t57 -33z" />
    <glyph glyph-name="Umacron" unicode="&#x16a;" horiz-adv-x="789" 
d="M394 -12q-141 0 -222 85t-81 233v394h97v-396q0 -107 55 -167t153 -60t153 60t55 170v393h93v-394q0 -149 -80.5 -233.5t-222.5 -84.5zM217 796v68h356v-68h-356z" />
    <glyph glyph-name="umacron" unicode="&#x16b;" horiz-adv-x="604" 
d="M520 0h-91v94q-43 -55 -85 -79.5t-93 -24.5q-79 0 -127.5 53t-48.5 142v315h91v-306q0 -58 29.5 -90.5t81.5 -32.5q38 0 72.5 20.5t79.5 69.5v339h91v-500zM130 628v68h336v-68h-336z" />
    <glyph glyph-name="Ubreve" unicode="&#x16c;" horiz-adv-x="789" 
d="M394 -12q-141 0 -222 85t-81 233v394h97v-396q0 -107 55 -167t153 -60t153 60t55 170v393h93v-394q0 -149 -80.5 -233.5t-222.5 -84.5zM395 772q-56 0 -100.5 29.5t-79.5 90.5l38 28q39 -41 71.5 -57.5t70.5 -16.5t70.5 16.5t71.5 57.5l38 -28q-35 -61 -79.5 -90.5
t-100.5 -29.5z" />
    <glyph glyph-name="ubreve" unicode="&#x16d;" horiz-adv-x="604" 
d="M520 0h-91v94q-43 -55 -85 -79.5t-93 -24.5q-79 0 -127.5 53t-48.5 142v315h91v-306q0 -58 29.5 -90.5t81.5 -32.5q38 0 72.5 20.5t79.5 69.5v339h91v-500zM298 597q-53 0 -95 34t-76 104l45 25q34 -46 63.5 -65.5t62.5 -19.5t62.5 19.5t63.5 65.5l45 -25
q-34 -70 -76 -104t-95 -34z" />
    <glyph glyph-name="Uring" unicode="&#x16e;" horiz-adv-x="789" 
d="M394 -12q-141 0 -222 85t-81 233v394h97v-396q0 -107 55 -167t153 -60t153 60t55 170v393h93v-394q0 -149 -80.5 -233.5t-222.5 -84.5zM395 770q-52 0 -88 33t-36 81t36 81t88 33t88 -33t36 -81t-36 -81t-88 -33zM395 956q-34 0 -57 -20.5t-23 -51.5t23 -52t57 -21t57 21
t23 52t-23 51.5t-57 20.5z" />
    <glyph glyph-name="uring" unicode="&#x16f;" horiz-adv-x="604" 
d="M520 0h-91v94q-43 -55 -85 -79.5t-93 -24.5q-79 0 -127.5 53t-48.5 142v315h91v-306q0 -58 29.5 -90.5t81.5 -32.5q38 0 72.5 20.5t79.5 69.5v339h91v-500zM298 600q-52 0 -88 36.5t-36 87.5t36 87.5t88 36.5t88 -36.5t36 -87.5t-36 -87.5t-88 -36.5zM298 806
q-33 0 -56.5 -24t-23.5 -58t23.5 -58t56.5 -24t56.5 24t23.5 58t-23.5 58t-56.5 24z" />
    <glyph glyph-name="Uhungarumlaut" unicode="&#x170;" horiz-adv-x="789" 
d="M394 -12q-141 0 -222 85t-81 233v394h97v-396q0 -107 55 -167t153 -60t153 60t55 170v393h93v-394q0 -149 -80.5 -233.5t-222.5 -84.5zM498 772h-49l82 141h124v-2zM309 772h-49l82 141h124v-2z" />
    <glyph glyph-name="uhungarumlaut" unicode="&#x171;" horiz-adv-x="604" 
d="M520 0h-91v94q-43 -55 -85 -79.5t-93 -24.5q-79 0 -127.5 53t-48.5 142v315h91v-306q0 -58 29.5 -90.5t81.5 -32.5q38 0 72.5 20.5t79.5 69.5v339h91v-500zM400 603h-43l84 169h113v-2zM212 603h-43l84 169h113v-2z" />
    <glyph glyph-name="Uogonek" unicode="&#x172;" horiz-adv-x="789" 
d="M411 -199q-48 0 -76 19.5t-28 55.5q0 17 9.5 36t32.5 47l24 30q-132 6 -207 90t-75 227v394h97v-396q0 -107 55 -167t153 -60t153 60t55 170v393h93v-394q0 -139 -70.5 -222.5t-196.5 -93.5l-29 -52q-9 -16 -12.5 -26t-3.5 -21q0 -21 19 -30.5t62 -9.5h23l-13 -42
q-16 -4 -33 -6t-32 -2z" />
    <glyph glyph-name="uogonek" unicode="&#x173;" horiz-adv-x="604" 
d="M542 -144l-13 -42q-16 -4 -33 -6t-32 -2q-48 0 -76 19.5t-28 55.5q0 17 9.5 36t32.5 47l29 36h-2v94q-43 -55 -85 -79.5t-93 -24.5q-79 0 -127.5 53t-48.5 142v315h91v-306q0 -58 29.5 -90.5t81.5 -32.5q38 0 72.5 20.5t79.5 69.5v339h91v-500h-34l-32 -57
q-9 -16 -12.5 -26t-3.5 -21q0 -21 19 -30.5t62 -9.5h23z" />
    <glyph glyph-name="Wcircumflex" unicode="&#x174;" horiz-adv-x="1176" 
d="M371 -4h-93l-241 704h105l188 -578l252 586h17l244 -586l196 578h102l-252 -704h-94l-208 509zM761 772h-51l-118 75l-118 -75h-53v1l126 140h88l126 -140v-1z" />
    <glyph glyph-name="wcircumflex" unicode="&#x175;" horiz-adv-x="879" 
d="M284 -7h-76l-182 507h97l129 -387l182 393h17l169 -393l142 387h92l-196 -507h-75l-145 332zM611 603h-42l-126 96l-126 -96h-44v2l128 167h82l128 -167v-2z" />
    <glyph glyph-name="Ycircumflex" unicode="&#x176;" horiz-adv-x="668" 
d="M382 313v-313h-96v313l-273 387h115l208 -302l208 302h111zM504 772h-51l-118 75l-118 -75h-53v1l126 140h88l126 -140v-1z" />
    <glyph glyph-name="ycircumflex" unicode="&#x177;" horiz-adv-x="548" 
d="M122 -194q-23 0 -44 4.5t-41 14.5l-18 91l3 2q23 -14 43 -20.5t42 -6.5q36 0 61.5 21t44.5 65l22 51l-212 472h100l158 -369l148 369h98l-231 -554q-29 -70 -72.5 -105t-101.5 -35zM443 603h-42l-126 96l-126 -96h-44v2l128 167h82l128 -167v-2z" />
    <glyph glyph-name="Ydieresis" unicode="&#x178;" horiz-adv-x="668" 
d="M382 313v-313h-96v313l-273 387h115l208 -302l208 302h111zM438 896q27 0 45 -18t18 -45t-18 -45t-45 -18q-26 0 -44.5 18.5t-18.5 44.5t18.5 44.5t44.5 18.5zM230 896q26 0 44.5 -18.5t18.5 -44.5t-18.5 -44.5t-44.5 -18.5q-27 0 -45 18t-18 45t18 45t45 18z" />
    <glyph glyph-name="Zacute" unicode="&#x179;" horiz-adv-x="698" 
d="M660 87l-47 -87h-567l-7 14l448 599h-416v87h574l7 -14l-449 -599h457zM372 772h-49l82 141h133v-2z" />
    <glyph glyph-name="zacute" unicode="&#x17a;" horiz-adv-x="535" 
d="M498 78l-28 -78h-438l-5 15l314 407h-279v78h428l4 -14l-314 -408h318zM293 603h-43l84 169h122v-2z" />
    <glyph glyph-name="Zdotaccent" unicode="&#x17b;" horiz-adv-x="698" 
d="M660 87l-47 -87h-567l-7 14l448 599h-416v87h574l7 -14l-449 -599h457zM351 896q27 0 45 -18t18 -45t-18 -45t-45 -18t-45 18t-18 45t18 45t45 18z" />
    <glyph glyph-name="zdotaccent" unicode="&#x17c;" horiz-adv-x="535" 
d="M498 78l-28 -78h-438l-5 15l314 407h-279v78h428l4 -14l-314 -408h318zM273 602q-26 0 -44 18t-18 44t18 44t44 18t44 -18t18 -44t-18 -44t-44 -18z" />
    <glyph glyph-name="Zcaron" unicode="&#x17d;" horiz-adv-x="698" 
d="M660 87l-47 -87h-567l-7 14l448 599h-416v87h574l7 -14l-449 -599h457zM521 908l-126 -139h-88l-126 139v2h51l118 -75l118 75h53v-2z" />
    <glyph glyph-name="zcaron" unicode="&#x17e;" horiz-adv-x="535" 
d="M498 78l-28 -78h-438l-5 15l314 407h-279v78h428l4 -14l-314 -408h318zM442 770l-128 -167h-82l-128 167v2h42l126 -97l126 97h44v-2z" />
    <glyph glyph-name="uni018F" unicode="&#x18f;" horiz-adv-x="771" 
d="M716 349q0 -157 -98 -260t-247 -103q-144 0 -232.5 99t-88.5 262v46h564q-13 104 -82.5 166.5t-172.5 62.5q-67 0 -131 -24t-127 -72l-3 2l15 107q58 39 120 58t130 19q159 0 256 -99.5t97 -263.5zM374 76q93 0 160.5 65t80.5 166h-467q9 -107 70 -169t156 -62z" />
    <glyph glyph-name="Ohorn" unicode="&#x1a0;" horiz-adv-x="841" 
d="M786 349q0 -153 -106 -258t-260 -105t-259.5 104t-105.5 256q0 154 106.5 258t265.5 104q15 0 31 -1l48 -3l48 -3t30 -1q66 0 94 20t28 66q0 14 -2 27t-6 28h85q4 -10 6 -23t2 -28q0 -66 -42 -105t-120 -45q74 -49 115.5 -125.5t41.5 -165.5zM418 620q-110 0 -187 -78.5
t-77 -192.5q0 -115 77 -194t189 -79q110 0 188.5 79t78.5 193t-78.5 193t-190.5 79z" />
    <glyph glyph-name="ohorn" unicode="&#x1a1;" horiz-adv-x="614" 
d="M571 250q0 -109 -75.5 -186.5t-189.5 -77.5t-188.5 75.5t-74.5 184.5q0 112 77 186.5t196 74.5q10 0 22 -0.5t34 -1.5q20 0 30 -0.5t18 -0.5q49 0 73 16t24 50q0 12 -1.5 22t-6.5 25h78q5 -15 7 -27t2 -25q0 -46 -31.5 -76.5t-89.5 -38.5q46 -36 71 -89t25 -111zM479 250
q0 77 -48.5 128t-122.5 51q-75 0 -123.5 -51.5t-48.5 -129.5t48.5 -129.5t121.5 -51.5q75 0 124 52.5t49 130.5z" />
    <glyph glyph-name="Uhorn" unicode="&#x1af;" horiz-adv-x="818" 
d="M394 -12q-141 0 -222 85t-81 233v394h97v-396q0 -107 55 -167t153 -60t153 60t55 170v393h30q61 0 88.5 20.5t27.5 65.5q0 14 -2 27t-6 28h85q3 -11 5 -24t2 -27q0 -61 -34.5 -98.5t-102.5 -50.5v-335q0 -149 -80.5 -233.5t-222.5 -84.5z" />
    <glyph glyph-name="uhorn" unicode="&#x1b0;" horiz-adv-x="625" 
d="M520 0h-91v94q-43 -55 -85 -79.5t-93 -24.5q-79 0 -127.5 53t-48.5 142v315h91v-306q0 -58 29.5 -90.5t81.5 -32.5q38 0 72.5 20.5t79.5 69.5v339h29q55 0 80 15t25 48q0 11 -2 21.5t-6 22.5h80q3 -9 5 -20.5t2 -23.5q0 -48 -31 -78t-91 -40v-445z" />
    <glyph glyph-name="uni01CD" unicode="&#x1cd;" horiz-adv-x="789" 
d="M248 265h291l-143 329zM758 0h-104l-78 180h-366l-81 -180h-100l326 704h89zM567 908l-126 -139h-88l-126 139v2h51l118 -75l118 75h53v-2z" />
    <glyph glyph-name="uni01CE" unicode="&#x1ce;" horiz-adv-x="567" 
d="M492 12l-90 -20v89q-56 -45 -105.5 -67t-96.5 -22q-66 0 -107 36.5t-41 97.5q0 86 86 127.5t264 43.5v2q0 62 -29.5 94.5t-85.5 32.5q-42 0 -86.5 -18t-91.5 -54l-3 1l20 101q40 27 83.5 40t91.5 13q92 0 141.5 -53t49.5 -152v-292zM143 130q0 -28 20 -44.5t55 -16.5
t80 17t104 53v100q-130 -8 -194.5 -34.5t-64.5 -74.5zM464 770l-128 -167h-82l-128 167v2h42l126 -97l126 97h44v-2z" />
    <glyph glyph-name="uni01CF" unicode="&#x1cf;" horiz-adv-x="307" 
d="M202 0h-97v700h97v-700zM324 908l-126 -139h-88l-126 139v2h51l118 -75l118 75h53v-2z" />
    <glyph glyph-name="uni01D0" unicode="&#x1d0;" horiz-adv-x="270" 
d="M180 0h-90v500h90v-500zM304 770l-128 -167h-82l-128 167v2h42l126 -97l126 97h44v-2z" />
    <glyph glyph-name="uni01D1" unicode="&#x1d1;" horiz-adv-x="841" 
d="M420 -14q-155 0 -260 105t-105 258q0 154 106 259.5t261 105.5q154 0 259 -105t105 -258q0 -154 -106 -259.5t-260 -105.5zM418 624q-110 0 -187 -79.5t-77 -193.5q0 -116 77 -195.5t189 -79.5q110 0 188.5 79.5t78.5 193.5q0 115 -78.5 195t-190.5 80zM591 913
l-126 -139h-88l-126 139v2h51l118 -75l118 75h53v-2z" />
    <glyph glyph-name="uni01D2" unicode="&#x1d2;" horiz-adv-x="614" 
d="M306 -14q-115 0 -189 76.5t-74 186.5q0 109 76 187t189 78q116 0 189.5 -75.5t73.5 -186.5q0 -110 -75.5 -188t-189.5 -78zM479 252q0 78 -48.5 129.5t-122.5 51.5q-75 0 -123.5 -52.5t-48.5 -131.5q0 -78 48.5 -130t121.5 -52q75 0 124 53t49 132zM476 774l-128 -167
h-82l-128 167v2h42l126 -97l126 97h44v-2z" />
    <glyph glyph-name="uni01D3" unicode="&#x1d3;" horiz-adv-x="789" 
d="M394 -12q-141 0 -222 85t-81 233v394h97v-396q0 -107 55 -167t153 -60t153 60t55 170v393h93v-394q0 -149 -80.5 -233.5t-222.5 -84.5zM565 908l-126 -139h-88l-126 139v2h51l118 -75l118 75h53v-2z" />
    <glyph glyph-name="uni01D4" unicode="&#x1d4;" horiz-adv-x="604" 
d="M520 0h-91v94q-43 -55 -85 -79.5t-93 -24.5q-79 0 -127.5 53t-48.5 142v315h91v-306q0 -58 29.5 -90.5t81.5 -32.5q38 0 72.5 20.5t79.5 69.5v339h91v-500zM467 770l-128 -167h-82l-128 167v2h42l126 -97l126 97h44v-2z" />
    <glyph glyph-name="uni01D5" unicode="&#x1d5;" horiz-adv-x="789" 
d="M394 -12q-141 0 -222 85t-81 233v394h97v-396q0 -107 55 -167t153 -60t153 60t55 170v393h93v-394q0 -149 -80.5 -233.5t-222.5 -84.5zM229 947v64h332v-64h-332zM499 896q27 0 45 -18t18 -45t-18 -45t-45 -18q-26 0 -44.5 18.5t-18.5 44.5t18.5 44.5t44.5 18.5zM291 896
q26 0 44.5 -18.5t18.5 -44.5t-18.5 -44.5t-44.5 -18.5q-27 0 -45 18t-18 45t18 45t45 18z" />
    <glyph glyph-name="uni01D6" unicode="&#x1d6;" horiz-adv-x="604" 
d="M520 0h-91v94q-43 -55 -85 -79.5t-93 -24.5q-79 0 -127.5 53t-48.5 142v315h91v-306q0 -58 29.5 -90.5t81.5 -32.5q38 0 72.5 20.5t79.5 69.5v339h91v-500zM464 790h-332v65h332v-65zM401 602q-26 0 -44 18t-18 44t18 44t44 18t44 -18t18 -44t-18 -44t-44 -18zM195 602
q-26 0 -44 18t-18 44t18 44t44 18t44 -18t18 -44t-18 -44t-44 -18z" />
    <glyph glyph-name="uni01D7" unicode="&#x1d7;" horiz-adv-x="789" 
d="M394 -12q-141 0 -222 85t-81 233v394h97v-396q0 -107 55 -167t153 -60t153 60t55 170v393h93v-394q0 -149 -80.5 -233.5t-222.5 -84.5zM408 922h-43l64 130h120v-2zM499 896q27 0 45 -18t18 -45t-18 -45t-45 -18q-26 0 -44.5 18.5t-18.5 44.5t18.5 44.5t44.5 18.5z
M291 896q26 0 44.5 -18.5t18.5 -44.5t-18.5 -44.5t-44.5 -18.5q-27 0 -45 18t-18 45t18 45t45 18z" />
    <glyph glyph-name="uni01D8" unicode="&#x1d8;" horiz-adv-x="604" 
d="M520 0h-91v94q-43 -55 -85 -79.5t-93 -24.5q-79 0 -127.5 53t-48.5 142v315h91v-306q0 -58 29.5 -90.5t81.5 -32.5q38 0 72.5 20.5t79.5 69.5v339h91v-500zM316 759h-43l65 140h120v-2zM401 602q-26 0 -44 18t-18 44t18 44t44 18t44 -18t18 -44t-18 -44t-44 -18zM195 602
q-26 0 -44 18t-18 44t18 44t44 18t44 -18t18 -44t-18 -44t-44 -18z" />
    <glyph glyph-name="uni01D9" unicode="&#x1d9;" horiz-adv-x="789" 
d="M394 -12q-141 0 -222 85t-81 233v394h97v-396q0 -107 55 -167t153 -60t153 60t55 170v393h93v-394q0 -149 -80.5 -233.5t-222.5 -84.5zM555 1050l-127 -128h-66l-127 128v2h47l112 -61l111 61h50v-2zM499 896q27 0 45 -18t18 -45t-18 -45t-45 -18q-26 0 -44.5 18.5
t-18.5 44.5t18.5 44.5t44.5 18.5zM291 896q26 0 44.5 -18.5t18.5 -44.5t-18.5 -44.5t-44.5 -18.5q-27 0 -45 18t-18 45t18 45t45 18z" />
    <glyph glyph-name="uni01DA" unicode="&#x1da;" horiz-adv-x="604" 
d="M520 0h-91v94q-43 -55 -85 -79.5t-93 -24.5q-79 0 -127.5 53t-48.5 142v315h91v-306q0 -58 29.5 -90.5t81.5 -32.5q38 0 72.5 20.5t79.5 69.5v339h91v-500zM462 897l-132 -135h-64l-132 135v2h48l115 -70l116 70h49v-2zM401 602q-26 0 -44 18t-18 44t18 44t44 18t44 -18
t18 -44t-18 -44t-44 -18zM195 602q-26 0 -44 18t-18 44t18 44t44 18t44 -18t18 -44t-18 -44t-44 -18z" />
    <glyph glyph-name="uni01DB" unicode="&#x1db;" horiz-adv-x="789" 
d="M394 -12q-141 0 -222 85t-81 233v394h97v-396q0 -107 55 -167t153 -60t153 60t55 170v393h93v-394q0 -149 -80.5 -233.5t-222.5 -84.5zM361 1052l64 -130h-43l-141 128v2h120zM291 770q-27 0 -45 18t-18 45t18 45t45 18q26 0 44.5 -18.5t18.5 -44.5t-18.5 -44.5
t-44.5 -18.5zM499 770q-26 0 -44.5 18.5t-18.5 44.5t18.5 44.5t44.5 18.5q27 0 45 -18t18 -45t-18 -45t-45 -18z" />
    <glyph glyph-name="uni01DC" unicode="&#x1dc;" horiz-adv-x="604" 
d="M520 0h-91v94q-43 -55 -85 -79.5t-93 -24.5q-79 0 -127.5 53t-48.5 142v315h91v-306q0 -58 29.5 -90.5t81.5 -32.5q38 0 72.5 20.5t79.5 69.5v339h91v-500zM258 899l65 -140h-43l-142 138v2h120zM401 602q-26 0 -44 18t-18 44t18 44t44 18t44 -18t18 -44t-18 -44t-44 -18
zM195 602q-26 0 -44 18t-18 44t18 44t44 18t44 -18t18 -44t-18 -44t-44 -18z" />
    <glyph glyph-name="Gcaron" unicode="&#x1e6;" horiz-adv-x="795" 
d="M702 364v-287q-69 -46 -138 -66.5t-149 -20.5q-160 0 -260 98.5t-100 259.5q0 158 108.5 260t275.5 102q68 0 127 -14.5t118 -45.5v-108q-66 40 -126.5 58.5t-121.5 18.5q-120 0 -201 -77.5t-81 -191.5q0 -121 74 -195.5t192 -74.5q54 0 99.5 11t87.5 35v150h-201v88h296
zM588 913l-126 -139h-88l-126 139v2h51l118 -75l118 75h53v-2z" />
    <glyph glyph-name="gcaron" unicode="&#x1e7;" horiz-adv-x="620" 
d="M137 252q0 -73 43 -118t112 -45q38 0 74.5 15.5t78.5 50.5v248q-33 14 -63 21t-61 7q-79 0 -131.5 -51t-52.5 -128zM277 -196q-51 0 -99 11t-97 35l-19 99l3 2q60 -34 111.5 -49t104.5 -15q74 0 119 43.5t45 117.5v45q-45 -44 -88 -63.5t-92 -19.5q-96 0 -158.5 67
t-62.5 170q0 114 79.5 187.5t195.5 73.5q34 0 67 -7t71 -23l67 22h12v-452q0 -114 -69.5 -179t-189.5 -65zM483 770l-128 -167h-82l-128 167v2h42l126 -97l126 97h44v-2z" />
    <glyph glyph-name="uni01EA" unicode="&#x1ea;" horiz-adv-x="841" 
d="M437 -199q-48 0 -76 19.5t-28 55.5q0 17 9.5 36t32.5 47l22 28q-147 8 -244.5 111.5t-97.5 250.5q0 154 106 259.5t261 105.5q154 0 259 -105t105 -258q0 -144 -94 -247t-237 -116l-28 -50q-9 -16 -12.5 -26t-3.5 -21q0 -21 19 -30.5t62 -9.5h23l-13 -42q-16 -4 -33 -6
t-32 -2zM418 624q-110 0 -187 -79.5t-77 -193.5q0 -116 77 -195.5t189 -79.5q110 0 188.5 79.5t78.5 193.5q0 115 -78.5 195t-190.5 80z" />
    <glyph glyph-name="uni01EB" unicode="&#x1eb;" horiz-adv-x="614" 
d="M323 -198q-48 0 -76 19.5t-28 55.5q0 17 9.5 36t32.5 47l22 27q-106 8 -173 83t-67 179q0 109 76 187t189 78q116 0 189.5 -75.5t73.5 -186.5q0 -101 -64.5 -176.5t-165.5 -87.5l-28 -49q-9 -16 -12.5 -26t-3.5 -21q0 -21 19 -30.5t62 -9.5h23l-13 -42q-16 -4 -33 -6
t-32 -2zM479 252q0 78 -48.5 129.5t-122.5 51.5q-75 0 -123.5 -52.5t-48.5 -131.5q0 -78 48.5 -130t121.5 -52q75 0 124 53t49 132z" />
    <glyph glyph-name="uni01F0" unicode="&#x1f0;" horiz-adv-x="270" 
d="M90 500h91v-527q0 -79 -40 -123t-111 -44q-14 0 -27.5 2t-24.5 6l-13 78q12 -4 24 -6t25 -2q37 0 56.5 22t19.5 65v529zM304 770l-128 -167h-82l-128 167v2h42l126 -97l126 97h44v-2z" />
    <glyph glyph-name="uni01F8" unicode="&#x1f8;" horiz-adv-x="823" 
d="M722 -5h-33l-497 566v-561h-92v700h89l442 -503v503h91v-705zM357 913l82 -141h-49l-166 139v2h133z" />
    <glyph glyph-name="uni01F9" unicode="&#x1f9;" horiz-adv-x="604" 
d="M328 429q-39 0 -73.5 -20.5t-79.5 -69.5v-339h-90v488l90 20v-102q43 55 85 79.5t93 24.5q79 0 127.5 -53t48.5 -142v-315h-90v306q0 58 -29.5 90.5t-81.5 32.5zM246 772l84 -169h-43l-163 167v2h122z" />
    <glyph glyph-name="Aringacute" unicode="&#x1fa;" horiz-adv-x="789" 
d="M479 754q0 33 -23.5 57t-56.5 24t-56.5 -24t-23.5 -57q0 -34 23.5 -58t56.5 -24t56.5 24t23.5 58zM248 265h291l-143 328zM758 0h-104l-78 180h-366l-81 -180h-100l301 651q-26 18 -40.5 45.5t-14.5 57.5q0 51 36.5 87t87.5 36q52 0 88 -36t36 -87q0 -30 -14.5 -57.5
t-40.5 -45.5zM415 919h-49l82 141h133v-2z" />
    <glyph glyph-name="aringacute" unicode="&#x1fb;" horiz-adv-x="567" 
d="M492 12l-90 -20v89q-56 -45 -105.5 -67t-96.5 -22q-66 0 -107 36.5t-41 97.5q0 86 86 127.5t264 43.5v2q0 62 -29.5 94.5t-85.5 32.5q-42 0 -86.5 -18t-91.5 -54l-3 1l20 101q40 27 83.5 40t91.5 13q92 0 141.5 -53t49.5 -152v-292zM143 130q0 -28 20 -44.5t55 -16.5
t80 17t104 53v100q-130 -8 -194.5 -34.5t-64.5 -74.5zM323 891h-41l61 108h99v-1zM295 600q-52 0 -88 36.5t-36 87.5t36 87.5t88 36.5t88 -36.5t36 -87.5t-36 -87.5t-88 -36.5zM295 806q-33 0 -56.5 -24t-23.5 -58t23.5 -58t56.5 -24t56.5 24t23.5 58t-23.5 58t-56.5 24z
" />
    <glyph glyph-name="AEacute" unicode="&#x1fc;" horiz-adv-x="994" 
d="M283 265h228v346zM908 0h-397v180h-284l-118 -180h-101l462 700h435l29 -87h-327v-214h273v-86h-273v-226h330zM652 772h-49l82 141h133v-2z" />
    <glyph glyph-name="aeacute" unicode="&#x1fd;" horiz-adv-x="913" 
d="M638 435q-60 0 -101.5 -43t-47.5 -110h289q-6 72 -43 112.5t-97 40.5zM143 130q0 -28 20.5 -44.5t54.5 -16.5q39 0 87 20t111 62q-7 20 -10.5 42t-4.5 46q-130 -8 -194 -34.5t-64 -74.5zM852 130l-31 -97q-44 -24 -82 -34t-83 -10q-69 0 -124 27t-88 77
q-66 -52 -123 -76.5t-112 -24.5q-71 0 -114 36t-43 98q0 86 86 127.5t263 43.5v4q0 61 -29 93t-85 32q-42 0 -86.5 -18t-91.5 -54l-3 1l20 101q40 27 83.5 40t91.5 13q57 0 97.5 -20.5t64.5 -60.5q33 41 79.5 63.5t99.5 22.5q104 0 165.5 -72.5t61.5 -186.5q0 -10 -1 -22
t-2 -18h-375q10 -68 56.5 -106t118.5 -38q43 0 91 16t93 45zM490 605h-43l84 169h122v-2z" />
    <glyph glyph-name="Oslashacute" unicode="&#x1fe;" horiz-adv-x="841" 
d="M423 628q-115 0 -194 -81t-79 -201q0 -52 16.5 -99t48.5 -84l356 422q-32 21 -69.5 32t-78.5 11zM418 72q115 0 194 81t79 201q0 53 -16.5 100t-48.5 83l-357 -422q33 -21 71 -32t78 -11zM786 351q0 -154 -106 -259.5t-260 -105.5q-57 0 -109.5 16t-98.5 47l-78 -92h-97
l119 140q-49 50 -75 115.5t-26 136.5q0 154 106 259.5t261 105.5q56 0 108.5 -16t98.5 -47l79 92h96l-120 -139q49 -51 75.5 -116t26.5 -137zM442 777h-49l82 141h133v-2z" />
    <glyph glyph-name="oslashacute" unicode="&#x1ff;" horiz-adv-x="614" 
d="M313 437q-80 0 -130.5 -54t-50.5 -138q0 -32 9.5 -62t27.5 -54l226 286q-19 11 -39.5 16.5t-42.5 5.5zM302 63q80 0 130 54.5t50 138.5q0 33 -9.5 62.5t-27.5 52.5l-225 -287q19 -10 40 -15.5t42 -5.5zM571 252q0 -110 -75.5 -188t-189.5 -78q-38 0 -72.5 9.5t-64.5 27.5
l-53 -67h-89l89 109q-35 37 -54 85t-19 99q0 109 76 187t189 78q37 0 71.5 -9t65.5 -27l53 66h89l-88 -109q34 -37 53 -84.5t19 -98.5zM327 607h-43l84 169h122v-2z" />
    <glyph glyph-name="uni0218" unicode="&#x218;" horiz-adv-x="554" 
d="M249 316q-103 46 -142 92.5t-39 113.5q0 86 58.5 138t154.5 52q52 0 96 -12.5t88 -40.5v-108h-2q-48 36 -94.5 53.5t-91.5 17.5q-53 0 -84.5 -24.5t-31.5 -66.5q0 -40 29 -67t122 -69q99 -45 140.5 -93t41.5 -115q0 -89 -63 -144t-164 -55q-56 0 -108 17.5t-97 51.5
l-23 130l2 1q55 -51 116 -80.5t115 -29.5q58 0 93 27.5t35 73.5q0 39 -30.5 68t-120.5 69zM347 -155q0 -26 -25.5 -50.5t-84.5 -53.5l-50 19v2q37 22 52.5 37t15.5 29q0 13 -14.5 24t-55.5 30v3l95 28q35 -14 51 -30t16 -38z" />
    <glyph glyph-name="uni0219" unicode="&#x219;" horiz-adv-x="504" 
d="M281 292q99 -23 137.5 -58t38.5 -96q0 -65 -56.5 -107t-144.5 -42q-53 0 -101 15t-95 46l-19 108l3 2q53 -43 110.5 -66.5t111.5 -23.5q45 0 74.5 17.5t29.5 45.5q0 30 -27.5 47t-108.5 36q-97 23 -135 57t-38 89q0 66 54.5 107.5t140.5 41.5q42 0 84 -12t80 -34v-94
l-3 -2q-46 30 -89.5 45.5t-81.5 15.5q-45 0 -71.5 -16t-26.5 -42q0 -28 27 -44.5t106 -35.5zM328 -152q0 -26 -25.5 -50.5t-84.5 -53.5l-50 19v2q37 22 52.5 37t15.5 29q0 13 -14.5 24t-55.5 30v3l95 28q35 -14 51 -30t16 -38z" />
    <glyph glyph-name="uni021A" unicode="&#x21a;" horiz-adv-x="715" 
d="M680 700v-87h-275v-613h-96v613h-274v87h645zM440 -150q0 -26 -25.5 -50.5t-84.5 -53.5l-50 19v2q37 22 52.5 37t15.5 29q0 13 -14.5 24t-55.5 30v3l95 28q35 -14 51 -30t16 -38z" />
    <glyph glyph-name="uni021B" unicode="&#x21b;" horiz-adv-x="447" 
d="M406 119l-20 -95q-22 -16 -52 -25.5t-62 -9.5q-71 0 -112 44t-41 123v267h-85v77h85v112l89 33v-145h196v-77h-196v-263q0 -45 21 -67.5t62 -22.5q28 0 56 13t56 38zM338 -150q0 -26 -25.5 -50.5t-84.5 -53.5l-50 19v2q37 22 52.5 37t15.5 29q0 13 -14.5 24t-55.5 30v3
l95 28q35 -14 51 -30t16 -38z" />
    <glyph glyph-name="uni0226" unicode="&#x226;" horiz-adv-x="789" 
d="M248 265h291l-143 329zM758 0h-104l-78 180h-366l-81 -180h-100l326 704h89zM397 896q27 0 45 -18t18 -45t-18 -45t-45 -18t-45 18t-18 45t18 45t45 18z" />
    <glyph glyph-name="uni0227" unicode="&#x227;" horiz-adv-x="567" 
d="M492 12l-90 -20v89q-56 -45 -105.5 -67t-96.5 -22q-66 0 -107 36.5t-41 97.5q0 86 86 127.5t264 43.5v2q0 62 -29.5 94.5t-85.5 32.5q-42 0 -86.5 -18t-91.5 -54l-3 1l20 101q40 27 83.5 40t91.5 13q92 0 141.5 -53t49.5 -152v-292zM143 130q0 -28 20 -44.5t55 -16.5
t80 17t104 53v100q-130 -8 -194.5 -34.5t-64.5 -74.5zM295 602q-26 0 -44 18t-18 44t18 44t44 18t44 -18t18 -44t-18 -44t-44 -18z" />
    <glyph glyph-name="uni022E" unicode="&#x22e;" horiz-adv-x="841" 
d="M420 -14q-155 0 -260 105t-105 258q0 154 106 259.5t261 105.5q154 0 259 -105t105 -258q0 -154 -106 -259.5t-260 -105.5zM418 624q-110 0 -187 -79.5t-77 -193.5q0 -116 77 -195.5t189 -79.5q110 0 188.5 79.5t78.5 193.5q0 115 -78.5 195t-190.5 80zM421 901
q27 0 45 -18t18 -45t-18 -45t-45 -18t-45 18t-18 45t18 45t45 18z" />
    <glyph glyph-name="uni022F" unicode="&#x22f;" horiz-adv-x="614" 
d="M306 -14q-115 0 -189 76.5t-74 186.5q0 109 76 187t189 78q116 0 189.5 -75.5t73.5 -186.5q0 -110 -75.5 -188t-189.5 -78zM479 252q0 78 -48.5 129.5t-122.5 51.5q-75 0 -123.5 -52.5t-48.5 -131.5q0 -78 48.5 -130t121.5 -52q75 0 124 53t49 132zM307 606q-26 0 -44 18
t-18 44t18 44t44 18t44 -18t18 -44t-18 -44t-44 -18z" />
    <glyph glyph-name="uni0232" unicode="&#x232;" horiz-adv-x="668" 
d="M382 313v-313h-96v313l-273 387h115l208 -302l208 302h111zM156 796v68h356v-68h-356z" />
    <glyph glyph-name="uni0233" unicode="&#x233;" horiz-adv-x="548" 
d="M122 -194q-23 0 -44 4.5t-41 14.5l-18 91l3 2q23 -14 43 -20.5t42 -6.5q36 0 61.5 21t44.5 65l22 51l-212 472h100l158 -369l148 369h98l-231 -554q-29 -70 -72.5 -105t-101.5 -35zM106 628v68h336v-68h-336z" />
    <glyph glyph-name="uni0237" unicode="&#x237;" horiz-adv-x="270" 
d="M90 500h91v-527q0 -79 -40 -123t-111 -44q-14 0 -27.5 2t-24.5 6l-13 78q12 -4 24 -6t25 -2q37 0 56.5 22t19.5 65v529z" />
    <glyph glyph-name="uni0259" unicode="&#x259;" horiz-adv-x="559" 
d="M516 251q0 -110 -70 -187.5t-174 -77.5t-166 72.5t-62 186.5q0 10 1 22t2 18h376q-10 68 -56.5 106t-118.5 38q-43 0 -91.5 -16t-93.5 -45l-2 2l31 97q44 24 82 34t84 10q118 0 188 -71t70 -189zM276 65q60 0 101.5 43t47.5 110h-290q6 -71 43.5 -112t97.5 -41z" />
    <glyph glyph-name="uni02B9" unicode="&#x2b9;" horiz-adv-x="250" 
d="M42 422l82 278h112l-158 -292z" />
    <glyph glyph-name="uni02BA" unicode="&#x2ba;" horiz-adv-x="444" 
d="M235 422l83 278h111l-157 -292zM42 422l82 278h112l-158 -292z" />
    <glyph glyph-name="uni02BB" unicode="&#x2bb;" horiz-adv-x="218" 
d="M120 543q0 -24 9.5 -46.5t47.5 -79.5h-96q-24 34 -34 59.5t-10 52.5q0 23 10.5 47.5t33.5 51.5q8 11 19 22.5t58 57.5l30 -22q-38 -52 -53 -84.5t-15 -58.5z" />
    <glyph glyph-name="uni02BC" unicode="&#x2bc;" horiz-adv-x="218" 
d="M98 574q0 24 -9.5 46.5t-47.5 79.5h95q25 -34 35 -59t10 -53q0 -23 -10.5 -47.5t-33.5 -51.5q-8 -10 -17.5 -20.5t-59.5 -60.5l-30 23q38 52 53 84.5t15 58.5z" />
    <glyph glyph-name="uni02BE" unicode="&#x2be;" horiz-adv-x="201" 
d="M173 676q0 -56 -38.5 -90t-99.5 -34v51q37 1 59.5 21t22.5 52t-22 51.5t-60 21.5v51q63 0 100.5 -33.5t37.5 -90.5z" />
    <glyph glyph-name="uni02BF" unicode="&#x2bf;" horiz-adv-x="201" 
d="M28 676q0 56 38 90t100 34v-51q-37 -1 -59.5 -21t-22.5 -52t22 -51.5t60 -21.5v-51q-63 0 -100.5 33.5t-37.5 90.5z" />
    <glyph glyph-name="circumflex" unicode="&#x2c6;" horiz-adv-x="500" 
d="M419 603h-42l-126 96l-126 -96h-44v2l128 167h82l128 -167v-2z" />
    <glyph glyph-name="caron" unicode="&#x2c7;" horiz-adv-x="500" 
d="M419 770l-128 -167h-82l-128 167v2h42l126 -97l126 97h44v-2z" />
    <glyph glyph-name="uni02C8" unicode="&#x2c8;" horiz-adv-x="184" 
d="M119 554h-54v244h54v-244z" />
    <glyph glyph-name="uni02CC" unicode="&#x2cc;" horiz-adv-x="184" 
d="M119 -191h-54v244h54v-244z" />
    <glyph glyph-name="uni02CD" unicode="&#x2cd;" horiz-adv-x="500" 
d="M82 -175v68h336v-68h-336z" />
    <glyph glyph-name="breve" unicode="&#x2d8;" horiz-adv-x="500" 
d="M250 597q-53 0 -95 34t-76 104l45 25q34 -46 63.5 -65.5t62.5 -19.5t62.5 19.5t63.5 65.5l45 -25q-34 -70 -76 -104t-95 -34z" />
    <glyph glyph-name="dotaccent" unicode="&#x2d9;" horiz-adv-x="500" 
d="M250 602q-26 0 -44 18t-18 44t18 44t44 18t44 -18t18 -44t-18 -44t-44 -18z" />
    <glyph glyph-name="ring" unicode="&#x2da;" horiz-adv-x="500" 
d="M250 600q-52 0 -88 36.5t-36 87.5t36 87.5t88 36.5t88 -36.5t36 -87.5t-36 -87.5t-88 -36.5zM250 806q-33 0 -56.5 -24t-23.5 -58t23.5 -58t56.5 -24t56.5 24t23.5 58t-23.5 58t-56.5 24z" />
    <glyph glyph-name="ogonek" unicode="&#x2db;" horiz-adv-x="500" 
d="M344 -144l-13 -42q-16 -4 -33 -6t-32 -2q-48 0 -76 19.5t-28 55.5q0 17 9.5 36t32.5 47l37 46h53l-38 -67q-9 -16 -12.5 -26t-3.5 -21q0 -21 19 -30.5t62 -9.5h23z" />
    <glyph glyph-name="tilde" unicode="&#x2dc;" horiz-adv-x="500" 
d="M266 711q30 -19 42.5 -25t19.5 -6q12 0 23 11t48 64l45 -28q-46 -79 -69.5 -102t-52.5 -23q-13 0 -31 8t-57 33q-30 19 -42.5 25t-19.5 6q-11 0 -21.5 -10t-49.5 -65l-45 27q46 79 69.5 102.5t52.5 23.5q13 0 31 -8t57 -33z" />
    <glyph glyph-name="hungarumlaut" unicode="&#x2dd;" horiz-adv-x="500" 
d="M352 603h-43l84 169h113v-2zM164 603h-43l84 169h113v-2z" />
    <glyph glyph-name="uni0300" unicode="&#x300;" 
d="M-61 772l84 -169h-43l-163 167v2h122z" />
    <glyph glyph-name="uni0301" unicode="&#x301;" 
d="M20 603h-43l84 169h122v-2z" />
    <glyph glyph-name="uni0302" unicode="&#x302;" 
d="M169 603h-42l-126 96l-126 -96h-44v2l128 167h82l128 -167v-2z" />
    <glyph glyph-name="uni0303" unicode="&#x303;" 
d="M16 711q30 -19 42.5 -25t19.5 -6q12 0 23 11t48 64l45 -28q-46 -79 -69.5 -102t-52.5 -23q-13 0 -31 8t-57 33q-30 19 -42.5 25t-19.5 6q-11 0 -21.5 -10t-49.5 -65l-45 27q46 79 69.5 102.5t52.5 23.5q13 0 31 -8t57 -33z" />
    <glyph glyph-name="uni0304" unicode="&#x304;" 
d="M-168 628v68h336v-68h-336z" />
    <glyph glyph-name="uni0306" unicode="&#x306;" 
d="M0 597q-53 0 -95 34t-76 104l45 25q34 -46 63.5 -65.5t62.5 -19.5t62.5 19.5t63.5 65.5l45 -25q-34 -70 -76 -104t-95 -34z" />
    <glyph glyph-name="uni0307" unicode="&#x307;" 
d="M0 602q-26 0 -44 18t-18 44t18 44t44 18t44 -18t18 -44t-18 -44t-44 -18z" />
    <glyph glyph-name="uni0308" unicode="&#x308;" 
d="M103 602q-26 0 -44 18t-18 44t18 44t44 18t44 -18t18 -44t-18 -44t-44 -18zM-103 602q-26 0 -44 18t-18 44t18 44t44 18t44 -18t18 -44t-18 -44t-44 -18z" />
    <glyph glyph-name="uni0309" unicode="&#x309;" 
d="M122 734q0 -31 -23.5 -60.5t-91.5 -77.5l-51 15v2q58 48 76.5 68.5t18.5 38.5q0 15 -11.5 24t-31.5 9q-26 0 -54 -12.5t-60 -37.5h-2v73q28 22 58.5 33t65.5 11q48 0 77 -23.5t29 -62.5z" />
    <glyph glyph-name="uni030A" unicode="&#x30a;" 
d="M0 600q-52 0 -88 36.5t-36 87.5t36 87.5t88 36.5t88 -36.5t36 -87.5t-36 -87.5t-88 -36.5zM0 806q-33 0 -56.5 -24t-23.5 -58t23.5 -58t56.5 -24t56.5 24t23.5 58t-23.5 58t-56.5 24z" />
    <glyph glyph-name="uni030B" unicode="&#x30b;" 
d="M102 603h-43l84 169h113v-2zM-86 603h-43l84 169h113v-2z" />
    <glyph glyph-name="uni030C" unicode="&#x30c;" 
d="M169 770l-128 -167h-82l-128 167v2h42l126 -97l126 97h44v-2z" />
    <glyph glyph-name="uni0312" unicode="&#x312;" 
d="M-83 672q0 27 24.5 53.5t85.5 59.5l50 -20v-2q-35 -22 -51.5 -39.5t-16.5 -32.5t14 -27t56 -34v-3l-95 -29q-37 17 -52 34t-15 40z" />
    <glyph glyph-name="uni0315" unicode="&#x315;" 
d="M43 550h-43q13 26 19.5 51t6.5 49q0 26 -6.5 50.5t-19.5 50.5h86q5 -17 7.5 -32.5t2.5 -30.5q0 -35 -13.5 -69.5t-39.5 -68.5z" />
    <glyph glyph-name="uni0323" unicode="&#x323;" 
d="M0 -210q-26 0 -44 18t-18 44t18 44t44 18t44 -18t18 -44t-18 -44t-44 -18z" />
    <glyph glyph-name="uni0324" unicode="&#x324;" 
d="M103 -210q-26 0 -44 18t-18 44t18 44t44 18t44 -18t18 -44t-18 -44t-44 -18zM-103 -210q-26 0 -44 18t-18 44t18 44t44 18t44 -18t18 -44t-18 -44t-44 -18z" />
    <glyph glyph-name="uni0326" unicode="&#x326;" 
d="M83 -150q0 -26 -25.5 -50.5t-84.5 -53.5l-50 19v2q37 22 52.5 37t15.5 29q0 13 -14.5 24t-55.5 30v3l95 28q35 -14 51 -30t16 -38z" />
    <glyph glyph-name="uni0327" unicode="&#x327;" 
d="M93 -116q0 -36 -32 -57.5t-85 -21.5q-16 0 -31.5 2t-30.5 6l-26 47l3 3q23 -8 40 -11t35 -3q27 0 42.5 8t15.5 23q0 14 -12.5 21t-37.5 7q-8 0 -16.5 -0.5t-29.5 -3.5l-4 4l57 97h56l-35 -55q45 -2 68 -18.5t23 -47.5z" />
    <glyph glyph-name="uni0328" unicode="&#x328;" 
d="M94 -144l-13 -42q-16 -4 -33 -6t-32 -2q-48 0 -76 19.5t-28 55.5q0 17 9.5 36t32.5 47l37 46h53l-38 -67q-9 -16 -12.5 -26t-3.5 -21q0 -21 19 -30.5t62 -9.5h23z" />
    <glyph glyph-name="uni032D" unicode="&#x32d;" 
d="M169 -255h-42l-126 96l-126 -96h-44v2l128 167h82l128 -167v-2z" />
    <glyph glyph-name="uni032E" unicode="&#x32e;" 
d="M0 -256q-53 0 -95 34t-76 104l45 25q34 -46 63.5 -65.5t62.5 -19.5t62.5 19.5t63.5 65.5l45 -25q-34 -70 -76 -104t-95 -34z" />
    <glyph glyph-name="uni0331" unicode="&#x331;" 
d="M-168 -179v68h336v-68h-336z" />
    <glyph glyph-name="uni0E3F" unicode="&#xe3f;" horiz-adv-x="659" 
d="M359 0v-163h-60v163h-199v700h199v123h60v-123q102 0 160.5 -48t58.5 -132q0 -51 -29 -91.5t-81 -64.5q64 -21 100 -64.5t36 -101.5q0 -90 -67 -144t-178 -54zM300 619h-111v-223h111v223zM487 514q0 50 -34.5 77.5t-95.5 27.5v-223q61 2 95.5 33.5t34.5 84.5zM189 318
v-237h111v237h-111zM514 199q0 56 -42.5 87.5t-114.5 31.5v-237h5q69 0 110.5 32.5t41.5 85.5z" />
    <glyph glyph-name="uni1E06" unicode="&#x1e06;" horiz-adv-x="617" 
d="M563 198q0 -90 -70 -144t-184 -54h-209v700h211q103 0 162 -48.5t59 -134.5q0 -50 -27.5 -89t-78.5 -64q66 -20 101.5 -62.5t35.5 -103.5zM305 617h-112v-219h102q63 0 102 31.5t39 81.5q0 49 -35.5 77.5t-95.5 28.5zM193 316v-233h121q70 0 111.5 32t41.5 85
q0 55 -41.5 85.5t-116.5 30.5h-116zM152 -179v68h336v-68h-336z" />
    <glyph glyph-name="uni1E07" unicode="&#x1e07;" horiz-adv-x="616" 
d="M571 264q0 -119 -79 -195.5t-196 -76.5q-34 0 -67 7t-68 22l-65 -21h-11v726l90 33v-332q44 44 86 63.5t90 19.5q93 0 156.5 -70.5t63.5 -175.5zM294 72q80 0 132.5 53t52.5 133q0 76 -43.5 123.5t-111.5 47.5q-39 0 -74 -15t-75 -48v-270q30 -12 59 -18t60 -6zM139 -179
v68h336v-68h-336z" />
    <glyph glyph-name="uni1E0C" unicode="&#x1e0c;" horiz-adv-x="783" 
d="M628 350q0 121 -81 191.5t-218 70.5h-132v-524h136q130 0 212.5 72.5t82.5 189.5zM331 0h-231v700h231q182 0 289 -94t107 -254q0 -157 -110.5 -254.5t-285.5 -97.5zM382 -210q-26 0 -44 18t-18 44t18 44t44 18t44 -18t18 -44t-18 -44t-44 -18z" />
    <glyph glyph-name="uni1E0D" unicode="&#x1e0d;" horiz-adv-x="620" 
d="M137 247q0 -77 45.5 -126.5t113.5 -49.5q39 0 74 15t75 48v252q-35 22 -67 32t-67 10q-75 0 -124.5 -51t-49.5 -130zM536 0h-91v72q-43 -43 -83.5 -62.5t-89.5 -19.5q-96 0 -162 71.5t-66 178.5q0 115 74 191.5t178 76.5q39 0 75.5 -12.5t73.5 -39.5v270l91 33v-759z
M307 -210q-26 0 -44 18t-18 44t18 44t44 18t44 -18t18 -44t-18 -44t-44 -18z" />
    <glyph glyph-name="uni1E0E" unicode="&#x1e0e;" horiz-adv-x="783" 
d="M628 350q0 121 -81 191.5t-218 70.5h-132v-524h136q130 0 212.5 72.5t82.5 189.5zM331 0h-231v700h231q182 0 289 -94t107 -254q0 -157 -110.5 -254.5t-285.5 -97.5zM214 -179v68h336v-68h-336z" />
    <glyph glyph-name="uni1E0F" unicode="&#x1e0f;" horiz-adv-x="620" 
d="M137 247q0 -77 45.5 -126.5t113.5 -49.5q39 0 74 15t75 48v252q-35 22 -67 32t-67 10q-75 0 -124.5 -51t-49.5 -130zM536 0h-91v72q-43 -43 -83.5 -62.5t-89.5 -19.5q-96 0 -162 71.5t-66 178.5q0 115 74 191.5t178 76.5q39 0 75.5 -12.5t73.5 -39.5v270l91 33v-759z
M139 -179v68h336v-68h-336z" />
    <glyph glyph-name="uni1E12" unicode="&#x1e12;" horiz-adv-x="783" 
d="M628 350q0 121 -81 191.5t-218 70.5h-132v-524h136q130 0 212.5 72.5t82.5 189.5zM331 0h-231v700h231q182 0 289 -94t107 -254q0 -157 -110.5 -254.5t-285.5 -97.5zM551 -255h-42l-126 96l-126 -96h-44v2l128 167h82l128 -167v-2z" />
    <glyph glyph-name="uni1E13" unicode="&#x1e13;" horiz-adv-x="620" 
d="M137 247q0 -77 45.5 -126.5t113.5 -49.5q39 0 74 15t75 48v252q-35 22 -67 32t-67 10q-75 0 -124.5 -51t-49.5 -130zM536 0h-91v72q-43 -43 -83.5 -62.5t-89.5 -19.5q-96 0 -162 71.5t-66 178.5q0 115 74 191.5t178 76.5q39 0 75.5 -12.5t73.5 -39.5v270l91 33v-759z
M476 -255h-42l-126 96l-126 -96h-44v2l128 167h82l128 -167v-2z" />
    <glyph glyph-name="uni1E20" unicode="&#x1e20;" horiz-adv-x="795" 
d="M702 364v-287q-69 -46 -138 -66.5t-149 -20.5q-160 0 -260 98.5t-100 259.5q0 158 108.5 260t275.5 102q68 0 127 -14.5t118 -45.5v-108q-66 40 -126.5 58.5t-121.5 18.5q-120 0 -201 -77.5t-81 -191.5q0 -121 74 -195.5t192 -74.5q54 0 99.5 11t87.5 35v150h-201v88h296
zM240 801v68h356v-68h-356z" />
    <glyph glyph-name="uni1E21" unicode="&#x1e21;" horiz-adv-x="620" 
d="M137 252q0 -73 43 -118t112 -45q38 0 74.5 15.5t78.5 50.5v248q-33 14 -63 21t-61 7q-79 0 -131.5 -51t-52.5 -128zM277 -196q-51 0 -99 11t-97 35l-19 99l3 2q60 -34 111.5 -49t104.5 -15q74 0 119 43.5t45 117.5v45q-45 -44 -88 -63.5t-92 -19.5q-96 0 -158.5 67
t-62.5 170q0 114 79.5 187.5t195.5 73.5q34 0 67 -7t71 -23l67 22h12v-452q0 -114 -69.5 -179t-189.5 -65zM146 628v68h336v-68h-336z" />
    <glyph glyph-name="uni1E24" unicode="&#x1e24;" horiz-adv-x="816" 
d="M715 0h-96v313h-422v-313h-97v700h97v-298h422v298h96v-700zM408 -206q-26 0 -44 18t-18 44t18 44t44 18t44 -18t18 -44t-18 -44t-44 -18z" />
    <glyph glyph-name="uni1E25" unicode="&#x1e25;" horiz-adv-x="604" 
d="M328 429q-39 0 -73.5 -20.5t-79.5 -69.5v-339h-90v726l90 33v-353q43 55 85 79.5t93 24.5q79 0 127.5 -53t48.5 -142v-315h-90v306q0 58 -29.5 90.5t-81.5 32.5zM307 -204q-26 0 -44 18t-18 44t18 44t44 18t44 -18t18 -44t-18 -44t-44 -18z" />
    <glyph glyph-name="uni1E28" unicode="&#x1e28;" horiz-adv-x="816" 
d="M239 -116q0 -36 -32 -57.5t-85 -21.5q-16 0 -31.5 2t-30.5 6l-26 47l3 3q23 -8 40 -11t35 -3q27 0 42.5 8t15.5 23q0 14 -12.5 21t-37.5 7q-8 0 -16.5 -0.5t-29.5 -3.5l-4 4l54 92h-24v700h97v-298h422v298h96v-700h-96v313h-422v-313h-17l-32 -50q45 -2 68 -18.5
t23 -47.5z" />
    <glyph glyph-name="uni1E29" unicode="&#x1e29;" horiz-adv-x="604" 
d="M220 -116q0 -36 -32 -57.5t-85 -21.5q-16 0 -31.5 2t-30.5 6l-26 47l3 3q23 -8 40 -11t35 -3q27 0 42.5 8t15.5 23q0 14 -12.5 21t-37.5 7q-8 0 -16.5 -0.5t-29.5 -3.5l-4 4l54 92h-20v726l90 33v-353q43 55 85 79.5t93 24.5q79 0 127.5 -53t48.5 -142v-315h-90v306
q0 58 -29.5 90.5t-81.5 32.5q-39 0 -73.5 -20.5t-79.5 -69.5v-339h-14l-32 -50q45 -2 68 -18.5t23 -47.5z" />
    <glyph glyph-name="uni1E2A" unicode="&#x1e2a;" horiz-adv-x="816" 
d="M715 0h-96v313h-422v-313h-97v700h97v-298h422v298h96v-700zM408 -256q-53 0 -95 34t-76 104l45 25q34 -46 63.5 -65.5t62.5 -19.5t62.5 19.5t63.5 65.5l45 -25q-34 -70 -76 -104t-95 -34z" />
    <glyph glyph-name="uni1E2B" unicode="&#x1e2b;" horiz-adv-x="604" 
d="M328 429q-39 0 -73.5 -20.5t-79.5 -69.5v-339h-90v726l90 33v-353q43 55 85 79.5t93 24.5q79 0 127.5 -53t48.5 -142v-315h-90v306q0 58 -29.5 90.5t-81.5 32.5zM307 -256q-53 0 -95 34t-76 104l45 25q34 -46 63.5 -65.5t62.5 -19.5t62.5 19.5t63.5 65.5l45 -25
q-34 -70 -76 -104t-95 -34z" />
    <glyph glyph-name="uni1E32" unicode="&#x1e32;" horiz-adv-x="690" 
d="M679 0h-127l-332 316h-23v-316h-97v700h97v-301h24l329 301h125v-3l-377 -337l381 -357v-3zM372 -210q-26 0 -44 18t-18 44t18 44t44 18t44 -18t18 -44t-18 -44t-44 -18z" />
    <glyph glyph-name="uni1E33" unicode="&#x1e33;" horiz-adv-x="549" 
d="M542 0h-118l-220 220h-29v-220h-90v726l90 33v-471h28l209 212h113v-3l-244 -240l261 -254v-3zM301 -210q-26 0 -44 18t-18 44t18 44t44 18t44 -18t18 -44t-18 -44t-44 -18z" />
    <glyph glyph-name="uni1E34" unicode="&#x1e34;" horiz-adv-x="690" 
d="M679 0h-127l-332 316h-23v-316h-97v700h97v-301h24l329 301h125v-3l-377 -337l381 -357v-3zM204 -179v68h336v-68h-336z" />
    <glyph glyph-name="uni1E35" unicode="&#x1e35;" horiz-adv-x="549" 
d="M542 0h-118l-220 220h-29v-220h-90v726l90 33v-471h28l209 212h113v-3l-244 -240l261 -254v-3zM133 -179v68h336v-68h-336z" />
    <glyph glyph-name="uni1E36" unicode="&#x1e36;" horiz-adv-x="537" 
d="M498 0h-398v700h97v-613h301v-87zM299 -210q-26 0 -44 18t-18 44t18 44t44 18t44 -18t18 -44t-18 -44t-44 -18z" />
    <glyph glyph-name="uni1E37" unicode="&#x1e37;" horiz-adv-x="270" 
d="M180 0h-90v726l90 33v-759zM135 -210q-26 0 -44 18t-18 44t18 44t44 18t44 -18t18 -44t-18 -44t-44 -18z" />
    <glyph glyph-name="uni1E38" unicode="&#x1e38;" horiz-adv-x="537" 
d="M498 0h-398v700h97v-613h301v-87zM16 796v68h276v-68h-276zM299 -210q-26 0 -44 18t-18 44t18 44t44 18t44 -18t18 -44t-18 -44t-44 -18z" />
    <glyph glyph-name="uni1E39" unicode="&#x1e39;" horiz-adv-x="270" 
d="M180 0h-90v726l90 33v-759zM-3 848v68h276v-68h-276zM135 -210q-26 0 -44 18t-18 44t18 44t44 18t44 -18t18 -44t-18 -44t-44 -18z" />
    <glyph glyph-name="uni1E3A" unicode="&#x1e3a;" horiz-adv-x="537" 
d="M498 0h-398v700h97v-613h301v-87zM131 -179v68h336v-68h-336z" />
    <glyph glyph-name="uni1E3B" unicode="&#x1e3b;" horiz-adv-x="270" 
d="M180 0h-90v726l90 33v-759zM-3 -179v68h276v-68h-276z" />
    <glyph glyph-name="uni1E3C" unicode="&#x1e3c;" horiz-adv-x="537" 
d="M498 0h-398v700h97v-613h301v-87zM468 -255h-42l-126 96l-126 -96h-44v2l128 167h82l128 -167v-2z" />
    <glyph glyph-name="uni1E3D" unicode="&#x1e3d;" horiz-adv-x="270" 
d="M180 0h-90v726l90 33v-759zM304 -255h-42l-126 96l-126 -96h-44v2l128 167h82l128 -167v-2z" />
    <glyph glyph-name="uni1E3E" unicode="&#x1e3e;" horiz-adv-x="1029" 
d="M520 -11h-15l-314 614v-603h-91v700h143l270 -538l269 538h146v-700h-94v608zM535 772h-49l82 141h133v-2z" />
    <glyph glyph-name="uni1E3F" unicode="&#x1e3f;" horiz-adv-x="921" 
d="M315 429q-35 0 -66.5 -19.5t-73.5 -66.5v-343h-90v488l90 20v-98q40 53 80 76.5t87 23.5q55 0 95.5 -29t59.5 -82q44 59 86 85t94 26q76 0 122.5 -53t46.5 -142v-315h-91v306q0 58 -28 90.5t-77 32.5q-35 0 -67.5 -20t-73.5 -67q1 -4 1 -9.5v-17.5v-315h-90v306
q0 58 -28 90.5t-77 32.5zM485 603h-43l84 169h122v-2z" />
    <glyph glyph-name="uni1E40" unicode="&#x1e40;" horiz-adv-x="1029" 
d="M520 -11h-15l-314 614v-603h-91v700h143l270 -538l269 538h146v-700h-94v608zM514 896q27 0 45 -18t18 -45t-18 -45t-45 -18t-45 18t-18 45t18 45t45 18z" />
    <glyph glyph-name="uni1E41" unicode="&#x1e41;" horiz-adv-x="921" 
d="M315 429q-35 0 -66.5 -19.5t-73.5 -66.5v-343h-90v488l90 20v-98q40 53 80 76.5t87 23.5q55 0 95.5 -29t59.5 -82q44 59 86 85t94 26q76 0 122.5 -53t46.5 -142v-315h-91v306q0 58 -28 90.5t-77 32.5q-35 0 -67.5 -20t-73.5 -67q1 -4 1 -9.5v-17.5v-315h-90v306
q0 58 -28 90.5t-77 32.5zM465 602q-26 0 -44 18t-18 44t18 44t44 18t44 -18t18 -44t-18 -44t-44 -18z" />
    <glyph glyph-name="uni1E42" unicode="&#x1e42;" horiz-adv-x="1029" 
d="M520 -11h-15l-314 614v-603h-91v700h143l270 -538l269 538h146v-700h-94v608zM513 -210q-26 0 -44 18t-18 44t18 44t44 18t44 -18t18 -44t-18 -44t-44 -18z" />
    <glyph glyph-name="uni1E43" unicode="&#x1e43;" horiz-adv-x="921" 
d="M315 429q-35 0 -66.5 -19.5t-73.5 -66.5v-343h-90v488l90 20v-98q40 53 80 76.5t87 23.5q55 0 95.5 -29t59.5 -82q44 59 86 85t94 26q76 0 122.5 -53t46.5 -142v-315h-91v306q0 58 -28 90.5t-77 32.5q-35 0 -67.5 -20t-73.5 -67q1 -4 1 -9.5v-17.5v-315h-90v306
q0 58 -28 90.5t-77 32.5zM465 -210q-26 0 -44 18t-18 44t18 44t44 18t44 -18t18 -44t-18 -44t-44 -18z" />
    <glyph glyph-name="uni1E44" unicode="&#x1e44;" horiz-adv-x="823" 
d="M722 -5h-33l-497 566v-561h-92v700h89l442 -503v503h91v-705zM411 896q27 0 45 -18t18 -45t-18 -45t-45 -18t-45 18t-18 45t18 45t45 18z" />
    <glyph glyph-name="uni1E45" unicode="&#x1e45;" horiz-adv-x="604" 
d="M328 429q-39 0 -73.5 -20.5t-79.5 -69.5v-339h-90v488l90 20v-102q43 55 85 79.5t93 24.5q79 0 127.5 -53t48.5 -142v-315h-90v306q0 58 -29.5 90.5t-81.5 32.5zM307 602q-26 0 -44 18t-18 44t18 44t44 18t44 -18t18 -44t-18 -44t-44 -18z" />
    <glyph glyph-name="uni1E46" unicode="&#x1e46;" horiz-adv-x="823" 
d="M722 -5h-33l-497 566v-561h-92v700h89l442 -503v503h91v-705zM421 -206q-26 0 -44 18t-18 44t18 44t44 18t44 -18t18 -44t-18 -44t-44 -18z" />
    <glyph glyph-name="uni1E47" unicode="&#x1e47;" horiz-adv-x="604" 
d="M328 429q-39 0 -73.5 -20.5t-79.5 -69.5v-339h-90v488l90 20v-102q43 55 85 79.5t93 24.5q79 0 127.5 -53t48.5 -142v-315h-90v306q0 58 -29.5 90.5t-81.5 32.5zM307 -204q-26 0 -44 18t-18 44t18 44t44 18t44 -18t18 -44t-18 -44t-44 -18z" />
    <glyph glyph-name="uni1E48" unicode="&#x1e48;" horiz-adv-x="823" 
d="M722 -5h-33l-497 566v-561h-92v700h89l442 -503v503h91v-705zM253 -179v68h336v-68h-336z" />
    <glyph glyph-name="uni1E49" unicode="&#x1e49;" horiz-adv-x="604" 
d="M328 429q-39 0 -73.5 -20.5t-79.5 -69.5v-339h-90v488l90 20v-102q43 55 85 79.5t93 24.5q79 0 127.5 -53t48.5 -142v-315h-90v306q0 58 -29.5 90.5t-81.5 32.5zM139 -179v68h336v-68h-336z" />
    <glyph glyph-name="uni1E4A" unicode="&#x1e4a;" horiz-adv-x="823" 
d="M722 -5h-33l-497 566v-561h-92v700h89l442 -503v503h91v-705zM590 -255h-42l-126 96l-126 -96h-44v2l128 167h82l128 -167v-2z" />
    <glyph glyph-name="uni1E4B" unicode="&#x1e4b;" horiz-adv-x="604" 
d="M328 429q-39 0 -73.5 -20.5t-79.5 -69.5v-339h-90v488l90 20v-102q43 55 85 79.5t93 24.5q79 0 127.5 -53t48.5 -142v-315h-90v306q0 58 -29.5 90.5t-81.5 32.5zM476 -255h-42l-126 96l-126 -96h-44v2l128 167h82l128 -167v-2z" />
    <glyph glyph-name="uni1E58" unicode="&#x1e58;" horiz-adv-x="635" 
d="M301 614h-106v-249h101q64 0 104.5 36t40.5 92q0 54 -39 87.5t-101 33.5zM640 0h-121l-246 280h-76v-280h-97v700h204q106 0 170.5 -56t64.5 -151q0 -71 -44 -124t-119 -73zM305 896q27 0 45 -18t18 -45t-18 -45t-45 -18t-45 18t-18 45t18 45t45 18z" />
    <glyph glyph-name="uni1E59" unicode="&#x1e59;" horiz-adv-x="415" 
d="M175 320v-320h-90v488l90 20v-127q62 77 97.5 102t76.5 25q9 0 15.5 -1t16.5 -3l7 -95q-7 2 -13.5 2.5t-13.5 0.5q-44 0 -86.5 -21t-99.5 -71zM231 602q-26 0 -44 18t-18 44t18 44t44 18t44 -18t18 -44t-18 -44t-44 -18z" />
    <glyph glyph-name="uni1E5A" unicode="&#x1e5a;" horiz-adv-x="635" 
d="M301 614h-106v-249h101q64 0 104.5 36t40.5 92q0 54 -39 87.5t-101 33.5zM640 0h-121l-246 280h-76v-280h-97v700h204q106 0 170.5 -56t64.5 -151q0 -71 -44 -124t-119 -73zM348 -210q-26 0 -44 18t-18 44t18 44t44 18t44 -18t18 -44t-18 -44t-44 -18z" />
    <glyph glyph-name="uni1E5B" unicode="&#x1e5b;" horiz-adv-x="415" 
d="M175 320v-320h-90v488l90 20v-127q62 77 97.5 102t76.5 25q9 0 15.5 -1t16.5 -3l7 -95q-7 2 -13.5 2.5t-13.5 0.5q-44 0 -86.5 -21t-99.5 -71zM130 -210q-26 0 -44 18t-18 44t18 44t44 18t44 -18t18 -44t-18 -44t-44 -18z" />
    <glyph glyph-name="uni1E5C" unicode="&#x1e5c;" horiz-adv-x="635" 
d="M301 614h-106v-249h101q64 0 104.5 36t40.5 92q0 54 -39 87.5t-101 33.5zM640 0h-121l-246 280h-76v-280h-97v700h204q106 0 170.5 -56t64.5 -151q0 -71 -44 -124t-119 -73zM127 796v68h356v-68h-356zM348 -210q-26 0 -44 18t-18 44t18 44t44 18t44 -18t18 -44t-18 -44
t-44 -18z" />
    <glyph glyph-name="uni1E5D" unicode="&#x1e5d;" horiz-adv-x="415" 
d="M175 320v-320h-90v488l90 20v-127q62 77 97.5 102t76.5 25q9 0 15.5 -1t16.5 -3l7 -95q-7 2 -13.5 2.5t-13.5 0.5q-44 0 -86.5 -21t-99.5 -71zM93 628v68h276v-68h-276zM130 -210q-26 0 -44 18t-18 44t18 44t44 18t44 -18t18 -44t-18 -44t-44 -18z" />
    <glyph glyph-name="uni1E5E" unicode="&#x1e5e;" horiz-adv-x="635" 
d="M301 614h-106v-249h101q64 0 104.5 36t40.5 92q0 54 -39 87.5t-101 33.5zM640 0h-121l-246 280h-76v-280h-97v700h204q106 0 170.5 -56t64.5 -151q0 -71 -44 -124t-119 -73zM180 -179v68h336v-68h-336z" />
    <glyph glyph-name="uni1E5F" unicode="&#x1e5f;" horiz-adv-x="415" 
d="M175 320v-320h-90v488l90 20v-127q62 77 97.5 102t76.5 25q9 0 15.5 -1t16.5 -3l7 -95q-7 2 -13.5 2.5t-13.5 0.5q-44 0 -86.5 -21t-99.5 -71zM-8 -179v68h276v-68h-276z" />
    <glyph glyph-name="uni1E62" unicode="&#x1e62;" horiz-adv-x="554" 
d="M249 316q-103 46 -142 92.5t-39 113.5q0 86 58.5 138t154.5 52q52 0 96 -12.5t88 -40.5v-108h-2q-48 36 -94.5 53.5t-91.5 17.5q-53 0 -84.5 -24.5t-31.5 -66.5q0 -40 29 -67t122 -69q99 -45 140.5 -93t41.5 -115q0 -89 -63 -144t-164 -55q-56 0 -108 17.5t-97 51.5
l-23 130l2 1q55 -51 116 -80.5t115 -29.5q58 0 93 27.5t35 73.5q0 39 -30.5 68t-120.5 69zM264 -215q-26 0 -44 18t-18 44t18 44t44 18t44 -18t18 -44t-18 -44t-44 -18z" />
    <glyph glyph-name="uni1E63" unicode="&#x1e63;" horiz-adv-x="504" 
d="M281 292q99 -23 137.5 -58t38.5 -96q0 -65 -56.5 -107t-144.5 -42q-53 0 -101 15t-95 46l-19 108l3 2q53 -43 110.5 -66.5t111.5 -23.5q45 0 74.5 17.5t29.5 45.5q0 30 -27.5 47t-108.5 36q-97 23 -135 57t-38 89q0 66 54.5 107.5t140.5 41.5q42 0 84 -12t80 -34v-94
l-3 -2q-46 30 -89.5 45.5t-81.5 15.5q-45 0 -71.5 -16t-26.5 -42q0 -28 27 -44.5t106 -35.5zM245 -212q-26 0 -44 18t-18 44t18 44t44 18t44 -18t18 -44t-18 -44t-44 -18z" />
    <glyph glyph-name="uni1E6C" unicode="&#x1e6c;" horiz-adv-x="715" 
d="M680 700v-87h-275v-613h-96v613h-274v87h645zM357 -210q-26 0 -44 18t-18 44t18 44t44 18t44 -18t18 -44t-18 -44t-44 -18z" />
    <glyph glyph-name="uni1E6D" unicode="&#x1e6d;" horiz-adv-x="447" 
d="M406 119l-20 -95q-22 -16 -52 -25.5t-62 -9.5q-71 0 -112 44t-41 123v267h-85v77h85v112l89 33v-145h196v-77h-196v-263q0 -45 21 -67.5t62 -22.5q28 0 56 13t56 38zM255 -210q-26 0 -44 18t-18 44t18 44t44 18t44 -18t18 -44t-18 -44t-44 -18z" />
    <glyph glyph-name="uni1E6E" unicode="&#x1e6e;" horiz-adv-x="715" 
d="M680 700v-87h-275v-613h-96v613h-274v87h645zM189 -179v68h336v-68h-336z" />
    <glyph glyph-name="uni1E6F" unicode="&#x1e6f;" horiz-adv-x="447" 
d="M406 119l-20 -95q-22 -16 -52 -25.5t-62 -9.5q-71 0 -112 44t-41 123v267h-85v77h85v112l89 33v-145h196v-77h-196v-263q0 -45 21 -67.5t62 -22.5q28 0 56 13t56 38zM117 -179v68h276v-68h-276z" />
    <glyph glyph-name="uni1E70" unicode="&#x1e70;" horiz-adv-x="715" 
d="M680 700v-87h-275v-613h-96v613h-274v87h645zM526 -255h-42l-126 96l-126 -96h-44v2l128 167h82l128 -167v-2z" />
    <glyph glyph-name="uni1E71" unicode="&#x1e71;" horiz-adv-x="447" 
d="M406 119l-20 -95q-22 -16 -52 -25.5t-62 -9.5q-71 0 -112 44t-41 123v267h-85v77h85v112l89 33v-145h196v-77h-196v-263q0 -45 21 -67.5t62 -22.5q28 0 56 13t56 38zM424 -255h-42l-126 96l-126 -96h-44v2l128 167h82l128 -167v-2z" />
    <glyph glyph-name="uni1E7E" unicode="&#x1e7e;" horiz-adv-x="771" 
d="M392 -16h-22l-339 716h108l246 -542l253 542h104zM382 -219q-26 0 -44 18t-18 44t18 44t44 18t44 -18t18 -44t-18 -44t-44 -18z" />
    <glyph glyph-name="uni1E7F" unicode="&#x1e7f;" horiz-adv-x="569" 
d="M286 -14h-19l-246 514h99l160 -353l172 353h98zM278 -210q-26 0 -44 18t-18 44t18 44t44 18t44 -18t18 -44t-18 -44t-44 -18z" />
    <glyph glyph-name="Wgrave" unicode="&#x1e80;" horiz-adv-x="1176" 
d="M371 -4h-93l-241 704h105l188 -578l252 586h17l244 -586l196 578h102l-252 -704h-94l-208 509zM537 913l82 -141h-49l-166 139v2h133z" />
    <glyph glyph-name="wgrave" unicode="&#x1e81;" horiz-adv-x="879" 
d="M284 -7h-76l-182 507h97l129 -387l182 393h17l169 -393l142 387h92l-196 -507h-75l-145 332zM381 772l84 -169h-43l-163 167v2h122z" />
    <glyph glyph-name="Wacute" unicode="&#x1e82;" horiz-adv-x="1176" 
d="M371 -4h-93l-241 704h105l188 -578l252 586h17l244 -586l196 578h102l-252 -704h-94l-208 509zM612 772h-49l82 141h133v-2z" />
    <glyph glyph-name="wacute" unicode="&#x1e83;" horiz-adv-x="879" 
d="M284 -7h-76l-182 507h97l129 -387l182 393h17l169 -393l142 387h92l-196 -507h-75l-145 332zM462 603h-43l84 169h122v-2z" />
    <glyph glyph-name="Wdieresis" unicode="&#x1e84;" horiz-adv-x="1176" 
d="M371 -4h-93l-241 704h105l188 -578l252 586h17l244 -586l196 578h102l-252 -704h-94l-208 509zM695 896q27 0 45 -18t18 -45t-18 -45t-45 -18q-26 0 -44.5 18.5t-18.5 44.5t18.5 44.5t44.5 18.5zM487 896q26 0 44.5 -18.5t18.5 -44.5t-18.5 -44.5t-44.5 -18.5
q-27 0 -45 18t-18 45t18 45t45 18z" />
    <glyph glyph-name="wdieresis" unicode="&#x1e85;" horiz-adv-x="879" 
d="M284 -7h-76l-182 507h97l129 -387l182 393h17l169 -393l142 387h92l-196 -507h-75l-145 332zM545 602q-26 0 -44 18t-18 44t18 44t44 18t44 -18t18 -44t-18 -44t-44 -18zM339 602q-26 0 -44 18t-18 44t18 44t44 18t44 -18t18 -44t-18 -44t-44 -18z" />
    <glyph glyph-name="uni1E8C" unicode="&#x1e8c;" horiz-adv-x="739" 
d="M704 0h-114l-223 289l-220 -289h-112l276 355l-268 345h114l214 -277l214 277h111l-269 -345zM474 896q27 0 45 -18t18 -45t-18 -45t-45 -18q-26 0 -44.5 18.5t-18.5 44.5t18.5 44.5t44.5 18.5zM266 896q26 0 44.5 -18.5t18.5 -44.5t-18.5 -44.5t-44.5 -18.5
q-27 0 -45 18t-18 45t18 45t45 18z" />
    <glyph glyph-name="uni1E8D" unicode="&#x1e8d;" horiz-adv-x="558" 
d="M529 0h-106l-145 194l-147 -194h-103l199 256l-188 244h107l134 -179l135 179h103l-187 -242zM382 602q-26 0 -44 18t-18 44t18 44t44 18t44 -18t18 -44t-18 -44t-44 -18zM176 602q-26 0 -44 18t-18 44t18 44t44 18t44 -18t18 -44t-18 -44t-44 -18z" />
    <glyph glyph-name="uni1E8E" unicode="&#x1e8e;" horiz-adv-x="668" 
d="M382 313v-313h-96v313l-273 387h115l208 -302l208 302h111zM334 896q27 0 45 -18t18 -45t-18 -45t-45 -18t-45 18t-18 45t18 45t45 18z" />
    <glyph glyph-name="uni1E8F" unicode="&#x1e8f;" horiz-adv-x="548" 
d="M122 -194q-23 0 -44 4.5t-41 14.5l-18 91l3 2q23 -14 43 -20.5t42 -6.5q36 0 61.5 21t44.5 65l22 51l-212 472h100l158 -369l148 369h98l-231 -554q-29 -70 -72.5 -105t-101.5 -35zM274 602q-26 0 -44 18t-18 44t18 44t44 18t44 -18t18 -44t-18 -44t-44 -18z" />
    <glyph glyph-name="uni1E90" unicode="&#x1e90;" horiz-adv-x="698" 
d="M660 87l-47 -87h-567l-7 14l448 599h-416v87h574l7 -14l-449 -599h457zM521 772h-51l-118 75l-118 -75h-53v1l126 140h88l126 -140v-1z" />
    <glyph glyph-name="uni1E91" unicode="&#x1e91;" horiz-adv-x="535" 
d="M498 78l-28 -78h-438l-5 15l314 407h-279v78h428l4 -14l-314 -408h318zM442 603h-42l-126 96l-126 -96h-44v2l128 167h82l128 -167v-2z" />
    <glyph glyph-name="uni1E92" unicode="&#x1e92;" horiz-adv-x="698" 
d="M660 87l-47 -87h-567l-7 14l448 599h-416v87h574l7 -14l-449 -599h457zM350 -210q-26 0 -44 18t-18 44t18 44t44 18t44 -18t18 -44t-18 -44t-44 -18z" />
    <glyph glyph-name="uni1E93" unicode="&#x1e93;" horiz-adv-x="535" 
d="M498 78l-28 -78h-438l-5 15l314 407h-279v78h428l4 -14l-314 -408h318zM263 -210q-26 0 -44 18t-18 44t18 44t44 18t44 -18t18 -44t-18 -44t-44 -18z" />
    <glyph glyph-name="uni1E94" unicode="&#x1e94;" horiz-adv-x="698" 
d="M660 87l-47 -87h-567l-7 14l448 599h-416v87h574l7 -14l-449 -599h457zM182 -179v68h336v-68h-336z" />
    <glyph glyph-name="uni1E95" unicode="&#x1e95;" horiz-adv-x="535" 
d="M498 78l-28 -78h-438l-5 15l314 407h-279v78h428l4 -14l-314 -408h318zM95 -179v68h336v-68h-336z" />
    <glyph glyph-name="uni1E96" unicode="&#x1e96;" horiz-adv-x="604" 
d="M328 429q-39 0 -73.5 -20.5t-79.5 -69.5v-339h-90v726l90 33v-353q43 55 85 79.5t93 24.5q79 0 127.5 -53t48.5 -142v-315h-90v306q0 58 -29.5 90.5t-81.5 32.5zM139 -179v68h336v-68h-336z" />
    <glyph glyph-name="uni1E9E" unicode="&#x1e9e;" horiz-adv-x="703" 
d="M655 176q0 -82 -58 -135t-149 -53q-38 0 -67 6t-69 22l-21 110l2 1q46 -27 80 -38t74 -11q49 0 81 28t32 71q0 51 -46.5 82.5t-191.5 75.5l-4 15l178 239q-28 17 -63 26t-71 9q-82 0 -128 -51t-46 -143v-430h-97v428q0 134 73 210t203 76q70 0 137 -26.5t112 -70.5v-14
l-164 -220q116 -39 159.5 -85t43.5 -122z" />
    <glyph glyph-name="uni1EA0" unicode="&#x1ea0;" horiz-adv-x="789" 
d="M248 265h291l-143 329zM758 0h-104l-78 180h-366l-81 -180h-100l326 704h89zM394 -210q-26 0 -44 18t-18 44t18 44t44 18t44 -18t18 -44t-18 -44t-44 -18z" />
    <glyph glyph-name="uni1EA1" unicode="&#x1ea1;" horiz-adv-x="567" 
d="M492 12l-90 -20v89q-56 -45 -105.5 -67t-96.5 -22q-66 0 -107 36.5t-41 97.5q0 86 86 127.5t264 43.5v2q0 62 -29.5 94.5t-85.5 32.5q-42 0 -86.5 -18t-91.5 -54l-3 1l20 101q40 27 83.5 40t91.5 13q92 0 141.5 -53t49.5 -152v-292zM143 130q0 -28 20 -44.5t55 -16.5
t80 17t104 53v100q-130 -8 -194.5 -34.5t-64.5 -74.5zM287 -210q-26 0 -44 18t-18 44t18 44t44 18t44 -18t18 -44t-18 -44t-44 -18z" />
    <glyph glyph-name="uni1EA2" unicode="&#x1ea2;" horiz-adv-x="789" 
d="M248 265h291l-143 329zM758 0h-104l-78 180h-366l-81 -180h-100l326 704h89zM519 877q0 -29 -23.5 -52t-91.5 -58l-51 14v2q58 35 76.5 50.5t18.5 29.5q0 12 -11.5 19t-33.5 7q-27 0 -55 -9t-59 -28h-2v61q31 18 60 26t61 8q52 0 81.5 -18.5t29.5 -51.5z" />
    <glyph glyph-name="uni1EA3" unicode="&#x1ea3;" horiz-adv-x="567" 
d="M492 12l-90 -20v89q-56 -45 -105.5 -67t-96.5 -22q-66 0 -107 36.5t-41 97.5q0 86 86 127.5t264 43.5v2q0 62 -29.5 94.5t-85.5 32.5q-42 0 -86.5 -18t-91.5 -54l-3 1l20 101q40 27 83.5 40t91.5 13q92 0 141.5 -53t49.5 -152v-292zM143 130q0 -28 20 -44.5t55 -16.5
t80 17t104 53v100q-130 -8 -194.5 -34.5t-64.5 -74.5zM417 734q0 -31 -23.5 -60.5t-91.5 -77.5l-51 15v2q58 48 76.5 68.5t18.5 38.5q0 15 -11.5 24t-31.5 9q-26 0 -54 -12.5t-60 -37.5h-2v73q28 22 58.5 33t65.5 11q48 0 77 -23.5t29 -62.5z" />
    <glyph glyph-name="uni1EA4" unicode="&#x1ea4;" horiz-adv-x="789" 
d="M248 265h291l-143 329zM758 0h-104l-78 180h-366l-81 -180h-100l326 704h89zM560 881h-48l70 109h124v-2zM567 772h-51l-118 75l-118 -75h-53v1l126 138h88l126 -138v-1z" />
    <glyph glyph-name="uni1EA5" unicode="&#x1ea5;" horiz-adv-x="567" 
d="M492 12l-90 -20v89q-56 -45 -105.5 -67t-96.5 -22q-66 0 -107 36.5t-41 97.5q0 86 86 127.5t264 43.5v2q0 62 -29.5 94.5t-85.5 32.5q-42 0 -86.5 -18t-91.5 -54l-3 1l20 101q40 27 83.5 40t91.5 13q92 0 141.5 -53t49.5 -152v-292zM143 130q0 -28 20 -44.5t55 -16.5
t80 17t104 53v100q-130 -8 -194.5 -34.5t-64.5 -74.5zM462 732h-40l64 128h101v-1zM465 603h-42l-127 74l-127 -74h-44v2l129 139h82l129 -139v-2z" />
    <glyph glyph-name="uni1EA6" unicode="&#x1ea6;" horiz-adv-x="789" 
d="M248 265h291l-143 329zM758 0h-104l-78 180h-366l-81 -180h-100l326 704h89zM590 990l70 -109h-49l-146 107v2h125zM567 772h-51l-118 75l-118 -75h-53v1l126 138h88l126 -138v-1z" />
    <glyph glyph-name="uni1EA7" unicode="&#x1ea7;" horiz-adv-x="567" 
d="M492 12l-90 -20v89q-56 -45 -105.5 -67t-96.5 -22q-66 0 -107 36.5t-41 97.5q0 86 86 127.5t264 43.5v2q0 62 -29.5 94.5t-85.5 32.5q-42 0 -86.5 -18t-91.5 -54l-3 1l20 101q40 27 83.5 40t91.5 13q92 0 141.5 -53t49.5 -152v-292zM143 130q0 -28 20 -44.5t55 -16.5
t80 17t104 53v100q-130 -8 -194.5 -34.5t-64.5 -74.5zM459 860l65 -128h-41l-124 127v1h100zM465 603h-42l-127 74l-127 -74h-44v2l129 139h82l129 -139v-2z" />
    <glyph glyph-name="uni1EA8" unicode="&#x1ea8;" horiz-adv-x="789" 
d="M248 265h291l-143 329zM758 0h-104l-78 180h-366l-81 -180h-100l326 704h89zM670 970q0 -22 -19 -40t-77 -48l-46 11v2q46 28 62 41t16 24q0 8 -8 13t-22 5q-23 0 -47.5 -7.5t-51.5 -22.5h-1v51q26 14 51.5 20.5t55.5 6.5q40 0 63.5 -15t23.5 -41zM567 772h-51l-118 75
l-118 -75h-53v1l126 138h88l126 -138v-1z" />
    <glyph glyph-name="uni1EA9" unicode="&#x1ea9;" horiz-adv-x="567" 
d="M492 12l-90 -20v89q-56 -45 -105.5 -67t-96.5 -22q-66 0 -107 36.5t-41 97.5q0 86 86 127.5t264 43.5v2q0 62 -29.5 94.5t-85.5 32.5q-42 0 -86.5 -18t-91.5 -54l-3 1l20 101q40 27 83.5 40t91.5 13q92 0 141.5 -53t49.5 -152v-292zM143 130q0 -28 20 -44.5t55 -16.5
t80 17t104 53v100q-130 -8 -194.5 -34.5t-64.5 -74.5zM585 825q0 -23 -19 -44.5t-82 -60.5l-46 13v2q49 34 65.5 49t16.5 28q0 12 -9.5 19t-25.5 7q-24 0 -49 -9t-55 -29h-1v58q26 17 53 25.5t58 8.5q43 0 68.5 -18t25.5 -49zM465 603h-42l-127 74l-127 -74h-44v2l129 139
h82l129 -139v-2z" />
    <glyph glyph-name="uni1EAA" unicode="&#x1eaa;" horiz-adv-x="789" 
d="M248 265h291l-143 329zM758 0h-104l-78 180h-366l-81 -180h-100l326 704h89zM410 1013q29 -14 41 -18.5t19 -4.5q14 0 25.5 10t42.5 46l38 -25q-40 -59 -62 -78t-49 -19q-12 0 -28.5 6t-52.5 24q-29 15 -41 19.5t-19 4.5q-14 0 -26 -10t-42 -47l-38 26q40 58 62 77t49 19
q12 0 28.5 -6t52.5 -24zM567 772h-51l-118 58l-118 -58h-53v1l121 114h98l121 -114v-1z" />
    <glyph glyph-name="uni1EAB" unicode="&#x1eab;" horiz-adv-x="567" 
d="M492 12l-90 -20v89q-56 -45 -105.5 -67t-96.5 -22q-66 0 -107 36.5t-41 97.5q0 86 86 127.5t264 43.5v2q0 62 -29.5 94.5t-85.5 32.5q-42 0 -86.5 -18t-91.5 -54l-3 1l20 101q40 27 83.5 40t91.5 13q92 0 141.5 -53t49.5 -152v-292zM143 130q0 -28 20 -44.5t55 -16.5
t80 17t104 53v100q-130 -8 -194.5 -34.5t-64.5 -74.5zM307 860q26 -12 36 -15.5t17 -3.5q13 0 24.5 9.5t36.5 40.5l36 -24q-39 -61 -58 -77.5t-42 -16.5q-11 0 -26.5 5t-47.5 21q-26 13 -36 16.5t-17 3.5q-12 0 -23 -9t-38 -41l-36 24q38 60 57 76.5t43 16.5q11 0 26.5 -5
t47.5 -21zM465 603h-42l-127 65l-127 -65h-44v2l125 123h90l125 -123v-2z" />
    <glyph glyph-name="uni1EAC" unicode="&#x1eac;" horiz-adv-x="789" 
d="M248 265h291l-143 329zM758 0h-104l-78 180h-366l-81 -180h-100l326 704h89zM567 772h-51l-118 75l-118 -75h-53v1l126 140h88l126 -140v-1zM394 -210q-26 0 -44 18t-18 44t18 44t44 18t44 -18t18 -44t-18 -44t-44 -18z" />
    <glyph glyph-name="uni1EAD" unicode="&#x1ead;" horiz-adv-x="567" 
d="M492 12l-90 -20v89q-56 -45 -105.5 -67t-96.5 -22q-66 0 -107 36.5t-41 97.5q0 86 86 127.5t264 43.5v2q0 62 -29.5 94.5t-85.5 32.5q-42 0 -86.5 -18t-91.5 -54l-3 1l20 101q40 27 83.5 40t91.5 13q92 0 141.5 -53t49.5 -152v-292zM143 130q0 -28 20 -44.5t55 -16.5
t80 17t104 53v100q-130 -8 -194.5 -34.5t-64.5 -74.5zM464 603h-42l-126 96l-126 -96h-44v2l128 167h82l128 -167v-2zM287 -210q-26 0 -44 18t-18 44t18 44t44 18t44 -18t18 -44t-18 -44t-44 -18z" />
    <glyph glyph-name="uni1EAE" unicode="&#x1eae;" horiz-adv-x="789" 
d="M248 265h291l-143 329zM758 0h-104l-78 180h-366l-81 -180h-100l326 704h89zM402 909h-40l64 118h118v-1zM397 772q-57 0 -101.5 27t-78.5 82l31 28q42 -35 76 -49t73 -14t73 14t76 49l31 -28q-34 -55 -78.5 -82t-101.5 -27z" />
    <glyph glyph-name="uni1EAF" unicode="&#x1eaf;" horiz-adv-x="567" 
d="M492 12l-90 -20v89q-56 -45 -105.5 -67t-96.5 -22q-66 0 -107 36.5t-41 97.5q0 86 86 127.5t264 43.5v2q0 62 -29.5 94.5t-85.5 32.5q-42 0 -86.5 -18t-91.5 -54l-3 1l20 101q40 27 83.5 40t91.5 13q92 0 141.5 -53t49.5 -152v-292zM143 130q0 -28 20 -44.5t55 -16.5
t80 17t104 53v100q-130 -8 -194.5 -34.5t-64.5 -74.5zM305 750h-40l65 128h118v-1zM294 597q-53 0 -94.5 26t-75.5 82l32 29q38 -37 69 -52t68 -15t69.5 16.5t69.5 53.5l33 -27q-31 -56 -74 -84.5t-97 -28.5z" />
    <glyph glyph-name="uni1EB0" unicode="&#x1eb0;" horiz-adv-x="789" 
d="M248 265h291l-143 329zM758 0h-104l-78 180h-366l-81 -180h-100l326 704h89zM368 1027l64 -118h-40l-142 117v1h118zM397 772q-57 0 -101.5 27t-78.5 82l31 28q42 -35 76 -49t73 -14t73 14t76 49l31 -28q-34 -55 -78.5 -82t-101.5 -27z" />
    <glyph glyph-name="uni1EB1" unicode="&#x1eb1;" horiz-adv-x="567" 
d="M492 12l-90 -20v89q-56 -45 -105.5 -67t-96.5 -22q-66 0 -107 36.5t-41 97.5q0 86 86 127.5t264 43.5v2q0 62 -29.5 94.5t-85.5 32.5q-42 0 -86.5 -18t-91.5 -54l-3 1l20 101q40 27 83.5 40t91.5 13q92 0 141.5 -53t49.5 -152v-292zM143 130q0 -28 20 -44.5t55 -16.5
t80 17t104 53v100q-130 -8 -194.5 -34.5t-64.5 -74.5zM260 878l65 -128h-40l-143 127v1h118zM294 597q-53 0 -94.5 26t-75.5 82l32 29q38 -37 69 -52t68 -15t69.5 16.5t69.5 53.5l33 -27q-31 -56 -74 -84.5t-97 -28.5z" />
    <glyph glyph-name="uni1EB2" unicode="&#x1eb2;" horiz-adv-x="789" 
d="M248 265h291l-143 329zM758 0h-104l-78 180h-366l-81 -180h-100l326 704h89zM510 1007q0 -20 -19.5 -40t-87.5 -58l-48 14v1q55 35 70 47.5t15 23.5q0 10 -9.5 16t-25.5 6q-23 0 -48.5 -8t-56.5 -26h-1v56q32 17 57.5 24t55.5 7q43 0 70.5 -17.5t27.5 -45.5zM397 772
q-57 0 -101.5 27t-78.5 82l31 28q42 -35 76 -49t73 -14t73 14t76 49l31 -28q-34 -55 -78.5 -82t-101.5 -27z" />
    <glyph glyph-name="uni1EB3" unicode="&#x1eb3;" horiz-adv-x="567" 
d="M492 12l-90 -20v89q-56 -45 -105.5 -67t-96.5 -22q-66 0 -107 36.5t-41 97.5q0 86 86 127.5t264 43.5v2q0 62 -29.5 94.5t-85.5 32.5q-42 0 -86.5 -18t-91.5 -54l-3 1l20 101q40 27 83.5 40t91.5 13q92 0 141.5 -53t49.5 -152v-292zM143 130q0 -28 20 -44.5t55 -16.5
t80 17t104 53v100q-130 -8 -194.5 -34.5t-64.5 -74.5zM406 851q0 -23 -20 -45t-84 -62l-46 13v2q50 34 67.5 50t17.5 29q0 12 -10 19t-27 7q-24 0 -49.5 -9t-56.5 -29h-1v58q24 17 52.5 26t60.5 9q44 0 70 -18.5t26 -49.5zM294 597q-53 0 -94.5 26t-75.5 82l32 29
q38 -37 69 -52t68 -15t69.5 16.5t69.5 53.5l33 -27q-31 -56 -74 -84.5t-97 -28.5z" />
    <glyph glyph-name="uni1EB4" unicode="&#x1eb4;" horiz-adv-x="789" 
d="M248 265h291l-143 329zM758 0h-104l-78 180h-366l-81 -180h-100l326 704h89zM416 1029q30 -15 42 -19.5t20 -4.5q13 0 25 10t42 47l38 -26q-40 -58 -62 -77t-49 -19q-12 0 -28.5 6t-52.5 24q-29 14 -41 18.5t-19 4.5q-14 0 -26 -10.5t-39 -43.5l-38 26q39 58 60.5 76
t47.5 18q12 0 28.5 -6t51.5 -24zM397 772q-57 0 -101.5 27t-78.5 82l31 28q42 -35 76 -49t73 -14t73 14t76 49l31 -28q-34 -55 -78.5 -82t-101.5 -27z" />
    <glyph glyph-name="uni1EB5" unicode="&#x1eb5;" horiz-adv-x="567" 
d="M492 12l-90 -20v89q-56 -45 -105.5 -67t-96.5 -22q-66 0 -107 36.5t-41 97.5q0 86 86 127.5t264 43.5v2q0 62 -29.5 94.5t-85.5 32.5q-42 0 -86.5 -18t-91.5 -54l-3 1l20 101q40 27 83.5 40t91.5 13q92 0 141.5 -53t49.5 -152v-292zM143 130q0 -28 20 -44.5t55 -16.5
t80 17t104 53v100q-130 -8 -194.5 -34.5t-64.5 -74.5zM309 864q26 -13 37 -17t18 -4q14 0 26 9t39 38l37 -25q-43 -58 -62 -74t-42 -16q-13 0 -30 5.5t-51 22.5q-26 13 -37 17t-18 4q-13 0 -24.5 -8.5t-40.5 -38.5l-37 25q44 59 63 74.5t41 15.5q13 0 30 -5.5t51 -22.5z
M294 597q-53 0 -94.5 26t-75.5 82l32 29q38 -37 69 -52t68 -15t69.5 16.5t69.5 53.5l33 -27q-31 -56 -74 -84.5t-97 -28.5z" />
    <glyph glyph-name="uni1EB6" unicode="&#x1eb6;" horiz-adv-x="789" 
d="M248 265h291l-143 329zM758 0h-104l-78 180h-366l-81 -180h-100l326 704h89zM397 772q-56 0 -100.5 29.5t-79.5 90.5l38 28q39 -41 71.5 -57.5t70.5 -16.5t70.5 16.5t71.5 57.5l38 -28q-35 -61 -79.5 -90.5t-100.5 -29.5zM394 -210q-26 0 -44 18t-18 44t18 44t44 18
t44 -18t18 -44t-18 -44t-44 -18z" />
    <glyph glyph-name="uni1EB7" unicode="&#x1eb7;" horiz-adv-x="567" 
d="M492 12l-90 -20v89q-56 -45 -105.5 -67t-96.5 -22q-66 0 -107 36.5t-41 97.5q0 86 86 127.5t264 43.5v2q0 62 -29.5 94.5t-85.5 32.5q-42 0 -86.5 -18t-91.5 -54l-3 1l20 101q40 27 83.5 40t91.5 13q92 0 141.5 -53t49.5 -152v-292zM143 130q0 -28 20 -44.5t55 -16.5
t80 17t104 53v100q-130 -8 -194.5 -34.5t-64.5 -74.5zM295 597q-53 0 -95 34t-76 104l45 25q34 -46 63.5 -65.5t62.5 -19.5t62.5 19.5t63.5 65.5l45 -25q-34 -70 -76 -104t-95 -34zM287 -210q-26 0 -44 18t-18 44t18 44t44 18t44 -18t18 -44t-18 -44t-44 -18z" />
    <glyph glyph-name="uni1EB8" unicode="&#x1eb8;" horiz-adv-x="584" 
d="M497 0h-397v700h394l29 -87h-326v-214h273v-86h-273v-226h329zM308 -210q-26 0 -44 18t-18 44t18 44t44 18t44 -18t18 -44t-18 -44t-44 -18z" />
    <glyph glyph-name="uni1EB9" unicode="&#x1eb9;" horiz-adv-x="559" 
d="M284 435q-61 0 -102.5 -43t-47.5 -110h290q-6 72 -43 112.5t-97 40.5zM499 130l-32 -97q-44 -24 -82 -34t-83 -10q-119 0 -189 71t-70 190q0 110 70 187t174 77t166 -72.5t62 -186.5q0 -10 -1 -22t-2 -18h-376q10 -68 56.5 -106t119.5 -38q43 0 91 16t93 45zM296 -214
q-26 0 -44 18t-18 44t18 44t44 18t44 -18t18 -44t-18 -44t-44 -18z" />
    <glyph glyph-name="uni1EBA" unicode="&#x1eba;" horiz-adv-x="584" 
d="M497 0h-397v700h394l29 -87h-326v-214h273v-86h-273v-226h329zM430 877q0 -29 -23.5 -52t-91.5 -58l-51 14v2q58 35 76.5 50.5t18.5 29.5q0 12 -11.5 19t-33.5 7q-27 0 -55 -9t-59 -28h-2v61q31 18 60 26t61 8q52 0 81.5 -18.5t29.5 -51.5z" />
    <glyph glyph-name="uni1EBB" unicode="&#x1ebb;" horiz-adv-x="559" 
d="M284 435q-61 0 -102.5 -43t-47.5 -110h290q-6 72 -43 112.5t-97 40.5zM499 130l-32 -97q-44 -24 -82 -34t-83 -10q-119 0 -189 71t-70 190q0 110 70 187t174 77t166 -72.5t62 -186.5q0 -10 -1 -22t-2 -18h-376q10 -68 56.5 -106t119.5 -38q43 0 91 16t93 45zM411 738
q0 -31 -23.5 -60.5t-91.5 -77.5l-51 15v2q58 48 76.5 68.5t18.5 38.5q0 15 -11.5 24t-31.5 9q-26 0 -54 -12.5t-60 -37.5h-2v73q28 22 58.5 33t65.5 11q48 0 77 -23.5t29 -62.5z" />
    <glyph glyph-name="uni1EBC" unicode="&#x1ebc;" horiz-adv-x="584" 
d="M497 0h-397v700h394l29 -87h-326v-214h273v-86h-273v-226h329zM322 870q30 -17 43 -22t21 -5q14 0 25.5 10t47.5 55l39 -28q-43 -67 -66.5 -88t-51.5 -21q-13 0 -30.5 6.5t-55.5 28.5q-30 17 -43 22t-21 5q-14 0 -25.5 -10t-47.5 -55l-39 28q43 67 66.5 88t51.5 21
q13 0 30.5 -6.5t55.5 -28.5z" />
    <glyph glyph-name="uni1EBD" unicode="&#x1ebd;" horiz-adv-x="559" 
d="M284 435q-61 0 -102.5 -43t-47.5 -110h290q-6 72 -43 112.5t-97 40.5zM499 130l-32 -97q-44 -24 -82 -34t-83 -10q-119 0 -189 71t-70 190q0 110 70 187t174 77t166 -72.5t62 -186.5q0 -10 -1 -22t-2 -18h-376q10 -68 56.5 -106t119.5 -38q43 0 91 16t93 45zM305 715
q30 -19 42.5 -25t19.5 -6q12 0 23 11t48 64l45 -28q-46 -79 -69.5 -102t-52.5 -23q-13 0 -31 8t-57 33q-30 19 -42.5 25t-19.5 6q-11 0 -21.5 -10t-49.5 -65l-45 27q46 79 69.5 102.5t52.5 23.5q13 0 31 -8t57 -33z" />
    <glyph glyph-name="uni1EBE" unicode="&#x1ebe;" horiz-adv-x="584" 
d="M497 0h-397v700h394l29 -87h-326v-214h273v-86h-273v-226h329zM471 881h-48l70 109h124v-2zM478 772h-51l-118 75l-118 -75h-53v1l126 138h88l126 -138v-1z" />
    <glyph glyph-name="uni1EBF" unicode="&#x1ebf;" horiz-adv-x="559" 
d="M284 435q-61 0 -102.5 -43t-47.5 -110h290q-6 72 -43 112.5t-97 40.5zM499 130l-32 -97q-44 -24 -82 -34t-83 -10q-119 0 -189 71t-70 190q0 110 70 187t174 77t166 -72.5t62 -186.5q0 -10 -1 -22t-2 -18h-376q10 -68 56.5 -106t119.5 -38q43 0 91 16t93 45zM456 736h-40
l64 128h101v-1zM459 607h-42l-127 74l-127 -74h-44v2l129 139h82l129 -139v-2z" />
    <glyph glyph-name="uni1EC0" unicode="&#x1ec0;" horiz-adv-x="584" 
d="M497 0h-397v700h394l29 -87h-326v-214h273v-86h-273v-226h329zM501 990l70 -109h-49l-146 107v2h125zM478 772h-51l-118 75l-118 -75h-53v1l126 138h88l126 -138v-1z" />
    <glyph glyph-name="uni1EC1" unicode="&#x1ec1;" horiz-adv-x="559" 
d="M284 435q-61 0 -102.5 -43t-47.5 -110h290q-6 72 -43 112.5t-97 40.5zM499 130l-32 -97q-44 -24 -82 -34t-83 -10q-119 0 -189 71t-70 190q0 110 70 187t174 77t166 -72.5t62 -186.5q0 -10 -1 -22t-2 -18h-376q10 -68 56.5 -106t119.5 -38q43 0 91 16t93 45zM453 864
l65 -128h-41l-124 127v1h100zM459 607h-42l-127 74l-127 -74h-44v2l129 139h82l129 -139v-2z" />
    <glyph glyph-name="uni1EC2" unicode="&#x1ec2;" horiz-adv-x="584" 
d="M497 0h-397v700h394l29 -87h-326v-214h273v-86h-273v-226h329zM581 970q0 -22 -19 -40t-77 -48l-46 11v2q46 28 62 41t16 24q0 8 -8 13t-22 5q-23 0 -47.5 -7.5t-51.5 -22.5h-1v51q26 14 51.5 20.5t55.5 6.5q40 0 63.5 -15t23.5 -41zM478 772h-51l-118 75l-118 -75h-53v1
l126 138h88l126 -138v-1z" />
    <glyph glyph-name="uni1EC3" unicode="&#x1ec3;" horiz-adv-x="559" 
d="M284 435q-61 0 -102.5 -43t-47.5 -110h290q-6 72 -43 112.5t-97 40.5zM499 130l-32 -97q-44 -24 -82 -34t-83 -10q-119 0 -189 71t-70 190q0 110 70 187t174 77t166 -72.5t62 -186.5q0 -10 -1 -22t-2 -18h-376q10 -68 56.5 -106t119.5 -38q43 0 91 16t93 45zM579 829
q0 -23 -19 -44.5t-82 -60.5l-46 13v2q49 34 65.5 49t16.5 28q0 12 -9.5 19t-25.5 7q-24 0 -49 -9t-55 -29h-1v58q26 17 53 25.5t58 8.5q43 0 68.5 -18t25.5 -49zM459 607h-42l-127 74l-127 -74h-44v2l129 139h82l129 -139v-2z" />
    <glyph glyph-name="uni1EC4" unicode="&#x1ec4;" horiz-adv-x="584" 
d="M497 0h-397v700h394l29 -87h-326v-214h273v-86h-273v-226h329zM321 1013q29 -14 41 -18.5t19 -4.5q14 0 25.5 10t42.5 46l38 -25q-40 -59 -62 -78t-49 -19q-12 0 -28.5 6t-52.5 24q-29 15 -41 19.5t-19 4.5q-14 0 -26 -10t-42 -47l-38 26q40 58 62 77t49 19q12 0 28.5 -6
t52.5 -24zM478 772h-51l-118 58l-118 -58h-53v1l121 114h98l121 -114v-1z" />
    <glyph glyph-name="uni1EC5" unicode="&#x1ec5;" horiz-adv-x="559" 
d="M284 435q-61 0 -102.5 -43t-47.5 -110h290q-6 72 -43 112.5t-97 40.5zM499 130l-32 -97q-44 -24 -82 -34t-83 -10q-119 0 -189 71t-70 190q0 110 70 187t174 77t166 -72.5t62 -186.5q0 -10 -1 -22t-2 -18h-376q10 -68 56.5 -106t119.5 -38q43 0 91 16t93 45zM301 864
q26 -12 36 -15.5t17 -3.5q13 0 24.5 9.5t36.5 40.5l36 -24q-39 -61 -58 -77.5t-42 -16.5q-11 0 -26.5 5t-47.5 21q-26 13 -36 16.5t-17 3.5q-12 0 -23 -9t-38 -41l-36 24q38 60 57 76.5t43 16.5q11 0 26.5 -5t47.5 -21zM459 607h-42l-127 65l-127 -65h-44v2l125 123h90
l125 -123v-2z" />
    <glyph glyph-name="uni1EC6" unicode="&#x1ec6;" horiz-adv-x="584" 
d="M497 0h-397v700h394l29 -87h-326v-214h273v-86h-273v-226h329zM478 772h-51l-118 75l-118 -75h-53v1l126 140h88l126 -140v-1zM308 -210q-26 0 -44 18t-18 44t18 44t44 18t44 -18t18 -44t-18 -44t-44 -18z" />
    <glyph glyph-name="uni1EC7" unicode="&#x1ec7;" horiz-adv-x="559" 
d="M284 435q-61 0 -102.5 -43t-47.5 -110h290q-6 72 -43 112.5t-97 40.5zM499 130l-32 -97q-44 -24 -82 -34t-83 -10q-119 0 -189 71t-70 190q0 110 70 187t174 77t166 -72.5t62 -186.5q0 -10 -1 -22t-2 -18h-376q10 -68 56.5 -106t119.5 -38q43 0 91 16t93 45zM458 607h-42
l-126 96l-126 -96h-44v2l128 167h82l128 -167v-2zM296 -214q-26 0 -44 18t-18 44t18 44t44 18t44 -18t18 -44t-18 -44t-44 -18z" />
    <glyph glyph-name="uni1EC8" unicode="&#x1ec8;" horiz-adv-x="307" 
d="M202 0h-97v700h97v-700zM276 877q0 -29 -23.5 -52t-91.5 -58l-51 14v2q58 35 76.5 50.5t18.5 29.5q0 12 -11.5 19t-33.5 7q-27 0 -55 -9t-59 -28h-2v61q31 18 60 26t61 8q52 0 81.5 -18.5t29.5 -51.5z" />
    <glyph glyph-name="uni1EC9" unicode="&#x1ec9;" horiz-adv-x="270" 
d="M180 0h-90v500h90v-500zM257 734q0 -31 -23.5 -60.5t-91.5 -77.5l-51 15v2q58 48 76.5 68.5t18.5 38.5q0 15 -11.5 24t-31.5 9q-26 0 -54 -12.5t-60 -37.5h-2v73q28 22 58.5 33t65.5 11q48 0 77 -23.5t29 -62.5z" />
    <glyph glyph-name="uni1ECA" unicode="&#x1eca;" horiz-adv-x="307" 
d="M202 0h-97v700h97v-700zM154 -210q-26 0 -44 18t-18 44t18 44t44 18t44 -18t18 -44t-18 -44t-44 -18z" />
    <glyph glyph-name="uni1ECB" unicode="&#x1ecb;" horiz-adv-x="270" 
d="M135 741q26 0 44 -18t18 -44t-18 -44t-44 -18t-44 18t-18 44t18 44t44 18zM180 0h-90v500h90v-500zM135 -210q-26 0 -44 18t-18 44t18 44t44 18t44 -18t18 -44t-18 -44t-44 -18z" />
    <glyph glyph-name="uni1ECC" unicode="&#x1ecc;" horiz-adv-x="841" 
d="M420 -14q-155 0 -260 105t-105 258q0 154 106 259.5t261 105.5q154 0 259 -105t105 -258q0 -154 -106 -259.5t-260 -105.5zM418 624q-110 0 -187 -79.5t-77 -193.5q0 -116 77 -195.5t189 -79.5q110 0 188.5 79.5t78.5 193.5q0 115 -78.5 195t-190.5 80zM421 -215
q-26 0 -44 18t-18 44t18 44t44 18t44 -18t18 -44t-18 -44t-44 -18z" />
    <glyph glyph-name="uni1ECD" unicode="&#x1ecd;" horiz-adv-x="614" 
d="M306 -14q-115 0 -189 76.5t-74 186.5q0 109 76 187t189 78q116 0 189.5 -75.5t73.5 -186.5q0 -110 -75.5 -188t-189.5 -78zM479 252q0 78 -48.5 129.5t-122.5 51.5q-75 0 -123.5 -52.5t-48.5 -131.5q0 -78 48.5 -130t121.5 -52q75 0 124 53t49 132zM307 -214
q-26 0 -44 18t-18 44t18 44t44 18t44 -18t18 -44t-18 -44t-44 -18z" />
    <glyph glyph-name="uni1ECE" unicode="&#x1ece;" horiz-adv-x="841" 
d="M420 -14q-155 0 -260 105t-105 258q0 154 106 259.5t261 105.5q154 0 259 -105t105 -258q0 -154 -106 -259.5t-260 -105.5zM418 624q-110 0 -187 -79.5t-77 -193.5q0 -116 77 -195.5t189 -79.5q110 0 188.5 79.5t78.5 193.5q0 115 -78.5 195t-190.5 80zM543 882
q0 -29 -23.5 -52t-91.5 -58l-51 14v2q58 35 76.5 50.5t18.5 29.5q0 12 -11.5 19t-33.5 7q-27 0 -55 -9t-59 -28h-2v61q31 18 60 26t61 8q52 0 81.5 -18.5t29.5 -51.5z" />
    <glyph glyph-name="uni1ECF" unicode="&#x1ecf;" horiz-adv-x="614" 
d="M306 -14q-115 0 -189 76.5t-74 186.5q0 109 76 187t189 78q116 0 189.5 -75.5t73.5 -186.5q0 -110 -75.5 -188t-189.5 -78zM479 252q0 78 -48.5 129.5t-122.5 51.5q-75 0 -123.5 -52.5t-48.5 -131.5q0 -78 48.5 -130t121.5 -52q75 0 124 53t49 132zM429 738
q0 -31 -23.5 -60.5t-91.5 -77.5l-51 15v2q58 48 76.5 68.5t18.5 38.5q0 15 -11.5 24t-31.5 9q-26 0 -54 -12.5t-60 -37.5h-2v73q28 22 58.5 33t65.5 11q48 0 77 -23.5t29 -62.5z" />
    <glyph glyph-name="uni1ED0" unicode="&#x1ed0;" horiz-adv-x="841" 
d="M420 -14q-155 0 -260 105t-105 258q0 154 106 259.5t261 105.5q154 0 259 -105t105 -258q0 -154 -106 -259.5t-260 -105.5zM418 624q-110 0 -187 -79.5t-77 -193.5q0 -116 77 -195.5t189 -79.5q110 0 188.5 79.5t78.5 193.5q0 115 -78.5 195t-190.5 80zM584 886h-48
l70 109h124v-2zM591 777h-51l-118 75l-118 -75h-53v1l126 138h88l126 -138v-1z" />
    <glyph glyph-name="uni1ED1" unicode="&#x1ed1;" horiz-adv-x="614" 
d="M306 -14q-115 0 -189 76.5t-74 186.5q0 109 76 187t189 78q116 0 189.5 -75.5t73.5 -186.5q0 -110 -75.5 -188t-189.5 -78zM479 252q0 78 -48.5 129.5t-122.5 51.5q-75 0 -123.5 -52.5t-48.5 -131.5q0 -78 48.5 -130t121.5 -52q75 0 124 53t49 132zM474 736h-40l64 128
h101v-1zM477 607h-42l-127 74l-127 -74h-44v2l129 139h82l129 -139v-2z" />
    <glyph glyph-name="uni1ED2" unicode="&#x1ed2;" horiz-adv-x="841" 
d="M420 -14q-155 0 -260 105t-105 258q0 154 106 259.5t261 105.5q154 0 259 -105t105 -258q0 -154 -106 -259.5t-260 -105.5zM418 624q-110 0 -187 -79.5t-77 -193.5q0 -116 77 -195.5t189 -79.5q110 0 188.5 79.5t78.5 193.5q0 115 -78.5 195t-190.5 80zM614 995l70 -109
h-49l-146 107v2h125zM591 777h-51l-118 75l-118 -75h-53v1l126 138h88l126 -138v-1z" />
    <glyph glyph-name="uni1ED3" unicode="&#x1ed3;" horiz-adv-x="614" 
d="M306 -14q-115 0 -189 76.5t-74 186.5q0 109 76 187t189 78q116 0 189.5 -75.5t73.5 -186.5q0 -110 -75.5 -188t-189.5 -78zM479 252q0 78 -48.5 129.5t-122.5 51.5q-75 0 -123.5 -52.5t-48.5 -131.5q0 -78 48.5 -130t121.5 -52q75 0 124 53t49 132zM471 864l65 -128h-41
l-124 127v1h100zM477 607h-42l-127 74l-127 -74h-44v2l129 139h82l129 -139v-2z" />
    <glyph glyph-name="uni1ED4" unicode="&#x1ed4;" horiz-adv-x="841" 
d="M420 -14q-155 0 -260 105t-105 258q0 154 106 259.5t261 105.5q154 0 259 -105t105 -258q0 -154 -106 -259.5t-260 -105.5zM418 624q-110 0 -187 -79.5t-77 -193.5q0 -116 77 -195.5t189 -79.5q110 0 188.5 79.5t78.5 193.5q0 115 -78.5 195t-190.5 80zM694 975
q0 -22 -19 -40t-77 -48l-46 11v2q46 28 62 41t16 24q0 8 -8 13t-22 5q-23 0 -47.5 -7.5t-51.5 -22.5h-1v51q26 14 51.5 20.5t55.5 6.5q40 0 63.5 -15t23.5 -41zM591 777h-51l-118 75l-118 -75h-53v1l126 138h88l126 -138v-1z" />
    <glyph glyph-name="uni1ED5" unicode="&#x1ed5;" horiz-adv-x="614" 
d="M306 -14q-115 0 -189 76.5t-74 186.5q0 109 76 187t189 78q116 0 189.5 -75.5t73.5 -186.5q0 -110 -75.5 -188t-189.5 -78zM479 252q0 78 -48.5 129.5t-122.5 51.5q-75 0 -123.5 -52.5t-48.5 -131.5q0 -78 48.5 -130t121.5 -52q75 0 124 53t49 132zM597 829
q0 -23 -19 -44.5t-82 -60.5l-46 13v2q49 34 65.5 49t16.5 28q0 12 -9.5 19t-25.5 7q-24 0 -49 -9t-55 -29h-1v58q26 17 53 25.5t58 8.5q43 0 68.5 -18t25.5 -49zM477 607h-42l-127 74l-127 -74h-44v2l129 139h82l129 -139v-2z" />
    <glyph glyph-name="uni1ED6" unicode="&#x1ed6;" horiz-adv-x="841" 
d="M420 -14q-155 0 -260 105t-105 258q0 154 106 259.5t261 105.5q154 0 259 -105t105 -258q0 -154 -106 -259.5t-260 -105.5zM418 624q-110 0 -187 -79.5t-77 -193.5q0 -116 77 -195.5t189 -79.5q110 0 188.5 79.5t78.5 193.5q0 115 -78.5 195t-190.5 80zM434 1018
q29 -14 41 -18.5t19 -4.5q14 0 25.5 10t42.5 46l38 -25q-40 -59 -62 -78t-49 -19q-12 0 -28.5 6t-52.5 24q-29 15 -41 19.5t-19 4.5q-14 0 -26 -10t-42 -47l-38 26q40 58 62 77t49 19q12 0 28.5 -6t52.5 -24zM591 777h-51l-118 58l-118 -58h-53v1l121 114h98l121 -114v-1z
" />
    <glyph glyph-name="uni1ED7" unicode="&#x1ed7;" horiz-adv-x="614" 
d="M306 -14q-115 0 -189 76.5t-74 186.5q0 109 76 187t189 78q116 0 189.5 -75.5t73.5 -186.5q0 -110 -75.5 -188t-189.5 -78zM479 252q0 78 -48.5 129.5t-122.5 51.5q-75 0 -123.5 -52.5t-48.5 -131.5q0 -78 48.5 -130t121.5 -52q75 0 124 53t49 132zM319 864
q26 -12 36 -15.5t17 -3.5q13 0 24.5 9.5t36.5 40.5l36 -24q-39 -61 -58 -77.5t-42 -16.5q-11 0 -26.5 5t-47.5 21q-26 13 -36 16.5t-17 3.5q-12 0 -23 -9t-38 -41l-36 24q38 60 57 76.5t43 16.5q11 0 26.5 -5t47.5 -21zM477 607h-42l-127 65l-127 -65h-44v2l125 123h90
l125 -123v-2z" />
    <glyph glyph-name="uni1ED8" unicode="&#x1ed8;" horiz-adv-x="841" 
d="M420 -14q-155 0 -260 105t-105 258q0 154 106 259.5t261 105.5q154 0 259 -105t105 -258q0 -154 -106 -259.5t-260 -105.5zM418 624q-110 0 -187 -79.5t-77 -193.5q0 -116 77 -195.5t189 -79.5q110 0 188.5 79.5t78.5 193.5q0 115 -78.5 195t-190.5 80zM591 777h-51
l-118 75l-118 -75h-53v1l126 140h88l126 -140v-1zM421 -215q-26 0 -44 18t-18 44t18 44t44 18t44 -18t18 -44t-18 -44t-44 -18z" />
    <glyph glyph-name="uni1ED9" unicode="&#x1ed9;" horiz-adv-x="614" 
d="M306 -14q-115 0 -189 76.5t-74 186.5q0 109 76 187t189 78q116 0 189.5 -75.5t73.5 -186.5q0 -110 -75.5 -188t-189.5 -78zM479 252q0 78 -48.5 129.5t-122.5 51.5q-75 0 -123.5 -52.5t-48.5 -131.5q0 -78 48.5 -130t121.5 -52q75 0 124 53t49 132zM476 607h-42l-126 96
l-126 -96h-44v2l128 167h82l128 -167v-2zM307 -214q-26 0 -44 18t-18 44t18 44t44 18t44 -18t18 -44t-18 -44t-44 -18z" />
    <glyph glyph-name="uni1EDA" unicode="&#x1eda;" horiz-adv-x="841" 
d="M786 349q0 -153 -106 -258t-260 -105t-259.5 104t-105.5 256q0 154 106.5 258t265.5 104q15 0 31 -1l48 -3l48 -3t30 -1q66 0 94 20t28 66q0 14 -2 27t-6 28h85q4 -10 6 -23t2 -28q0 -66 -42 -105t-120 -45q74 -49 115.5 -125.5t41.5 -165.5zM418 620q-110 0 -187 -78.5
t-77 -192.5q0 -115 77 -194t189 -79q110 0 188.5 79t78.5 193t-78.5 193t-190.5 79zM442 776h-49l82 141h133v-2z" />
    <glyph glyph-name="uni1EDB" unicode="&#x1edb;" horiz-adv-x="614" 
d="M571 250q0 -109 -75.5 -186.5t-189.5 -77.5t-188.5 75.5t-74.5 184.5q0 112 77 186.5t196 74.5q10 0 22 -0.5t34 -1.5q20 0 30 -0.5t18 -0.5q49 0 73 16t24 50q0 12 -1.5 22t-6.5 25h78q5 -15 7 -27t2 -25q0 -46 -31.5 -76.5t-89.5 -38.5q46 -36 71 -89t25 -111zM479 250
q0 77 -48.5 128t-122.5 51q-75 0 -123.5 -51.5t-48.5 -129.5t48.5 -129.5t121.5 -51.5q75 0 124 52.5t49 130.5zM327 607h-43l84 169h122v-2z" />
    <glyph glyph-name="uni1EDC" unicode="&#x1edc;" horiz-adv-x="841" 
d="M786 349q0 -153 -106 -258t-260 -105t-259.5 104t-105.5 256q0 154 106.5 258t265.5 104q15 0 31 -1l48 -3l48 -3t30 -1q66 0 94 20t28 66q0 14 -2 27t-6 28h85q4 -10 6 -23t2 -28q0 -66 -42 -105t-120 -45q74 -49 115.5 -125.5t41.5 -165.5zM418 620q-110 0 -187 -78.5
t-77 -192.5q0 -115 77 -194t189 -79q110 0 188.5 79t78.5 193t-78.5 193t-190.5 79zM367 917l82 -141h-49l-166 139v2h133z" />
    <glyph glyph-name="uni1EDD" unicode="&#x1edd;" horiz-adv-x="614" 
d="M571 250q0 -109 -75.5 -186.5t-189.5 -77.5t-188.5 75.5t-74.5 184.5q0 112 77 186.5t196 74.5q10 0 22 -0.5t34 -1.5q20 0 30 -0.5t18 -0.5q49 0 73 16t24 50q0 12 -1.5 22t-6.5 25h78q5 -15 7 -27t2 -25q0 -46 -31.5 -76.5t-89.5 -38.5q46 -36 71 -89t25 -111zM479 250
q0 77 -48.5 128t-122.5 51q-75 0 -123.5 -51.5t-48.5 -129.5t48.5 -129.5t121.5 -51.5q75 0 124 52.5t49 130.5zM246 776l84 -169h-43l-163 167v2h122z" />
    <glyph glyph-name="uni1EDE" unicode="&#x1ede;" horiz-adv-x="841" 
d="M786 349q0 -153 -106 -258t-260 -105t-259.5 104t-105.5 256q0 154 106.5 258t265.5 104q15 0 31 -1l48 -3l48 -3t30 -1q66 0 94 20t28 66q0 14 -2 27t-6 28h85q4 -10 6 -23t2 -28q0 -66 -42 -105t-120 -45q74 -49 115.5 -125.5t41.5 -165.5zM418 620q-110 0 -187 -78.5
t-77 -192.5q0 -115 77 -194t189 -79q110 0 188.5 79t78.5 193t-78.5 193t-190.5 79zM543 881q0 -29 -23.5 -52t-91.5 -58l-51 14v2q58 35 76.5 50.5t18.5 29.5q0 12 -11.5 19t-33.5 7q-27 0 -55 -9t-59 -28h-2v61q31 18 60 26t61 8q52 0 81.5 -18.5t29.5 -51.5z" />
    <glyph glyph-name="uni1EDF" unicode="&#x1edf;" horiz-adv-x="614" 
d="M571 250q0 -109 -75.5 -186.5t-189.5 -77.5t-188.5 75.5t-74.5 184.5q0 112 77 186.5t196 74.5q10 0 22 -0.5t34 -1.5q20 0 30 -0.5t18 -0.5q49 0 73 16t24 50q0 12 -1.5 22t-6.5 25h78q5 -15 7 -27t2 -25q0 -46 -31.5 -76.5t-89.5 -38.5q46 -36 71 -89t25 -111zM479 250
q0 77 -48.5 128t-122.5 51q-75 0 -123.5 -51.5t-48.5 -129.5t48.5 -129.5t121.5 -51.5q75 0 124 52.5t49 130.5zM429 738q0 -31 -23.5 -60.5t-91.5 -77.5l-51 15v2q58 48 76.5 68.5t18.5 38.5q0 15 -11.5 24t-31.5 9q-26 0 -54 -12.5t-60 -37.5h-2v73q28 22 58.5 33t65.5 11
q48 0 77 -23.5t29 -62.5z" />
    <glyph glyph-name="uni1EE0" unicode="&#x1ee0;" horiz-adv-x="841" 
d="M786 349q0 -153 -106 -258t-260 -105t-259.5 104t-105.5 256q0 154 106.5 258t265.5 104q15 0 31 -1l48 -3l48 -3t30 -1q66 0 94 20t28 66q0 14 -2 27t-6 28h85q4 -10 6 -23t2 -28q0 -66 -42 -105t-120 -45q74 -49 115.5 -125.5t41.5 -165.5zM418 620q-110 0 -187 -78.5
t-77 -192.5q0 -115 77 -194t189 -79q110 0 188.5 79t78.5 193t-78.5 193t-190.5 79zM435 874q30 -17 43 -22t21 -5q14 0 25.5 10t47.5 55l39 -28q-43 -67 -66.5 -88t-51.5 -21q-13 0 -30.5 6.5t-55.5 28.5q-30 17 -43 22t-21 5q-14 0 -25.5 -10t-47.5 -55l-39 28
q43 67 66.5 88t51.5 21q13 0 30.5 -6.5t55.5 -28.5z" />
    <glyph glyph-name="uni1EE1" unicode="&#x1ee1;" horiz-adv-x="614" 
d="M313 715q29 -20 41.5 -25.5t19.5 -5.5q12 0 23.5 12t47.5 64l46 -28q-48 -81 -71 -103.5t-51 -22.5q-13 0 -31.5 8t-57.5 33q-29 20 -41.5 25.5t-19.5 5.5q-13 0 -25 -12.5t-46 -62.5l-46 28q47 79 70.5 102t51.5 23q13 0 31.5 -8t57.5 -33zM571 250q0 -109 -75.5 -186.5
t-189.5 -77.5t-188.5 75.5t-74.5 184.5q0 112 77 186.5t196 74.5q10 0 22 -0.5t34 -1.5q20 0 30 -0.5t18 -0.5q49 0 73 16t24 50q0 12 -1.5 22t-6.5 25h78q5 -15 7 -27t2 -25q0 -46 -31.5 -76.5t-89.5 -38.5q46 -36 71 -89t25 -111zM479 250q0 77 -48.5 128t-122.5 51
q-75 0 -123.5 -51.5t-48.5 -129.5t48.5 -129.5t121.5 -51.5q75 0 124 52.5t49 130.5z" />
    <glyph glyph-name="uni1EE2" unicode="&#x1ee2;" horiz-adv-x="841" 
d="M786 349q0 -153 -106 -258t-260 -105t-259.5 104t-105.5 256q0 154 106.5 258t265.5 104q15 0 31 -1l48 -3l48 -3t30 -1q66 0 94 20t28 66q0 14 -2 27t-6 28h85q4 -10 6 -23t2 -28q0 -66 -42 -105t-120 -45q74 -49 115.5 -125.5t41.5 -165.5zM418 620q-110 0 -187 -78.5
t-77 -192.5q0 -115 77 -194t189 -79q110 0 188.5 79t78.5 193t-78.5 193t-190.5 79zM421 -214q-26 0 -44 18t-18 44t18 44t44 18t44 -18t18 -44t-18 -44t-44 -18z" />
    <glyph glyph-name="uni1EE3" unicode="&#x1ee3;" horiz-adv-x="614" 
d="M571 250q0 -109 -75.5 -186.5t-189.5 -77.5t-188.5 75.5t-74.5 184.5q0 112 77 186.5t196 74.5q10 0 22 -0.5t34 -1.5q20 0 30 -0.5t18 -0.5q49 0 73 16t24 50q0 12 -1.5 22t-6.5 25h78q5 -15 7 -27t2 -25q0 -46 -31.5 -76.5t-89.5 -38.5q46 -36 71 -89t25 -111zM479 250
q0 77 -48.5 128t-122.5 51q-75 0 -123.5 -51.5t-48.5 -129.5t48.5 -129.5t121.5 -51.5q75 0 124 52.5t49 130.5zM307 -214q-26 0 -44 18t-18 44t18 44t44 18t44 -18t18 -44t-18 -44t-44 -18z" />
    <glyph glyph-name="uni1EE4" unicode="&#x1ee4;" horiz-adv-x="789" 
d="M394 -12q-141 0 -222 85t-81 233v394h97v-396q0 -107 55 -167t153 -60t153 60t55 170v393h93v-394q0 -149 -80.5 -233.5t-222.5 -84.5zM395 -215q-26 0 -44 18t-18 44t18 44t44 18t44 -18t18 -44t-18 -44t-44 -18z" />
    <glyph glyph-name="uni1EE5" unicode="&#x1ee5;" horiz-adv-x="604" 
d="M520 0h-91v94q-43 -55 -85 -79.5t-93 -24.5q-79 0 -127.5 53t-48.5 142v315h91v-306q0 -58 29.5 -90.5t81.5 -32.5q38 0 72.5 20.5t79.5 69.5v339h91v-500zM298 -210q-26 0 -44 18t-18 44t18 44t44 18t44 -18t18 -44t-18 -44t-44 -18z" />
    <glyph glyph-name="uni1EE6" unicode="&#x1ee6;" horiz-adv-x="789" 
d="M394 -12q-141 0 -222 85t-81 233v394h97v-396q0 -107 55 -167t153 -60t153 60t55 170v393h93v-394q0 -149 -80.5 -233.5t-222.5 -84.5zM517 877q0 -29 -23.5 -52t-91.5 -58l-51 14v2q58 35 76.5 50.5t18.5 29.5q0 12 -11.5 19t-33.5 7q-27 0 -55 -9t-59 -28h-2v61
q31 18 60 26t61 8q52 0 81.5 -18.5t29.5 -51.5z" />
    <glyph glyph-name="uni1EE7" unicode="&#x1ee7;" horiz-adv-x="604" 
d="M520 0h-91v94q-43 -55 -85 -79.5t-93 -24.5q-79 0 -127.5 53t-48.5 142v315h91v-306q0 -58 29.5 -90.5t81.5 -32.5q38 0 72.5 20.5t79.5 69.5v339h91v-500zM420 734q0 -31 -23.5 -60.5t-91.5 -77.5l-51 15v2q58 48 76.5 68.5t18.5 38.5q0 15 -11.5 24t-31.5 9
q-26 0 -54 -12.5t-60 -37.5h-2v73q28 22 58.5 33t65.5 11q48 0 77 -23.5t29 -62.5z" />
    <glyph glyph-name="uni1EE8" unicode="&#x1ee8;" horiz-adv-x="818" 
d="M394 -12q-141 0 -222 85t-81 233v394h97v-396q0 -107 55 -167t153 -60t153 60t55 170v393h30q61 0 88.5 20.5t27.5 65.5q0 14 -2 27t-6 28h85q3 -11 5 -24t2 -27q0 -61 -34.5 -98.5t-102.5 -50.5v-335q0 -149 -80.5 -233.5t-222.5 -84.5zM416 772h-49l82 141h133v-2z" />
    <glyph glyph-name="uni1EE9" unicode="&#x1ee9;" horiz-adv-x="625" 
d="M520 0h-91v94q-43 -55 -85 -79.5t-93 -24.5q-79 0 -127.5 53t-48.5 142v315h91v-306q0 -58 29.5 -90.5t81.5 -32.5q38 0 72.5 20.5t79.5 69.5v339h29q55 0 80 15t25 48q0 11 -2 21.5t-6 22.5h80q3 -9 5 -20.5t2 -23.5q0 -48 -31 -78t-91 -40v-445zM318 603h-43l84 169
h122v-2z" />
    <glyph glyph-name="uni1EEA" unicode="&#x1eea;" horiz-adv-x="818" 
d="M394 -12q-141 0 -222 85t-81 233v394h97v-396q0 -107 55 -167t153 -60t153 60t55 170v393h30q61 0 88.5 20.5t27.5 65.5q0 14 -2 27t-6 28h85q3 -11 5 -24t2 -27q0 -61 -34.5 -98.5t-102.5 -50.5v-335q0 -149 -80.5 -233.5t-222.5 -84.5zM341 913l82 -141h-49l-166 139v2
h133z" />
    <glyph glyph-name="uni1EEB" unicode="&#x1eeb;" horiz-adv-x="625" 
d="M520 0h-91v94q-43 -55 -85 -79.5t-93 -24.5q-79 0 -127.5 53t-48.5 142v315h91v-306q0 -58 29.5 -90.5t81.5 -32.5q38 0 72.5 20.5t79.5 69.5v339h29q55 0 80 15t25 48q0 11 -2 21.5t-6 22.5h80q3 -9 5 -20.5t2 -23.5q0 -48 -31 -78t-91 -40v-445zM237 772l84 -169h-43
l-163 167v2h122z" />
    <glyph glyph-name="uni1EEC" unicode="&#x1eec;" horiz-adv-x="818" 
d="M394 -12q-141 0 -222 85t-81 233v394h97v-396q0 -107 55 -167t153 -60t153 60t55 170v393h30q61 0 88.5 20.5t27.5 65.5q0 14 -2 27t-6 28h85q3 -11 5 -24t2 -27q0 -61 -34.5 -98.5t-102.5 -50.5v-335q0 -149 -80.5 -233.5t-222.5 -84.5zM517 877q0 -29 -23.5 -52
t-91.5 -58l-51 14v2q58 35 76.5 50.5t18.5 29.5q0 12 -11.5 19t-33.5 7q-27 0 -55 -9t-59 -28h-2v61q31 18 60 26t61 8q52 0 81.5 -18.5t29.5 -51.5z" />
    <glyph glyph-name="uni1EED" unicode="&#x1eed;" horiz-adv-x="625" 
d="M520 0h-91v94q-43 -55 -85 -79.5t-93 -24.5q-79 0 -127.5 53t-48.5 142v315h91v-306q0 -58 29.5 -90.5t81.5 -32.5q38 0 72.5 20.5t79.5 69.5v339h29q55 0 80 15t25 48q0 11 -2 21.5t-6 22.5h80q3 -9 5 -20.5t2 -23.5q0 -48 -31 -78t-91 -40v-445zM420 734
q0 -31 -23.5 -60.5t-91.5 -77.5l-51 15v2q58 48 76.5 68.5t18.5 38.5q0 15 -11.5 24t-31.5 9q-26 0 -54 -12.5t-60 -37.5h-2v73q28 22 58.5 33t65.5 11q48 0 77 -23.5t29 -62.5z" />
    <glyph glyph-name="uni1EEE" unicode="&#x1eee;" horiz-adv-x="818" 
d="M394 -12q-141 0 -222 85t-81 233v394h97v-396q0 -107 55 -167t153 -60t153 60t55 170v393h30q61 0 88.5 20.5t27.5 65.5q0 14 -2 27t-6 28h85q3 -11 5 -24t2 -27q0 -61 -34.5 -98.5t-102.5 -50.5v-335q0 -149 -80.5 -233.5t-222.5 -84.5zM409 870q30 -17 43 -22t21 -5
q14 0 25.5 10t47.5 55l39 -28q-43 -67 -66.5 -88t-51.5 -21q-13 0 -30.5 6.5t-55.5 28.5q-30 17 -43 22t-21 5q-14 0 -25.5 -10t-47.5 -55l-39 28q43 67 66.5 88t51.5 21q13 0 30.5 -6.5t55.5 -28.5z" />
    <glyph glyph-name="uni1EEF" unicode="&#x1eef;" horiz-adv-x="625" 
d="M520 0h-91v94q-43 -55 -85 -79.5t-93 -24.5q-79 0 -127.5 53t-48.5 142v315h91v-306q0 -58 29.5 -90.5t81.5 -32.5q38 0 72.5 20.5t79.5 69.5v339h29q55 0 80 15t25 48q0 11 -2 21.5t-6 22.5h80q3 -9 5 -20.5t2 -23.5q0 -48 -31 -78t-91 -40v-445zM314 711
q30 -19 42.5 -25t19.5 -6q12 0 23 11t48 64l45 -28q-46 -79 -69.5 -102t-52.5 -23q-13 0 -31 8t-57 33q-30 19 -42.5 25t-19.5 6q-11 0 -21.5 -10t-49.5 -65l-45 27q46 79 69.5 102.5t52.5 23.5q13 0 31 -8t57 -33z" />
    <glyph glyph-name="uni1EF0" unicode="&#x1ef0;" horiz-adv-x="818" 
d="M394 -12q-141 0 -222 85t-81 233v394h97v-396q0 -107 55 -167t153 -60t153 60t55 170v393h30q61 0 88.5 20.5t27.5 65.5q0 14 -2 27t-6 28h85q3 -11 5 -24t2 -27q0 -61 -34.5 -98.5t-102.5 -50.5v-335q0 -149 -80.5 -233.5t-222.5 -84.5zM395 -215q-26 0 -44 18t-18 44
t18 44t44 18t44 -18t18 -44t-18 -44t-44 -18z" />
    <glyph glyph-name="uni1EF1" unicode="&#x1ef1;" horiz-adv-x="625" 
d="M520 0h-91v94q-43 -55 -85 -79.5t-93 -24.5q-79 0 -127.5 53t-48.5 142v315h91v-306q0 -58 29.5 -90.5t81.5 -32.5q38 0 72.5 20.5t79.5 69.5v339h29q55 0 80 15t25 48q0 11 -2 21.5t-6 22.5h80q3 -9 5 -20.5t2 -23.5q0 -48 -31 -78t-91 -40v-445zM298 -210q-26 0 -44 18
t-18 44t18 44t44 18t44 -18t18 -44t-18 -44t-44 -18z" />
    <glyph glyph-name="Ygrave" unicode="&#x1ef2;" horiz-adv-x="668" 
d="M382 313v-313h-96v313l-273 387h115l208 -302l208 302h111zM280 913l82 -141h-49l-166 139v2h133z" />
    <glyph glyph-name="ygrave" unicode="&#x1ef3;" horiz-adv-x="548" 
d="M122 -194q-23 0 -44 4.5t-41 14.5l-18 91l3 2q23 -14 43 -20.5t42 -6.5q36 0 61.5 21t44.5 65l22 51l-212 472h100l158 -369l148 369h98l-231 -554q-29 -70 -72.5 -105t-101.5 -35zM213 772l84 -169h-43l-163 167v2h122z" />
    <glyph glyph-name="uni1EF4" unicode="&#x1ef4;" horiz-adv-x="668" 
d="M382 313v-313h-96v313l-273 387h115l208 -302l208 302h111zM334 -210q-26 0 -44 18t-18 44t18 44t44 18t44 -18t18 -44t-18 -44t-44 -18z" />
    <glyph glyph-name="uni1EF5" unicode="&#x1ef5;" horiz-adv-x="548" 
d="M122 -194q-23 0 -44 4.5t-41 14.5l-18 91l3 2q23 -14 43 -20.5t42 -6.5q36 0 61.5 21t44.5 65l22 51l-212 472h100l158 -369l148 369h98l-231 -554q-29 -70 -72.5 -105t-101.5 -35zM449 -210q-26 0 -44 18t-18 44t18 44t44 18t44 -18t18 -44t-18 -44t-44 -18z" />
    <glyph glyph-name="uni1EF6" unicode="&#x1ef6;" horiz-adv-x="668" 
d="M382 313v-313h-96v313l-273 387h115l208 -302l208 302h111zM456 877q0 -29 -23.5 -52t-91.5 -58l-51 14v2q58 35 76.5 50.5t18.5 29.5q0 12 -11.5 19t-33.5 7q-27 0 -55 -9t-59 -28h-2v61q31 18 60 26t61 8q52 0 81.5 -18.5t29.5 -51.5z" />
    <glyph glyph-name="uni1EF7" unicode="&#x1ef7;" horiz-adv-x="548" 
d="M122 -194q-23 0 -44 4.5t-41 14.5l-18 91l3 2q23 -14 43 -20.5t42 -6.5q36 0 61.5 21t44.5 65l22 51l-212 472h100l158 -369l148 369h98l-231 -554q-29 -70 -72.5 -105t-101.5 -35zM396 734q0 -31 -23.5 -60.5t-91.5 -77.5l-51 15v2q58 48 76.5 68.5t18.5 38.5
q0 15 -11.5 24t-31.5 9q-26 0 -54 -12.5t-60 -37.5h-2v73q28 22 58.5 33t65.5 11q48 0 77 -23.5t29 -62.5z" />
    <glyph glyph-name="uni1EF8" unicode="&#x1ef8;" horiz-adv-x="668" 
d="M382 313v-313h-96v313l-273 387h115l208 -302l208 302h111zM348 870q30 -17 43 -22t21 -5q14 0 25.5 10t47.5 55l39 -28q-43 -67 -66.5 -88t-51.5 -21q-13 0 -30.5 6.5t-55.5 28.5q-30 17 -43 22t-21 5q-14 0 -25.5 -10t-47.5 -55l-39 28q43 67 66.5 88t51.5 21
q13 0 30.5 -6.5t55.5 -28.5z" />
    <glyph glyph-name="uni1EF9" unicode="&#x1ef9;" horiz-adv-x="548" 
d="M122 -194q-23 0 -44 4.5t-41 14.5l-18 91l3 2q23 -14 43 -20.5t42 -6.5q36 0 61.5 21t44.5 65l22 51l-212 472h100l158 -369l148 369h98l-231 -554q-29 -70 -72.5 -105t-101.5 -35zM290 711q30 -19 42.5 -25t19.5 -6q12 0 23 11t48 64l45 -28q-46 -79 -69.5 -102
t-52.5 -23q-13 0 -31 8t-57 33q-30 19 -42.5 25t-19.5 6q-11 0 -21.5 -10t-49.5 -65l-45 27q46 79 69.5 102.5t52.5 23.5q13 0 31 -8t57 -33z" />
    <glyph glyph-name="uni2002" unicode="&#x2002;" horiz-adv-x="500" 
 />
    <glyph glyph-name="uni2003" unicode="&#x2003;" horiz-adv-x="1000" 
 />
    <glyph glyph-name="uni2004" unicode="&#x2004;" horiz-adv-x="333" 
 />
    <glyph glyph-name="uni2005" unicode="&#x2005;" horiz-adv-x="250" 
 />
    <glyph glyph-name="uni2007" unicode="&#x2007;" horiz-adv-x="600" 
 />
    <glyph glyph-name="uni2009" unicode="&#x2009;" horiz-adv-x="125" 
 />
    <glyph glyph-name="uni200A" unicode="&#x200a;" horiz-adv-x="42" 
 />
    <glyph glyph-name="uni2011" unicode="&#x2011;" horiz-adv-x="389" 
d="M64 232v85h261v-85h-261z" />
    <glyph glyph-name="figuredash" unicode="&#x2012;" horiz-adv-x="600" 
d="M80 307v86h440v-86h-440z" />
    <glyph glyph-name="endash" unicode="&#x2013;" horiz-adv-x="552" 
d="M64 233v82h424v-82h-424z" />
    <glyph glyph-name="emdash" unicode="&#x2014;" horiz-adv-x="932" 
d="M64 233v82h804v-82h-804z" />
    <glyph glyph-name="uni2015" unicode="&#x2015;" horiz-adv-x="932" 
d="M64 233v82h804v-82h-804z" />
    <glyph glyph-name="quoteleft" unicode="&#x2018;" horiz-adv-x="218" 
d="M120 543q0 -24 9.5 -46.5t47.5 -79.5h-96q-24 34 -34 59.5t-10 52.5q0 23 10.5 47.5t33.5 51.5q8 11 19 22.5t58 57.5l30 -22q-38 -52 -53 -84.5t-15 -58.5z" />
    <glyph glyph-name="quoteright" unicode="&#x2019;" horiz-adv-x="218" 
d="M98 574q0 24 -9.5 46.5t-47.5 79.5h95q25 -34 35 -59t10 -53q0 -23 -10.5 -47.5t-33.5 -51.5q-8 -10 -17.5 -20.5t-59.5 -60.5l-30 23q38 52 53 84.5t15 58.5z" />
    <glyph glyph-name="quotesinglbase" unicode="&#x201a;" horiz-adv-x="197" 
d="M79 -11q0 24 -9.5 46.5t-47.5 79.5h95q25 -34 35 -59t10 -53q0 -23 -10.5 -47.5t-33.5 -51.5q-8 -10 -17.5 -20.5t-59.5 -60.5l-30 23q38 52 53 84.5t15 58.5z" />
    <glyph glyph-name="quotedblleft" unicode="&#x201c;" horiz-adv-x="410" 
d="M313 543q0 -25 10 -48.5t47 -77.5h-96q-25 34 -35 59t-10 53q0 32 20.5 66.5t101.5 112.5l30 -22q-37 -50 -52.5 -83t-15.5 -60zM120 543q0 -24 9.5 -46.5t47.5 -79.5h-96q-24 34 -34 59.5t-10 52.5q0 23 10.5 47.5t33.5 51.5q8 11 19 22.5t58 57.5l30 -22
q-38 -52 -53 -84.5t-15 -58.5z" />
    <glyph glyph-name="quotedblright" unicode="&#x201d;" horiz-adv-x="410" 
d="M98 574q0 24 -9.5 46.5t-47.5 79.5h95q25 -34 35 -59t10 -53q0 -23 -10.5 -47.5t-33.5 -51.5q-8 -10 -17.5 -20.5t-59.5 -60.5l-30 23q38 52 53 84.5t15 58.5zM290 574q0 25 -10 48.5t-47 77.5h96q24 -33 34 -58.5t10 -53.5q0 -23 -10.5 -47.5t-33.5 -51.5
q-8 -10 -17.5 -20.5t-59.5 -60.5l-30 23q37 50 52.5 83t15.5 60z" />
    <glyph glyph-name="quotedblbase" unicode="&#x201e;" horiz-adv-x="390" 
d="M79 -11q0 24 -9.5 46.5t-47.5 79.5h95q25 -34 35 -59t10 -53q0 -23 -10.5 -47.5t-33.5 -51.5q-8 -10 -17.5 -20.5t-59.5 -60.5l-30 23q38 52 53 84.5t15 58.5zM271 -11q0 25 -10 48.5t-47 77.5h96q24 -33 34 -58.5t10 -53.5q0 -23 -10.5 -47.5t-33.5 -51.5
q-8 -10 -17.5 -20.5t-59.5 -60.5l-30 23q37 50 52.5 83t15.5 60z" />
    <glyph glyph-name="uni201F" unicode="&#x201f;" horiz-adv-x="410" 
d="M274 700h96q-37 -54 -47 -77.5t-10 -48.5q0 -27 15.5 -60t52.5 -83l-30 -23q-47 47 -58 58.5t-20 21.5q-23 28 -33.5 52.5t-10.5 47.5q0 28 10 53t35 59zM81 700h96q-38 -57 -47.5 -79.5t-9.5 -46.5q0 -26 15 -58.5t53 -84.5l-30 -23q-50 50 -59.5 60.5t-17.5 20.5
q-23 27 -33.5 51.5t-10.5 47.5q0 27 10 52.5t34 59.5z" />
    <glyph glyph-name="dagger" unicode="&#x2020;" horiz-adv-x="532" 
d="M257 534l-41 170h100l-41 -170h-18zM304 504l170 42v-100l-170 41v17zM228 504v-17l-170 -41v100zM256 -10l-36 298l37 170h18l37 -170l-36 -298h-20z" />
    <glyph glyph-name="daggerdbl" unicode="&#x2021;" horiz-adv-x="532" 
d="M257 534l-41 170h100l-41 -170h-18zM304 504l170 42v-100l-170 41v17zM228 504v-17l-170 -41v100zM257 242l-37 108l37 108h18l37 -108l-37 -108h-18zM228 212v-17l-170 -41v100zM304 212l170 42v-100l-170 41v17zM275 166l41 -170h-100l41 170h18z" />
    <glyph glyph-name="bullet" unicode="&#x2022;" horiz-adv-x="498" 
d="M249 207q-59 0 -101.5 42.5t-42.5 101.5t42.5 101.5t101.5 42.5t101.5 -42.5t42.5 -101.5t-42.5 -101.5t-101.5 -42.5z" />
    <glyph glyph-name="ellipsis" unicode="&#x2026;" horiz-adv-x="599" 
d="M500 -9q-26 0 -45 19t-19 45q0 27 18.5 46t45.5 19t45.5 -19t18.5 -46q0 -26 -19 -45t-45 -19zM299 -9q-26 0 -45 19t-19 45t19 45.5t45 19.5q27 0 45.5 -19t18.5 -46q0 -26 -19 -45t-45 -19zM99 -9q-26 0 -45 19t-19 45q0 27 18.5 46t45.5 19t45.5 -19t18.5 -46
q0 -26 -19 -45t-45 -19z" />
    <glyph glyph-name="uni202F" unicode="&#x202f;" horiz-adv-x="125" 
 />
    <glyph glyph-name="guilsinglleft" unicode="&#x2039;" horiz-adv-x="382" 
d="M288 507l34 -18l-167 -238l167 -240l-34 -18l-241 249v16z" />
    <glyph glyph-name="guilsinglright" unicode="&#x203a;" horiz-adv-x="382" 
d="M94 -7l-34 18l167 238l-167 240l34 18l241 -249v-16z" />
    <glyph glyph-name="fraction" unicode="&#x2044;" horiz-adv-x="102" 
d="M-149 -2h-74l252 366l222 338h74l-252 -366z" />
    <glyph glyph-name="uni20A6" unicode="&#x20a6;" horiz-adv-x="887" 
d="M223 453h108l-108 174v-174zM520 304h144v94h-202zM223 304h201l-59 94h-142v-94zM554 250l110 -178v178h-110zM750 0h-137l-154 247h-236v-247h-86v247h-102v57h102v94h-102v58h102v244h137l152 -244h238v244h86v-244h102v-58h-102v-94h102v-57h-102v-247z" />
    <glyph glyph-name="uni20A9" unicode="&#x20a9;" horiz-adv-x="1142" 
d="M521 452h99l-49 188zM739 305h123l22 93h-170zM483 305h175l-24 93h-127zM283 305h123l24 93h-169zM753 251l51 -196l46 196h-97zM295 251l46 -194l51 194h-97zM402 -4h-128l-65 252h-156v57h142l-24 93h-120v57h105l-63 245h97l58 -245h197l66 251h123l65 -251h198
l58 245h93l-63 -245h106v-57h-121l-24 -93h142v-57h-156l-65 -252h-128l-66 252h-205z" />
    <glyph glyph-name="dong" unicode="&#x20ab;" horiz-adv-x="612" 
d="M138 220q0 -69 39.5 -110t103.5 -41q35 0 65.5 12.5t65.5 40.5v219q-30 18 -58 26.5t-60 8.5q-69 0 -112.5 -43t-43.5 -113zM499 -1h-85v63q-38 -38 -75 -55t-80 -17q-90 0 -150 63t-60 161q0 104 66 171.5t158 67.5q38 0 72.5 -11t66.5 -33v147h-176v57h176v87h87v-87
h87v-57h-87v-557zM509 -159h-451v57h451v-57z" />
    <glyph glyph-name="Euro" unicode="&#x20ac;" horiz-adv-x="677" 
d="M620 130l-14 -99q-45 -25 -82.5 -34t-93.5 -9q-113 0 -187.5 68t-96.5 192h-114v58h106q-1 7 -1 16v27q0 8 0.5 18l1.5 30h-107v57h115q25 120 101 189t185 69q51 0 93 -11t89 -36v-99h-2q-57 35 -95 48.5t-78 13.5q-75 0 -127 -45.5t-72 -128.5h283v-57h-292l-1.5 -28.5
t-0.5 -17.5q0 -9 0.5 -19t1.5 -26h292v-58h-283q19 -84 70 -130t124 -46q49 0 88.5 12.5t94.5 45.5h2z" />
    <glyph glyph-name="uni20B1" unicode="&#x20b1;" horiz-adv-x="666" 
d="M323 620h-102v-124h267q-8 58 -52 91t-113 33zM221 321h102q69 0 112 32.5t52 90.5h-266v-123zM319 241h-98v-241h-86v441h-101v58h101v201h191q110 0 177 -53t75 -148h76v-58h-77q-12 -92 -82 -146t-176 -54z" />
    <glyph glyph-name="uni20B9" unicode="&#x20b9;" horiz-adv-x="621" 
d="M249 227l290 -225v-2h-132l-346 270l4 14h50q100 0 160 35.5t71 102.5h-281v58h282q-10 67 -69.5 102t-160.5 35h-57v83h498v-57h-231q50 -26 80 -67.5t36 -95.5h111v-58h-112q-9 -73 -58.5 -123t-134.5 -72z" />
    <glyph glyph-name="uni20BA" unicode="&#x20ba;" horiz-adv-x="610" 
d="M267 -5q-31 0 -63.5 4.5t-68.5 13.5v207l-101 -47v79l101 45v103l-101 -47v79l101 45v223h91v-182l222 102v-79l-222 -99v-104l222 102v-79l-222 -99v-181q11 -2 23 -3t26 -1q93 0 164 51t116 149h2l28 -102q-44 -85 -127 -132.5t-191 -47.5z" />
    <glyph glyph-name="uni20BD" unicode="&#x20bd;" horiz-adv-x="605" 
d="M325 618h-99v-263h90q74 0 115.5 35.5t41.5 100.5q0 60 -39 93.5t-109 33.5zM506 204v-57h-278v-147h-93v147h-101v57h101v91h-101v57h101v348h194q111 0 174.5 -52.5t63.5 -145.5q0 -97 -68 -152t-185 -55h-86v-91h278z" />
    <glyph glyph-name="uni2117" unicode="&#x2117;" horiz-adv-x="890" 
d="M160 68q-57 55 -87.5 128t-30.5 153t31 153t88 129q57 55 131 85t154 30q81 0 154 -29.5t130 -84.5t87.5 -128t30.5 -153t-31 -153t-88 -129q-57 -55 -131 -85t-154 -30q-81 0 -154 29.5t-130 84.5zM444 715q-155 0 -262.5 -106t-107.5 -258q0 -153 108.5 -259.5
t263.5 -106.5t262.5 106t107.5 258q0 153 -108.5 259.5t-263.5 106.5zM461 525h-76v-176h76q49 0 77 24t28 67q0 39 -28.5 62t-76.5 23zM633 440q0 -66 -48.5 -106t-126.5 -40h-73v-169h-66v455h144q79 0 124.5 -37t45.5 -103z" />
    <glyph glyph-name="uni2120" unicode="&#x2120;" horiz-adv-x="965" 
d="M174 476q-72 29 -96 56t-24 65q0 49 37 79.5t97 30.5q32 0 60 -7.5t53 -22.5v-70q-28 19 -59.5 30t-58.5 11q-28 0 -45 -12t-17 -32q0 -19 15 -33t66 -36q71 -29 94 -56t23 -64q0 -52 -38.5 -83.5t-101.5 -31.5q-34 0 -65.5 10t-56.5 29l-11 74q36 -26 72 -40.5t66 -14.5
q31 0 51 14.5t20 37.5q0 18 -15 31.5t-66 34.5zM652 300h-11l-167 330v-324h-63v394h98l139 -280l139 280h98v-394h-66v322z" />
    <glyph glyph-name="trademark" unicode="&#x2122;" horiz-adv-x="1014" 
d="M385 700v-60h-145v-334h-67v334h-145v60h357zM702 300h-11l-167 328v-322h-64v394h98l139 -279l139 279h98v-394h-65v324z" />
    <glyph glyph-name="onethird" unicode="&#x2153;" horiz-adv-x="836" 
d="M219 705v-418h-71v311l-117 -70v75l178 105zM189 -2h-74l252 366l222 338h74l-252 -366zM795 111q0 -51 -42.5 -84t-104.5 -33q-34 0 -62.5 7.5t-60.5 25.5l-10 74l2 1q36 -24 67 -35.5t60 -11.5q34 0 56 16t22 42q0 31 -31.5 49t-107.5 31v30q74 24 102 42.5t28 45.5
q0 22 -17 34.5t-47 12.5q-26 0 -54.5 -12t-64.5 -38h-2v72q34 21 64 30t64 9q59 0 94.5 -28t35.5 -74q0 -31 -21.5 -57t-63.5 -45q45 -13 69.5 -40t24.5 -64z" />
    <glyph glyph-name="twothirds" unicode="&#x2154;" horiz-adv-x="907" 
d="M306 287h-265l-8 24l147 170q33 38 44.5 59.5t11.5 42.5q0 26 -17 42.5t-45 16.5q-30 0 -59.5 -18.5t-63.5 -61.5h-2l-9 75q29 35 64 52t75 17q58 0 93.5 -31.5t35.5 -83.5q0 -34 -14.5 -63.5t-55.5 -74.5l-92 -104h189zM260 -2h-74l252 366l222 338h74l-252 -366z
M865 111q0 -51 -42.5 -84t-104.5 -33q-34 0 -62.5 7.5t-60.5 25.5l-10 74l2 1q36 -24 67 -35.5t60 -11.5q34 0 56 16t22 42q0 31 -31.5 49t-107.5 31v30q74 24 102 42.5t28 45.5q0 22 -17 34.5t-47 12.5q-26 0 -54.5 -12t-64.5 -38h-2v72q34 21 64 30t64 9q59 0 94.5 -28
t35.5 -74q0 -31 -21.5 -57t-63.5 -45q45 -13 69.5 -40t24.5 -64z" />
    <glyph glyph-name="oneeighth" unicode="&#x215b;" horiz-adv-x="847" 
d="M219 705v-418h-71v311l-117 -70v75l178 105zM189 -2h-74l252 366l222 338h74l-252 -366zM807 109q0 -51 -44 -83.5t-114 -32.5q-69 0 -113 32.5t-44 83.5q0 34 19.5 60.5t55.5 41.5q-30 14 -46 39t-16 56q0 50 40 82t104 32t104.5 -32t40.5 -82q0 -31 -16.5 -55.5
t-46.5 -39.5q36 -15 56 -41.5t20 -60.5zM649 364q-34 0 -54.5 -17.5t-20.5 -45.5t21 -46.5t54 -18.5q34 0 55 18.5t21 46.5t-21 45.5t-55 17.5zM649 183q-38 0 -62.5 -19t-24.5 -49t23.5 -48t63.5 -18t64 18t24 48t-25 49t-63 19z" />
    <glyph glyph-name="threeeighths" unicode="&#x215c;" horiz-adv-x="888" 
d="M312 398q0 -51 -42.5 -84t-104.5 -33q-34 0 -62.5 7.5t-60.5 25.5l-10 74l2 1q36 -24 67 -35.5t60 -11.5q34 0 56 16t22 42q0 31 -31.5 49t-107.5 31v30q74 24 102 42.5t28 45.5q0 22 -17 34.5t-47 12.5q-26 0 -54.5 -12t-64.5 -38h-2v72q34 21 64 30t64 9q59 0 94.5 -28
t35.5 -74q0 -31 -21.5 -57t-63.5 -45q45 -13 69.5 -40t24.5 -64zM230 -2h-74l252 366l222 338h74l-252 -366zM848 109q0 -51 -44 -83.5t-114 -32.5q-69 0 -113 32.5t-44 83.5q0 34 19.5 60.5t55.5 41.5q-30 14 -46 39t-16 56q0 50 40 82t104 32t104.5 -32t40.5 -82
q0 -31 -16.5 -55.5t-46.5 -39.5q36 -15 56 -41.5t20 -60.5zM690 364q-34 0 -54.5 -17.5t-20.5 -45.5t21 -46.5t54 -18.5q34 0 55 18.5t21 46.5t-21 45.5t-55 17.5zM690 183q-38 0 -62.5 -19t-24.5 -49t23.5 -48t63.5 -18t64 18t24 48t-25 49t-63 19z" />
    <glyph glyph-name="fiveeighths" unicode="&#x215d;" horiz-adv-x="904" 
d="M333 418q0 -61 -46 -99.5t-119 -38.5q-32 0 -60.5 6.5t-54.5 19.5l-9 68l2 1q34 -18 62 -26t55 -8q45 0 72 21t27 57q0 33 -25 51.5t-70 18.5q-22 0 -48.5 -5t-53.5 -14l-7 4l15 226h240v-63h-182l-8 -96q12 3 27.5 4.5t31.5 1.5q70 0 110.5 -34.5t40.5 -94.5zM245 -2
h-74l252 366l222 338h74l-252 -366zM863 109q0 -51 -44 -83.5t-114 -32.5q-69 0 -113 32.5t-44 83.5q0 34 19.5 60.5t55.5 41.5q-30 14 -46 39t-16 56q0 50 40 82t104 32t104.5 -32t40.5 -82q0 -31 -16.5 -55.5t-46.5 -39.5q36 -15 56 -41.5t20 -60.5zM705 364
q-34 0 -54.5 -17.5t-20.5 -45.5t21 -46.5t54 -18.5q34 0 55 18.5t21 46.5t-21 45.5t-55 17.5zM705 183q-38 0 -62.5 -19t-24.5 -49t23.5 -48t63.5 -18t64 18t24 48t-25 49t-63 19z" />
    <glyph glyph-name="seveneighths" unicode="&#x215e;" horiz-adv-x="843" 
d="M343 692l-195 -405h-77l174 351h-200l-13 62h306zM184 -2h-74l252 366l222 338h74l-252 -366zM802 109q0 -51 -44 -83.5t-114 -32.5q-69 0 -113 32.5t-44 83.5q0 34 19.5 60.5t55.5 41.5q-30 14 -46 39t-16 56q0 50 40 82t104 32t104.5 -32t40.5 -82q0 -31 -16.5 -55.5
t-46.5 -39.5q36 -15 56 -41.5t20 -60.5zM644 364q-34 0 -54.5 -17.5t-20.5 -45.5t21 -46.5t54 -18.5q34 0 55 18.5t21 46.5t-21 45.5t-55 17.5zM644 183q-38 0 -62.5 -19t-24.5 -49t23.5 -48t63.5 -18t64 18t24 48t-25 49t-63 19z" />
    <glyph glyph-name="minus" unicode="&#x2212;" horiz-adv-x="600" 
d="M550 390v-80h-500v80h500z" />
    <glyph glyph-name="approxequal" unicode="&#x2248;" horiz-adv-x="600" 
d="M191 571q16 0 42 -11.5t83 -48.5q45 -29 62.5 -37.5t27.5 -8.5q19 0 35.5 21t47.5 82l53 -28q-41 -92 -71 -128.5t-67 -36.5q-16 0 -42 11.5t-83 47.5q-45 29 -62.5 37.5t-27.5 8.5q-19 0 -35.5 -20.5t-47.5 -81.5l-54 27q43 94 72.5 130t66.5 36zM196 326q16 0 42 -11.5
t83 -47.5q45 -29 62.5 -37.5t27.5 -8.5q19 0 36 21t47 81l54 -27q-42 -94 -72 -130t-67 -36q-16 0 -42 11.5t-83 47.5q-45 29 -62.5 37.5t-27.5 8.5q-19 0 -36 -21t-47 -81l-53 27q41 93 71 129.5t67 36.5z" />
    <glyph glyph-name="notequal" unicode="&#x2260;" horiz-adv-x="600" 
d="M540 290v-80h-275l-63 -134l-52 24l52 110h-142v80h180l56 120h-236v80h274l64 135l52 -24l-52 -111h142v-80h-180l-57 -120h237z" />
    <glyph glyph-name="uni237F" unicode="&#x237f;" horiz-adv-x="579" 
d="M329 209v-299h-79v299q-49 11 -81 50.5t-32 90.5t32 90.5t81 50.5v289h79v-289q49 -11 81 -50.5t32 -90.5t-32 -90.5t-81 -50.5z" />
    <glyph glyph-name="uniA788" unicode="&#xa788;" horiz-adv-x="500" 
d="M419 -250h-42l-126 96l-126 -96h-44v2l128 167h82l128 -167v-2z" />
    <glyph glyph-name="G.alt" horiz-adv-x="798" 
d="M748 364v-20q0 -164 -93.5 -261t-248.5 -97q-153 0 -252 101t-99 259t104 262.5t260 104.5q81 0 150.5 -27t129.5 -83l-23 -105l-2 -1q-62 64 -125 94t-132 30q-111 0 -187 -79.5t-76 -195.5q0 -119 72 -194.5t181 -75.5q96 0 159 53t80 147h-237v88h339z" />
    <glyph glyph-name="Q.alt" horiz-adv-x="845" 
d="M154 353q0 -116 76 -195t186 -79q44 0 83.5 13t74.5 39l-132 109l63 72l132 -116q25 35 37.5 75t12.5 85q0 111 -78.5 189.5t-190.5 78.5q-110 0 -187 -78.5t-77 -192.5zM793 65l-64 -71l-84 76q-49 -39 -107 -59.5t-122 -20.5q-153 0 -257 104.5t-104 256.5
q0 154 106 258.5t261 104.5q154 0 259 -103t105 -253q0 -61 -20 -118t-57 -105z" />
    <glyph glyph-name="a.alt" horiz-adv-x="618" 
d="M137 242q0 -76 42 -123t108 -47q42 0 78 16.5t76 53.5v265q-28 11 -56.5 16t-61.5 5q-80 0 -133 -53t-53 -133zM551 0h-90l-15 81q-44 -49 -86 -70t-95 -21q-93 0 -157 70t-64 175q0 119 80 196t197 77q36 0 69 -7t68 -21l62 20h11v-347z" />
    <glyph glyph-name="a.sc" horiz-adv-x="663" 
d="M221 212h221l-109 253zM631 0h-99l-58 134h-286l-60 -134h-96l258 560h91z" />
    <glyph glyph-name="b.sc" horiz-adv-x="553" 
d="M502 158q0 -72 -55 -115t-147 -43h-213v557h210q84 0 132.5 -39t48.5 -108q0 -40 -21.5 -70.5t-63.5 -50.5q53 -16 81 -49.5t28 -81.5zM291 478h-116v-156h107q49 0 77.5 21.5t28.5 59.5q0 35 -26 55t-71 20zM175 244v-165h127q50 0 79 23t29 62q0 38 -29.5 59t-82.5 21
h-123z" />
    <glyph glyph-name="c.sc" horiz-adv-x="597" 
d="M334 -12q-121 0 -201.5 81.5t-80.5 208.5q0 123 84.5 206.5t207.5 83.5q54 0 101 -17t87 -50v-109h-2q-46 46 -92.5 69t-93.5 23q-82 0 -140.5 -59.5t-58.5 -144.5q0 -90 57.5 -149t140.5 -59q52 0 101 22t96 67l2 -1l-13 -104q-45 -35 -93 -51.5t-102 -16.5z" />
    <glyph glyph-name="d.sc" horiz-adv-x="648" 
d="M503 278q0 91 -61 144t-164 53h-100v-394h102q99 0 161 54t62 143zM279 0h-192v557h192q146 0 231.5 -75t85.5 -203q0 -125 -88 -202t-229 -77z" />
    <glyph glyph-name="e.sc" horiz-adv-x="519" 
d="M444 0h-357v557h355l23 -82h-288v-153h243v-80h-243v-161h291z" />
    <glyph glyph-name="f.sc" horiz-adv-x="488" 
d="M406 310v-80h-228v-230h-91v557h370l-24 -82h-255v-165h228z" />
    <glyph glyph-name="g.sc" horiz-adv-x="652" 
d="M572 295v-235q-56 -36 -111 -52t-119 -16q-130 0 -210 78t-80 206q0 127 87.5 209.5t222.5 82.5q54 0 101.5 -11t94.5 -35v-97q-53 31 -100 45t-96 14q-94 0 -155.5 -58.5t-61.5 -148.5q0 -92 56.5 -147t149.5 -55q39 0 71.5 7.5t62.5 23.5v111h-151v78h238z" />
    <glyph glyph-name="g.scalt" horiz-adv-x="660" 
d="M611 294v-20q0 -132 -73.5 -209t-198.5 -77q-123 0 -205 82.5t-82 208.5q0 124 84 207t209 83q66 0 120.5 -20t103.5 -63l-24 -92h-2q-51 49 -97 70t-100 21q-86 0 -143.5 -59t-57.5 -147q0 -91 56 -150t140 -59q70 0 116 38.5t59 107.5h-180v78h275z" />
    <glyph glyph-name="h.sc" horiz-adv-x="675" 
d="M588 0h-91v242h-319v-242h-91v557h91v-232h319v232h91v-557z" />
    <glyph glyph-name="i.sc" horiz-adv-x="275" 
d="M183 0h-91v557h91v-557z" />
    <glyph glyph-name="j.sc" horiz-adv-x="397" 
d="M138 74q41 0 63 24t22 69v390h91v-403q0 -75 -43.5 -119t-116.5 -44q-28 0 -53 7t-50 21l-19 98h2q29 -23 54 -33t50 -10z" />
    <glyph glyph-name="k.sc" horiz-adv-x="589" 
d="M570 0h-118l-240 245h-34v-245h-91v557h91v-235h34l238 235h116v-2l-279 -269l283 -284v-2z" />
    <glyph glyph-name="l.sc" horiz-adv-x="484" 
d="M442 0h-355v557h91v-474h264v-83z" />
    <glyph glyph-name="m.sc" horiz-adv-x="861" 
d="M438 -10h-17l-244 480v-470h-89v557h142l201 -407l201 407h140v-557h-90v470z" />
    <glyph glyph-name="n.sc" horiz-adv-x="683" 
d="M596 -4h-41l-378 432v-428h-90v557h94l325 -375v375h90v-561z" />
    <glyph glyph-name="o.sc" horiz-adv-x="692" 
d="M347 571q124 0 208.5 -85t84.5 -207q0 -123 -85.5 -208t-208.5 -85q-124 0 -209 84.5t-85 206.5q0 123 85.5 208.5t209.5 85.5zM347 70q84 0 142 59.5t58 147.5q0 89 -58 149t-143 60t-143 -59.5t-58 -147.5t58.5 -148.5t143.5 -60.5z" />
    <glyph glyph-name="p.sc" horiz-adv-x="534" 
d="M282 475h-105v-204h99q57 0 91 28.5t34 76.5q0 45 -32.5 72t-86.5 27zM492 378q0 -86 -59 -136.5t-156 -50.5h-99v-191h-91v557h197q97 0 152.5 -47.5t55.5 -131.5z" />
    <glyph glyph-name="q.sc" horiz-adv-x="692" 
d="M530 -119q-64 0 -110 25.5t-93 84.5q-118 7 -196.5 89t-78.5 198q0 122 85.5 207.5t209.5 85.5t209 -84.5t85 -206.5q0 -95 -56.5 -171t-147.5 -104q25 -27 50.5 -39t59.5 -12q19 0 37.5 3.5t37.5 11.5l1 -2l-28 -77q-14 -4 -30.5 -6.5t-34.5 -2.5zM347 70
q84 0 142.5 59.5t58.5 147.5t-58.5 148.5t-143.5 60.5t-143 -59.5t-58 -147.5t58.5 -148.5t143.5 -60.5z" />
    <glyph glyph-name="q.scalt" horiz-adv-x="696" 
d="M145 279q0 -87 57 -147.5t137 -60.5q34 0 63.5 9t54.5 27l-102 91l55 57l102 -92q17 26 26 55.5t9 61.5q0 87 -58.5 146.5t-142.5 59.5q-85 0 -143 -59.5t-58 -147.5zM641 49l-56 -58l-64 58q-41 -29 -87 -44t-97 -15q-118 0 -201.5 85.5t-83.5 204.5q0 121 86 206
t209 85t208 -83.5t85 -202.5q0 -50 -16 -96t-46 -85z" />
    <glyph glyph-name="r.sc" horiz-adv-x="569" 
d="M288 476h-111v-186h107q48 0 78.5 26.5t30.5 67.5q0 42 -28.5 67t-76.5 25zM564 0h-112l-182 211h-92v-211h-91v557h202q92 0 144 -45t52 -125q0 -57 -32 -99t-89 -61z" />
    <glyph glyph-name="s.sc" horiz-adv-x="497" 
d="M248 486q-44 0 -70 -19t-26 -51q0 -30 25 -50t102 -47q92 -33 127.5 -71t35.5 -98q0 -70 -56 -115t-143 -45q-47 0 -94 15.5t-90 44.5l-17 105l2 1q51 -41 104 -63.5t99 -22.5q48 0 77 20.5t29 54.5q0 32 -26 52.5t-104 47.5q-94 34 -127.5 71t-33.5 97q0 67 53.5 110
t136.5 43q45 0 85.5 -10t80.5 -32v-97h-2q-43 29 -85.5 44t-82.5 15z" />
    <glyph glyph-name="t.sc" horiz-adv-x="608" 
d="M569 557v-84h-219v-473h-91v473h-220v84h530z" />
    <glyph glyph-name="u.sc" horiz-adv-x="654" 
d="M327 -10q-115 0 -181 68t-66 187v312h91v-312q0 -83 41.5 -129t116.5 -46q74 0 115.5 46.5t41.5 130.5v310h88v-312q0 -119 -66 -187t-181 -68z" />
    <glyph glyph-name="v.sc" horiz-adv-x="646" 
d="M346 -7h-53l-260 564h101l189 -431l195 431h96z" />
    <glyph glyph-name="w.sc" horiz-adv-x="977" 
d="M319 -3h-84l-195 560h100l143 -442l200 450h17l195 -450l149 442h96l-203 -560h-84l-164 384z" />
    <glyph glyph-name="x.sc" horiz-adv-x="620" 
d="M585 0h-107l-170 222l-168 -222h-104l220 282l-214 275h107l163 -214l162 214h104l-214 -274z" />
    <glyph glyph-name="y.sc" horiz-adv-x="590" 
d="M341 245v-245h-91v246l-231 311h109l170 -237l169 237h104z" />
    <glyph glyph-name="z.sc" horiz-adv-x="587" 
d="M544 79l-26 -79h-471l-5 14l341 464h-314v79h463l5 -15l-341 -463h348z" />
    <glyph glyph-name="quoteleftreversed" horiz-adv-x="218" 
d="M81 700h96q-38 -57 -47.5 -79.5t-9.5 -46.5q0 -26 15 -58.5t53 -84.5l-30 -23q-50 50 -59.5 60.5t-17.5 20.5q-23 27 -33.5 51.5t-10.5 47.5q0 27 10 52.5t34 59.5z" />
    <glyph glyph-name="guillemotleft.cap" horiz-adv-x="625" 
d="M531 611l33 -18l-157 -238l157 -240l-33 -18l-231 249v16zM278 611l34 -18l-157 -238l157 -240l-34 -18l-231 249v16z" />
    <glyph glyph-name="guillemotright.cap" horiz-adv-x="625" 
d="M94 97l-34 18l157 238l-157 240l34 18l231 -249v-16zM347 97l-34 18l157 238l-157 240l34 18l231 -249v-16z" />
    <glyph glyph-name="guilsinglleft.cap" horiz-adv-x="382" 
d="M288 611l34 -18l-167 -238l167 -240l-34 -18l-241 249v16z" />
    <glyph glyph-name="guilsinglright.cap" horiz-adv-x="382" 
d="M94 97l-34 18l167 238l-167 240l34 18l241 -249v-16z" />
    <glyph glyph-name="parenleft.cap" horiz-adv-x="409" 
d="M162 348q0 -117 56 -221.5t167 -193.5l-26 -30q-148 100 -216 207.5t-68 237.5t68 237.5t216 207.5l26 -30q-111 -89 -167 -193.5t-56 -221.5z" />
    <glyph glyph-name="parenright.cap" horiz-adv-x="409" 
d="M247 348q0 117 -56 221.5t-167 193.5l26 30q148 -100 216 -207.5t68 -237.5t-68 -237.5t-216 -207.5l-26 30q111 89 167 193.5t56 221.5z" />
    <glyph glyph-name="bracketleft.cap" horiz-adv-x="410" 
d="M363 -87h-256v870h256l13 -56h-185v-758h185z" />
    <glyph glyph-name="bracketright.cap" horiz-adv-x="410" 
d="M47 783h256v-870h-256l-13 56h185v758h-185z" />
    <glyph glyph-name="braceleft.cap" horiz-adv-x="492" 
d="M458 -31l-13 -56h-110q-86 0 -136.5 39.5t-50.5 107.5q0 21 6.5 44t27.5 66q16 33 21 48.5t5 28.5q0 30 -22 46t-76 24l-74 11v40l74 11q54 8 76 24t22 46q0 13 -5 28.5t-21 48.5q-21 43 -27.5 66t-6.5 44q0 68 50.5 107.5t136.5 39.5h110l13 -56h-104q-55 0 -84 -22
t-29 -63q0 -15 5 -32.5t21 -54.5q19 -41 24.5 -62t5.5 -39q0 -38 -22.5 -63t-74.5 -43q52 -18 74.5 -43t22.5 -63q0 -18 -5.5 -39t-24.5 -62q-16 -37 -21 -54.5t-5 -32.5q0 -41 29.5 -63t83.5 -22h104z" />
    <glyph glyph-name="braceright.cap" horiz-adv-x="492" 
d="M344 60q0 -68 -50.5 -107.5t-136.5 -39.5h-110l-13 56h104q55 0 84 22t29 63q0 15 -5 32.5t-21 54.5q-19 41 -24.5 62t-5.5 39q0 38 22.5 63t74.5 43q-52 18 -74.5 43t-22.5 63q0 18 5.5 39t24.5 62q16 37 21 54.5t5 32.5q0 41 -29.5 63t-83.5 22h-104l13 56h110
q86 0 136.5 -39.5t50.5 -107.5q0 -21 -6.5 -44t-27.5 -66q-16 -33 -21 -48.5t-5 -28.5q0 -30 22 -46t76 -24l74 -11v-40l-74 -11q-54 -8 -76 -24t-22 -46q0 -13 5 -28.5t21 -48.5q21 -43 27.5 -66t6.5 -44z" />
    <glyph glyph-name="slash.cap" horiz-adv-x="455" 
d="M88 -90h-78l352 870h78z" />
    <glyph glyph-name="bar.cap" horiz-adv-x="378" 
d="M228 780v-870h-78v870h78z" />
    <glyph glyph-name="backslash.cap" horiz-adv-x="455" 
d="M94 780l351 -870h-78l-351 870h78z" />
    <glyph glyph-name="hyphen.cap" horiz-adv-x="402" 
d="M68 314v85h266v-85h-266z" />
    <glyph glyph-name="endash.cap" horiz-adv-x="559" 
d="M68 315v82h424v-82h-424z" />
    <glyph glyph-name="emdash.cap" horiz-adv-x="939" 
d="M68 315v82h804v-82h-804z" />
    <glyph glyph-name="periodcentered.cap" horiz-adv-x="245" 
d="M122 276q-30 0 -52.5 22.5t-22.5 52.5t22.5 52.5t52.5 22.5q31 0 53 -22t22 -53t-22 -53t-53 -22z" />
    <glyph glyph-name="colon.fig" horiz-adv-x="248" 
d="M124 430q-28 0 -48 20t-20 48q0 27 20 47t48 20q27 0 47 -20t20 -47q0 -28 -19.5 -48t-47.5 -20zM124 135q-28 0 -48 20t-20 47q0 28 20 48t48 20t47.5 -20t19.5 -48q0 -27 -20 -47t-47 -20z" />
    <glyph glyph-name="paragraph.alt" horiz-adv-x="589" 
d="M434 0v700h62v-700h-62zM344 700v-700h-62v154h-13q-99 0 -160.5 54.5t-61.5 146.5q0 93 62 148t165 55h8v142h62z" />
    <glyph glyph-name="zero.osf" horiz-adv-x="632" 
d="M315 -14q-114 0 -189 78t-75 194q0 117 76 196t190 79t189 -78.5t75 -194.5t-76 -195t-190 -79zM491 258q0 82 -50.5 138t-125.5 56q-73 0 -123.5 -55.5t-50.5 -136.5q0 -82 50.5 -137.5t125.5 -55.5q73 0 123.5 55.5t50.5 135.5z" />
    <glyph glyph-name="one.osf" horiz-adv-x="395" 
d="M293 526v-526h-90v397l-167 -107v91l236 149z" />
    <glyph glyph-name="two.osf" horiz-adv-x="536" 
d="M502 79l-38 -79h-422l-5 16l238 216q55 49 75.5 79t20.5 59q0 37 -25 58.5t-67 21.5q-52 0 -101 -32t-103 -104h-2l-24 89q55 67 111.5 97.5t123.5 30.5q80 0 128.5 -43t48.5 -115q0 -43 -26 -84t-99 -107l-117 -103h283z" />
    <glyph glyph-name="three.osf" horiz-adv-x="540" 
d="M482 10q0 -89 -74 -146.5t-182 -57.5q-47 0 -87.5 6t-78.5 18l-16 93q44 -18 91.5 -27.5t93.5 -9.5q70 0 116.5 35t46.5 88q0 60 -58 89t-176 28l-10 41q121 48 173.5 90.5t52.5 92.5q0 43 -31 70.5t-80 27.5q-46 0 -92 -25t-104 -83h-2v105q49 43 99 63.5t107 20.5
q88 0 140.5 -47.5t52.5 -124.5q0 -53 -35 -97t-108 -82q76 -12 118.5 -57t42.5 -111z" />
    <glyph glyph-name="four.osf" horiz-adv-x="631" 
d="M153 75h234v339zM600 75v-75h-129v-191h-86v191h-362l-4 20l348 506h104v-451h129z" />
    <glyph glyph-name="five.osf" horiz-adv-x="570" 
d="M517 50q0 -113 -88.5 -178.5t-236.5 -65.5q-32 0 -60 3.5t-59 11.5l-14 92q38 -12 71.5 -17.5t65.5 -5.5q100 0 163 43t63 110q0 59 -42 92.5t-114 33.5q-43 0 -81.5 -6.5t-80.5 -20.5l-13 9v368h391v-86h-304v-192q24 6 50.5 9t57.5 3q100 0 165.5 -55.5t65.5 -147.5z
" />
    <glyph glyph-name="six.osf" horiz-adv-x="625" 
d="M575 234q0 -106 -72.5 -177t-188.5 -71q-119 0 -187.5 67t-68.5 183q0 70 30 139.5t109 180.5l138 193h109l-162 -224q-13 -17 -26 -36t-27 -42q31 11 63.5 16.5t63.5 5.5q93 0 156 -66.5t63 -168.5zM151 238q0 -79 44 -124.5t120 -45.5q72 0 120 47t48 116
q0 73 -48 116.5t-125 43.5q-29 0 -61 -4.5t-62 -12.5q-19 -37 -27.5 -70t-8.5 -66z" />
    <glyph glyph-name="seven.osf" horiz-adv-x="574" 
d="M539 506l-334 -697h-101l309 626h-350l-19 84h487z" />
    <glyph glyph-name="eight.osf" horiz-adv-x="613" 
d="M554 195q0 -88 -71 -147.5t-177 -59.5q-105 0 -175.5 58.5t-70.5 145.5q0 59 33.5 108.5t92.5 76.5q-49 27 -77.5 73.5t-28.5 100.5q0 85 65.5 145.5t162.5 60.5q96 0 160.5 -60t64.5 -146q0 -53 -28 -98.5t-77 -73.5q59 -27 92.5 -75.5t33.5 -108.5zM306 676
q-59 0 -96.5 -37t-37.5 -92q0 -53 40 -92.5t96 -39.5q55 0 94 39.5t39 92.5q0 54 -38.5 91.5t-96.5 37.5zM306 337q-63 0 -109 -39t-46 -94q0 -58 45.5 -96.5t111.5 -38.5q65 0 109.5 38.5t44.5 96.5q0 55 -46.5 94t-109.5 39z" />
    <glyph glyph-name="nine.osf" horiz-adv-x="604" 
d="M406 -33l-115 -158h-109l138 189q15 20 29 40.5t30 44.5q-32 -11 -60 -16t-57 -5q-90 0 -151 64.5t-61 164.5q0 103 70 172.5t180 69.5q112 0 179 -68t67 -181q0 -68 -29.5 -136t-110.5 -181zM142 294q0 -71 45.5 -112.5t120.5 -41.5q27 0 54 3.5t58 10.5q17 35 25 66.5
t8 61.5q0 77 -42 123t-112 46q-67 0 -112 -45.5t-45 -111.5z" />
    <glyph glyph-name="plus.osf" horiz-adv-x="600" 
d="M550 304v-80h-208v-211h-84v211h-208v80h208v210h84v-210h208z" />
    <glyph glyph-name="divide.osf" horiz-adv-x="600" 
d="M300 400q-28 0 -48 20t-20 48t20 48t48 20t48 -20t20 -48t-20 -48t-48 -20zM550 304v-80h-500v80h500zM300 -8q-28 0 -48 20t-20 48q0 27 20 47t48 20t48 -20t20 -47q0 -28 -20 -48t-48 -20z" />
    <glyph glyph-name="minus.osf" horiz-adv-x="600" 
d="M550 304v-80h-500v80h500z" />
    <glyph glyph-name="equal.osf" horiz-adv-x="600" 
d="M540 404v-80h-480v80h480zM540 204v-80h-480v80h480z" />
    </font>
</defs>
</svg>
