<?xml version="1.0" encoding="utf-8"?>
<!-- Generator: Adobe Illustrator 15.0.0, SVG Export Plug-In  -->
<!DOCTYPE svg PUBLIC "-//W3C//DTD SVG 1.1//EN" "http://www.w3.org/Graphics/SVG/1.1/DTD/svg11.dtd" [
	<!ENTITY ns_flows "http://ns.adobe.com/Flows/1.0/">
]>
<svg version="1.1"
	 xmlns="http://www.w3.org/2000/svg" xmlns:xlink="http://www.w3.org/1999/xlink" xmlns:a="http://ns.adobe.com/AdobeSVGViewerExtensions/3.0/"
	 x="0px" y="0px" width="80px" height="80px" viewBox="0 -1.111 80 80" enable-background="new 0 -1.111 80 80"
	 xml:space="preserve">
<defs>
</defs>
<path display="none" fill="#FFFFFF" d="M0,61.364h46.4v15.625l9.6-5.76l9.6,5.76V61.364h11.201V0.563H0V61.364z M62.824,50.505
	c-0.145,0.146-0.297,0.28-0.449,0.416c-0.086,0.077-0.166,0.159-0.256,0.231c-0.1,0.084-0.205,0.154-0.309,0.232
	c-1.348,1.032-2.973,1.719-4.748,1.916c-0.029,0.002-0.057,0.009-0.088,0.012c-0.322,0.033-0.648,0.051-0.979,0.051
	c-0.328,0-0.654-0.019-0.977-0.051c-0.029-0.003-0.059-0.01-0.088-0.012c-1.775-0.197-3.398-0.884-4.75-1.916
	c-0.102-0.078-0.207-0.15-0.307-0.232c-0.088-0.072-0.17-0.154-0.256-0.231c-0.152-0.136-0.305-0.271-0.449-0.416
	c-1.713-1.734-2.775-4.115-2.775-6.742c0-5.294,4.305-9.601,9.6-9.601s9.6,4.307,9.6,9.601C65.6,46.389,64.539,48.77,62.824,50.505z
	 M62.4,71.337l-6.4-3.84l-6.4,3.84v-9.974v-6.513c0.055,0.032,0.115,0.053,0.172,0.083c0.424,0.236,0.861,0.455,1.313,0.644
	c0.018,0.008,0.039,0.015,0.061,0.022c1.498,0.617,3.137,0.963,4.857,0.963s3.357-0.346,4.857-0.963
	c0.02-0.008,0.039-0.015,0.061-0.022c0.451-0.188,0.889-0.405,1.313-0.644c0.057-0.03,0.117-0.051,0.172-0.083v6.513v9.974H62.4z
	 M3.2,3.763h70.4v54.399h-8v-5.961c1.986-2.256,3.201-5.205,3.201-8.438c0-7.058-5.742-12.8-12.801-12.8
	c-7.057,0-12.801,5.742-12.801,12.8c0,3.233,1.215,6.183,3.201,8.438v5.961H3.2V3.763z"/>
<rect x="17.6" y="10.163" display="none" fill="#FFFFFF" width="41.599" height="3.201"/>
<rect x="25.6" y="19.763" display="none" fill="#FFFFFF" width="25.599" height="3.2"/>
<rect x="9.6" y="48.563" display="none" fill="#FFFFFF" width="17.6" height="3.2"/>
<path fill="#FFFFFF" d="M72.094,30.075l1.119-10.692l-9.824-4.37L59.021,5.19L48.328,6.307L39.625,0l-8.703,6.307L20.231,5.19
	l-4.37,9.821l-9.822,4.371l1.117,10.691l-6.307,8.702l6.307,8.701L6.037,58.169l9.823,4.37l4.368,9.822l10.692-1.117l8.705,6.307
	l8.701-6.307l10.691,1.117l4.371-9.821l9.822-4.371l-1.117-10.691l6.307-8.702L72.094,30.075z M69.787,56.192l-8.822,3.925
	l-3.926,8.821l-9.598-1.002L39.625,73.6l-7.817-5.664l-9.6,1.002l-3.925-8.822l-8.821-3.924l1.001-9.599L4.8,38.776l5.666-7.816
	l-1.002-9.6l8.822-3.925l3.926-8.821l9.598,1.001l7.815-5.664l7.816,5.664l9.6-1.001l3.924,8.822l8.822,3.923l-1.002,9.599
	l5.664,7.817l-5.666,7.816L69.787,56.192z"/>
<polygon fill="#FFFFFF" points="33.224,49.313 23.156,39.245 20.893,41.507 33.224,53.838 61.557,25.507 59.293,23.245 "/>
</svg>
