<?xml version="1.0" encoding="utf-8"?>
<!-- Generator: Adobe Illustrator 15.0.0, SVG Export Plug-In  -->
<!DOCTYPE svg PUBLIC "-//W3C//DTD SVG 1.1//EN" "http://www.w3.org/Graphics/SVG/1.1/DTD/svg11.dtd" [
	<!ENTITY ns_flows "http://ns.adobe.com/Flows/1.0/">
]>
<svg version="1.1"
	 xmlns="http://www.w3.org/2000/svg" xmlns:xlink="http://www.w3.org/1999/xlink" xmlns:a="http://ns.adobe.com/AdobeSVGViewerExtensions/3.0/"
	 x="0px" y="0px" width="80px" height="80px" viewBox="0 0 80 80" enable-background="new 0 0 80 80" xml:space="preserve">
<defs>
</defs>
<path fill="#FFFFFF" d="M40,80C17.943,80,0,62.057,0,40S17.943,0,40,0s40,17.943,40,40S62.057,80,40,80z M40,3.333
	C19.784,3.333,3.333,19.784,3.333,40c0,20.217,16.45,36.667,36.667,36.667c20.217,0,36.667-16.45,36.667-36.667
	C76.667,19.784,60.217,3.333,40,3.333z"/>
<path fill="#FFFFFF" d="M40,61.667c-11.946,0-21.667-9.721-21.667-21.667c0-11.947,9.72-21.667,21.667-21.667
	S61.667,28.053,61.667,40C61.667,51.946,51.946,61.667,40,61.667z M40,21.667c-10.106,0-18.333,8.224-18.333,18.333
	c0,10.11,8.227,18.333,18.333,18.333S58.333,50.11,58.333,40C58.333,29.89,50.106,21.667,40,21.667z"/>
<path fill="#FFFFFF" d="M35,21.667c-0.92,0-1.667-0.743-1.667-1.667V3.333c0-0.92,0.747-1.667,1.667-1.667s1.667,0.747,1.667,1.667
	V20C36.667,20.923,35.92,21.667,35,21.667z"/>
<path fill="#FFFFFF" d="M45,21.667c-0.92,0-1.667-0.743-1.667-1.667V3.333c0-0.92,0.747-1.667,1.667-1.667s1.667,0.747,1.667,1.667
	V20C46.667,20.923,45.92,21.667,45,21.667z"/>
<path fill="#FFFFFF" d="M76.667,36.667H60c-0.92,0-1.667-0.747-1.667-1.667S59.08,33.333,60,33.333h16.667
	c0.92,0,1.666,0.747,1.666,1.667S77.587,36.667,76.667,36.667z"/>
<path fill="#FFFFFF" d="M76.667,46.667H60c-0.92,0-1.667-0.747-1.667-1.667S59.08,43.333,60,43.333h16.667
	c0.92,0,1.666,0.747,1.666,1.667S77.587,46.667,76.667,46.667z"/>
<path fill="#FFFFFF" d="M45,78.333c-0.92,0-1.667-0.746-1.667-1.666V60c0-0.92,0.747-1.667,1.667-1.667S46.667,59.08,46.667,60
	v16.667C46.667,77.59,45.92,78.333,45,78.333z"/>
<path fill="#FFFFFF" d="M35,78.333c-0.92,0-1.667-0.746-1.667-1.666V60c0-0.92,0.747-1.667,1.667-1.667S36.667,59.08,36.667,60
	v16.667C36.667,77.59,35.92,78.333,35,78.333z"/>
<path fill="#FFFFFF" d="M20,46.667H3.333c-0.92,0-1.667-0.747-1.667-1.667s0.747-1.667,1.667-1.667H20
	c0.92,0,1.667,0.747,1.667,1.667S20.92,46.667,20,46.667z"/>
<path fill="#FFFFFF" d="M20,36.667H3.333c-0.92,0-1.667-0.747-1.667-1.667s0.747-1.667,1.667-1.667H20
	c0.92,0,1.667,0.747,1.667,1.667S20.92,36.667,20,36.667z"/>
</svg>
