<?xml version="1.0" encoding="utf-8"?>
<!-- Generator: Adobe Illustrator 15.0.0, SVG Export Plug-In  -->
<!DOCTYPE svg PUBLIC "-//W3C//DTD SVG 1.1//EN" "http://www.w3.org/Graphics/SVG/1.1/DTD/svg11.dtd" [
	<!ENTITY ns_flows "http://ns.adobe.com/Flows/1.0/">
]>
<svg version="1.1"
	 xmlns="http://www.w3.org/2000/svg" xmlns:xlink="http://www.w3.org/1999/xlink" xmlns:a="http://ns.adobe.com/AdobeSVGViewerExtensions/3.0/"
	 x="0px" y="0px" width="80px" height="80px" viewBox="-1.6 -1.674 80 80" enable-background="new -1.6 -1.674 80 80"
	 xml:space="preserve">
<defs>
</defs>
<path fill="#FFFFFF" d="M0,60.801h46.4v15.625l9.6-5.76l9.601,5.76V60.801h11.2V0H0V60.801z M62.824,49.942
	c-0.145,0.146-0.297,0.28-0.449,0.416c-0.086,0.077-0.166,0.159-0.256,0.231c-0.1,0.084-0.205,0.154-0.308,0.232
	c-1.349,1.032-2.974,1.719-4.749,1.916c-0.028,0.002-0.057,0.009-0.088,0.012c-0.321,0.033-0.648,0.051-0.978,0.051
	s-0.655-0.019-0.978-0.051c-0.029-0.003-0.058-0.01-0.088-0.012c-1.774-0.197-3.398-0.884-4.749-1.916
	c-0.103-0.078-0.208-0.15-0.308-0.232c-0.088-0.072-0.169-0.154-0.256-0.231c-0.151-0.136-0.304-0.271-0.449-0.416
	c-1.713-1.734-2.775-4.115-2.775-6.742c0-5.294,4.305-9.601,9.6-9.601s9.6,4.307,9.6,9.601C65.6,45.826,64.539,48.207,62.824,49.942
	z M62.4,70.774l-6.4-3.84l-6.399,3.84v-9.974v-6.513c0.054,0.032,0.115,0.053,0.171,0.083c0.424,0.236,0.861,0.455,1.313,0.644
	c0.019,0.008,0.039,0.015,0.061,0.022C52.643,55.654,54.282,56,56.001,56c1.721,0,3.358-0.346,4.857-0.963
	c0.02-0.008,0.04-0.015,0.061-0.022c0.451-0.188,0.889-0.405,1.313-0.644c0.057-0.03,0.117-0.051,0.172-0.083v6.513v9.974H62.4z
	 M3.2,3.2h70.4V57.6h-8v-5.961c1.985-2.256,3.2-5.205,3.2-8.438c0-7.058-5.742-12.8-12.801-12.8c-7.057,0-12.8,5.742-12.8,12.8
	c0,3.233,1.215,6.183,3.2,8.438V57.6H3.2V3.2z"/>
<rect x="17.6" y="9.6" fill="#FFFFFF" width="41.6" height="3.201"/>
<rect x="25.6" y="19.2" fill="#FFFFFF" width="25.6" height="3.2"/>
<rect x="9.6" y="48" fill="#FFFFFF" width="17.6" height="3.2"/>
</svg>
